<svg xmlns="http://www.w3.org/2000/svg" xmlns:svg="http://www.w3.org/2000/svg" id="svg3039" width="20" height="20" version="1.1"><defs id="defs3041"><filter id="filter4099" width="1.464" height="1.132" x="-.232" y="-.066"><feGaussianBlur id="feGaussianBlur4101" stdDeviation=".261"/></filter><filter id="filter4103" width="1.088" height="1.256" x="-.044" y="-.128"><feGaussianBlur id="feGaussianBlur4105" stdDeviation=".261"/></filter><filter id="filter5035" width="1.445" height="1.454" x="-.222" y="-.227"><feGaussianBlur id="feGaussianBlur5037" stdDeviation=".286"/></filter><filter id="filter5039" width="1.445" height="1.454" x="-.222" y="-.227"><feGaussianBlur id="feGaussianBlur5041" stdDeviation=".286"/></filter><filter id="filter5043" width="1.095" height="1.916" x="-.047" y="-.458"><feGaussianBlur id="feGaussianBlur5045" stdDeviation=".286"/></filter><filter id="filter5047" width="1.095" height="1.916" x="-.047" y="-.458"><feGaussianBlur id="feGaussianBlur5049" stdDeviation=".286"/></filter></defs><metadata id="metadata3044"/><g id="layer1" transform="translate(0,4)"><path font-size="medium" style="text-indent:0;text-align:start;line-height:normal;text-transform:none;block-progression:tb;marker:none;-inkscape-font-specification:Sans" id="path4381" fill="#404040" fill-opacity="1" stroke="none" stroke-width="1.5" d="m 6.1183471,2.75 a 0.75065076,0.75065076 0 1 0 0.0625,1.5 l 12.9999999,0 a 0.750075,0.750075 0 1 0 0,-1.5 l -12.9999999,0 a 0.750075,0.750075 0 0 0 -0.0625,0 z" baseline-shift="baseline" color="#000" direction="ltr" display="inline" enable-background="accumulate" filter="url(#filter5047)" font-family="Sans" font-stretch="normal" font-style="normal" font-variant="normal" font-weight="normal" letter-spacing="normal" overflow="visible" text-anchor="start" text-decoration="none" visibility="visible" word-spacing="normal" writing-mode="lr-tb"/><path font-size="medium" style="text-indent:0;text-align:start;line-height:normal;text-transform:none;block-progression:tb;marker:none;-inkscape-font-specification:Sans" id="path4891" fill="#404040" fill-opacity="1" stroke="none" stroke-width="1.5" d="m 6.1808471,7.78125 a 0.750075,0.750075 0 1 0 0,1.5 l 12.9999999,0 a 0.750075,0.750075 0 1 0 0,-1.5 l -12.9999999,0 z" baseline-shift="baseline" color="#000" direction="ltr" display="inline" enable-background="accumulate" filter="url(#filter5043)" font-family="Sans" font-stretch="normal" font-style="normal" font-variant="normal" font-weight="normal" letter-spacing="normal" overflow="visible" text-anchor="start" text-decoration="none" visibility="visible" word-spacing="normal" writing-mode="lr-tb"/><path id="path4895" fill="#404040" fill-opacity="1" stroke="none" d="m 4.0774157,7.5606966 a 1.5449584,1.5131035 0 1 1 -3.0899167,0 1.5449584,1.5131035 0 1 1 3.0899167,0 z" filter="url(#filter5039)" transform="translate(-0.76451546,-4.4141125)"/><path id="path4897" fill="#404040" fill-opacity="1" stroke="none" d="m 4.0774157,7.5606966 a 1.5449584,1.5131035 0 1 1 -3.0899167,0 1.5449584,1.5131035 0 1 1 3.0899167,0 z" filter="url(#filter5035)" transform="translate(-0.79637027,1.4471726)"/></g></svg>