<svg xmlns="http://www.w3.org/2000/svg" xmlns:svg="http://www.w3.org/2000/svg" id="svg3039" width="20" height="20" version="1.1"><metadata id="metadata3044"/><g id="layer1" transform="translate(0,4)"><path id="path5421" fill="#606060" fill-opacity="1" stroke="none" d="m 3,-4 14,0 0,20 -14,0 z"/><path id="path5423" fill="#fff" fill-opacity="1" stroke="none" d="m 4,-3 0,1 1,0 0,-1 z"/><path id="path5425" fill="#fff" fill-opacity="1" stroke="none" d="M 4,-1 4,0 5,0 5,-1 z"/><path id="path5427" fill="#fff" fill-opacity="1" stroke="none" d="M 4,1 4,2 5,2 5,1 z"/><path id="path5429" fill="#fff" fill-opacity="1" stroke="none" d="M 4,3 4,4 5,4 5,3 z"/><path id="path5431" fill="#fff" fill-opacity="1" stroke="none" d="M 4,5 4,6 5,6 5,5 z"/><path id="path5433" fill="#fff" fill-opacity="1" stroke="none" d="M 4,7 4,8 5,8 5,7 z"/><path id="path5435" fill="#fff" fill-opacity="1" stroke="none" d="m 4,9 0,1 1,0 0,-1 z"/><path id="path5437" fill="#fff" fill-opacity="1" stroke="none" d="m 4,11 0,1 1,0 0,-1 z"/><path id="path5439" fill="#fff" fill-opacity="1" stroke="none" d="m 4,13 0,1 1,0 0,-1 z"/><path id="path5441" fill="#fff" fill-opacity="1" stroke="none" d="m 4,15 0,1 1,0 0,-1 z"/><path id="path5443" fill="#fff" fill-opacity="1" stroke="none" d="m 15,-3 0,1 1,0 0,-1 z"/><path id="path5445" fill="#fff" fill-opacity="1" stroke="none" d="m 15,-1 0,1 1,0 0,-1 z"/><path id="path5447" fill="#fff" fill-opacity="1" stroke="none" d="m 15,1 0,1 1,0 0,-1 z"/><path id="path5449" fill="#fff" fill-opacity="1" stroke="none" d="m 15,3 0,1 1,0 0,-1 z"/><path id="path5451" fill="#fff" fill-opacity="1" stroke="none" d="m 15,5 0,1 1,0 0,-1 z"/><path id="path5453" fill="#fff" fill-opacity="1" stroke="none" d="m 15,7 0,1 1,0 0,-1 z"/><path id="path5455" fill="#fff" fill-opacity="1" stroke="none" d="m 15,9 0,1 1,0 0,-1 z"/><path id="path5457" fill="#fff" fill-opacity="1" stroke="none" d="m 15,11 0,1 1,0 0,-1 z"/><path id="path5459" fill="#fff" fill-opacity="1" stroke="none" d="m 15,13 0,1 1,0 0,-1 z"/><path id="path5461" fill="#fff" fill-opacity="1" stroke="none" d="m 15,15 0,1 1,0 0,-1 z"/><path id="path5465" fill="#c0c0a0" fill-opacity="1" stroke="none" stroke-linecap="butt" stroke-linejoin="miter" stroke-opacity="1" stroke-width="1" d="m 6,3 8,0 0,6 -8,0 z" transform="translate(0,-4)"/><path id="path6069" fill="#f0f0e0" fill-opacity="1" stroke="none" d="M 6,9 9.5,7.5 14,9 12.5,6.5 14,4 11.5,5 10.5,3 9.5,5 6,3 7.5,6 z" transform="translate(0,-4)"/><path id="path6075" fill="#c0c0a0" fill-opacity="1" stroke="none" d="m 6,6 8,0 0,6 -8,0 z"/><path id="path6077" fill="#f0f0e0" fill-opacity="1" stroke="none" d="M 6,12 9.5,10.5 14,12 12.5,9.5 14,7 11.5,8 10.5,6 9.5,8 6,6 7.5,9 z"/><path id="path6093" fill="#c0c0a0" fill-opacity="1" stroke="none" d="m 6,-4 0,2 8,0 0,-2 -8,0 z"/><path id="path6095" fill="#f0f0e0" fill-opacity="1" stroke="none" d="M 7,-4 6,-2 9.5,-3.5 14,-2 12.8125,-4 7,-4 z"/><path id="path6099" fill="#c0c0a0" fill-opacity="1" stroke="none" d="m 6,13 0,3 8,0 0,-3 -8,0 z"/><path id="path6101" fill="#f0f0e0" fill-opacity="1" stroke="none" d="m 6,13 1.5,3 5.3125,0 1.1875,-2 -2.5,1 -1,-2 -1,2 L 6,13 z"/></g></svg>