<svg xmlns="http://www.w3.org/2000/svg" xmlns:svg="http://www.w3.org/2000/svg" id="svg3039" width="20" height="20" version="1.1"><metadata id="metadata3044"/><g id="layer1" transform="translate(0,4)"><path id="path4565" fill="#000" fill-opacity=".125" stroke="#404040" stroke-dasharray="none" stroke-linecap="butt" stroke-linejoin="miter" stroke-miterlimit="4" stroke-opacity="1" stroke-width="1" d="m 1.5318548,-0.45564431 c 0,-1.49999999 0.5,-1.99999999 2,-1.99999999 l 12.9681452,0 c 1.5,0 2,0.4584682 2,1.95846821 L 18.5,13.5 c 0,1.5 -0.5,2 -2,2 l -13,0 c -1.5,0 -2,-0.5 -2,-2 z"/><path id="path4567" fill="none" stroke="#404040" stroke-dasharray="none" stroke-linecap="round" stroke-linejoin="miter" stroke-miterlimit="4" stroke-opacity="1" stroke-width="1.5" d="m 4,10.5 12,0"/><path id="path4571" fill="none" stroke="#404040" stroke-dasharray="none" stroke-linecap="round" stroke-linejoin="miter" stroke-miterlimit="4" stroke-opacity="1" stroke-width="1.5" d="m 4,4.5 12,0"/><path id="path4577" fill="none" stroke="#404040" stroke-dasharray="none" stroke-linecap="round" stroke-linejoin="miter" stroke-miterlimit="4" stroke-opacity="1" stroke-width="1.5" d="m 4,6.5 12,0"/><path id="path4579" fill="none" stroke="#404040" stroke-dasharray="none" stroke-linecap="round" stroke-linejoin="miter" stroke-miterlimit="4" stroke-opacity="1" stroke-width="1.5" d="m 4,8.5 12,0"/><path id="path4835" fill="navy" fill-opacity=".69" stroke="#2020a0" stroke-dasharray="none" stroke-linecap="butt" stroke-linejoin="miter" stroke-miterlimit="4" stroke-opacity="1" stroke-width="1" d="m 1.5318548,-0.45564431 c 0,-1.49999999 0.5,-1.99999999 2,-1.99999999 l 12.9681452,0 c 1.5,0 2,0.4584682 2,1.95846821 0,0 0.03186,0.99717609 0,1.99476549 C 13.031855,1.5 7.1780413,1.5731835 1.5318548,1.5612992 1.5,0.5 1.5318552,-0.45564431 1.5318548,-0.45564431 Z"/><path id="path4575" fill="none" fill-opacity=".626" stroke="#e0e0ff" stroke-dasharray="none" stroke-linecap="round" stroke-linejoin="miter" stroke-miterlimit="4" stroke-opacity="1" stroke-width="1.5" d="m 3.4766169,-0.48870435 5.019354,0"/><path id="path6104" fill="none" stroke="#404040" stroke-dasharray="none" stroke-linecap="round" stroke-linejoin="miter" stroke-miterlimit="4" stroke-opacity="1" stroke-width="1.5" d="m 4,12.5 10,0"/></g></svg>