<svg xmlns="http://www.w3.org/2000/svg" xmlns:svg="http://www.w3.org/2000/svg" id="svg3039" width="20" height="20" version="1.1"><defs id="defs3041"><filter id="filter4099" width="1.464" height="1.132" x="-.232" y="-.066"><feGaussianBlur id="feGaussianBlur4101" stdDeviation=".261"/></filter><filter id="filter4103" width="1.088" height="1.256" x="-.044" y="-.128"><feGaussianBlur id="feGaussianBlur4105" stdDeviation=".261"/></filter></defs><metadata id="metadata3044"/><g id="layer1" transform="translate(0,4)"><path id="path5277" fill="silver" fill-opacity="1" stroke="none" d="m 0,0 0,20 20,0 0,-3 -17,0 0,-4 13,0 0,2.5 4,-4 L 16,8 16,10.5 3,10.5 3,7 20,7 20,4 3,4 3,0 z" transform="translate(0,-4)"/><path id="path5279" fill="none" stroke="#000" stroke-dasharray="none" stroke-linecap="butt" stroke-linejoin="round" stroke-miterlimit="4" stroke-opacity="1" stroke-width=".5" d="m 0,-0.5 0,20.5 20.5,0 0,-3 -17.5,0 0,-4 13,0 0,2.5 4,-4 L 16,8 16,10.5 3,10.5 3,7 20.5,7 20.5,4 3,4 3,-0.5 z" transform="translate(0,-4)"/></g></svg>