<svg xmlns="http://www.w3.org/2000/svg" xmlns:svg="http://www.w3.org/2000/svg" id="svg3039" width="20" height="20" version="1.1"><defs id="defs3041"><marker id="TriangleOutM" orient="auto" overflow="visible" refX="0" refY="0"><path id="path7079" fill-rule="evenodd" stroke="#000" stroke-width="1pt" marker-start="none" d="M 5.77,0.0 L -2.88,5.0 L -2.88,-5.0 L 5.77,0.0 z" transform="scale(0.4)"/></marker><filter id="filter4597"><feGaussianBlur id="feGaussianBlur4599" stdDeviation=".186"/></filter><filter id="filter6899" width="1.055" height="1.385" x="-.027" y="-.193"><feGaussianBlur id="feGaussianBlur6901" stdDeviation=".161"/></filter></defs><metadata id="metadata3044"/><g id="layer1" transform="translate(0,4)"><path id="path6926" fill="#80c080" fill-opacity="1" stroke="none" d="m 1,-3 0,4 8.5,0 0,-4 z"/><path id="path6928" fill="none" stroke="#404040" stroke-dasharray="1.5 1.5" stroke-dashoffset="0" stroke-linecap="butt" stroke-linejoin="miter" stroke-miterlimit="4" stroke-opacity="1" stroke-width="1.5" d="m 11,-1 4.5,0 3,0"/><path id="path7750" fill="none" stroke="#80c080" stroke-dasharray="1.5 1.5" stroke-dashoffset="0" stroke-linecap="butt" stroke-linejoin="miter" stroke-miterlimit="4" stroke-opacity="1" stroke-width="1.5" d="M 8.5,15 10,5 17.5,3.5 20,15 z"/><path id="path7752" fill="none" stroke="gray" stroke-linecap="square" stroke-linejoin="miter" stroke-opacity="1" stroke-width="1" d="m 0.5,1.5 19,0"/><path id="path7754" fill="none" stroke="gray" stroke-dasharray="none" stroke-linecap="butt" stroke-linejoin="miter" stroke-miterlimit="4" stroke-opacity="1" stroke-width="1.5" marker-end="none" d="m 1.5,3.5 c 0,0 -0.3448435,5.593592 1,7 1.3448435,1.406408 4.5,1 4.5,1"/><path id="path8122" fill="gray" fill-opacity="1" stroke="none" d="M 5,14 5,9 9,11.5 z"/><path id="path8140" fill="none" stroke="gray" stroke-linecap="square" stroke-linejoin="miter" stroke-opacity="1" stroke-width="1" d="m 0.5,-3.5 19,0"/><path id="path8142" fill="none" stroke="gray" stroke-linecap="square" stroke-linejoin="miter" stroke-opacity="1" stroke-width="1" d="m 0.5,-3.5 0,4"/><path id="path8144" fill="none" stroke="gray" stroke-linecap="square" stroke-linejoin="miter" stroke-opacity="1" stroke-width="1" d="m 10,-3.5 0,4"/><path id="path8146" fill="none" stroke="gray" stroke-linecap="square" stroke-linejoin="miter" stroke-opacity="1" stroke-width="1" d="m 19.5,-3 0,4"/></g></svg>