<svg xmlns="http://www.w3.org/2000/svg" xmlns:svg="http://www.w3.org/2000/svg" id="svg3039" width="20" height="20" version="1.1"><defs id="defs3041"><filter id="filter4099" width="1.464" height="1.132" x="-.232" y="-.066"><feGaussianBlur id="feGaussianBlur4101" stdDeviation=".261"/></filter><filter id="filter4103" width="1.088" height="1.256" x="-.044" y="-.128"><feGaussianBlur id="feGaussianBlur4105" stdDeviation=".261"/></filter><filter id="filter5035" width="1.445" height="1.454" x="-.222" y="-.227"><feGaussianBlur id="feGaussianBlur5037" stdDeviation=".286"/></filter><filter id="filter5039" width="1.445" height="1.454" x="-.222" y="-.227"><feGaussianBlur id="feGaussianBlur5041" stdDeviation=".286"/></filter><filter id="filter5043" width="1.095" height="1.916" x="-.047" y="-.458"><feGaussianBlur id="feGaussianBlur5045" stdDeviation=".286"/></filter><filter id="filter5047" width="1.095" height="1.916" x="-.047" y="-.458"><feGaussianBlur id="feGaussianBlur5049" stdDeviation=".286"/></filter></defs><metadata id="metadata3044"/><g id="layer1" transform="translate(0,4)"><path font-size="medium" style="text-indent:0;text-align:start;line-height:normal;text-transform:none;block-progression:tb;marker:none;-inkscape-font-specification:Sans" id="path4381" fill="#404040" fill-opacity="1" stroke="none" stroke-width="1.5" d="m 3.3788334,2.7818548 a 0.75065076,0.75065076 0 1 0 0.0625,1.5 l 12.9999996,0 a 0.750075,0.750075 0 1 0 0,-1.5 l -12.9999996,0 a 0.750075,0.750075 0 0 0 -0.0625,0 z" baseline-shift="baseline" color="#000" direction="ltr" display="inline" enable-background="accumulate" filter="url(#filter5047)" font-family="Sans" font-stretch="normal" font-style="normal" font-variant="normal" font-weight="normal" letter-spacing="normal" overflow="visible" text-anchor="start" text-decoration="none" visibility="visible" word-spacing="normal" writing-mode="lr-tb"/><path font-size="medium" style="text-indent:0;text-align:start;line-height:normal;text-transform:none;block-progression:tb;marker:none;-inkscape-font-specification:Sans" id="path4891" fill="#404040" fill-opacity="1" stroke="none" stroke-width="1.5" d="m 3.4413334,7.8131048 a 0.750075,0.750075 0 1 0 0,1.5 l 12.9999996,0 a 0.750075,0.750075 0 1 0 0,-1.5 l -12.9999996,0 z" baseline-shift="baseline" color="#000" direction="ltr" display="inline" enable-background="accumulate" filter="url(#filter5043)" font-family="Sans" font-stretch="normal" font-style="normal" font-variant="normal" font-weight="normal" letter-spacing="normal" overflow="visible" text-anchor="start" text-decoration="none" visibility="visible" word-spacing="normal" writing-mode="lr-tb"/></g></svg>