<svg xmlns="http://www.w3.org/2000/svg" xmlns:svg="http://www.w3.org/2000/svg" id="svg3039" width="20" height="20" version="1.1"><metadata id="metadata3044"/><g id="layer1" transform="translate(0,4)"><path id="path8607" fill="none" stroke="gray" stroke-dasharray="none" stroke-linecap="round" stroke-linejoin="miter" stroke-miterlimit="4" stroke-opacity="1" stroke-width="1.2" d="m 16.5,1.5 0,-3 -15,0 0,15 15,0 0,-3"/><path id="path5628" fill="#e9f5f4" fill-opacity="1" stroke="none" d="m 2,-1 14,0 0,14 -14,0 z"/><path id="path5630" fill="#becfbc" fill-opacity="1" stroke="none" d="M 2,11.460387 16,11.5 16,4 1.9750033,3.9479367 z"/><path id="path5626" fill="#e6eecc" fill-opacity="1" stroke="none" d="m 2,13 14,0 0,-4.5 C 16,8.5 13.357179,8.8405337 8,7.7297266 2.6428167,6.6189209 2,5.864396 2,5.864396 z"/><path id="path5632" fill="#81553a" fill-opacity="1" stroke="none" d="M 4,13 6,13 7.1904761,3.9990653 6,3.9990653 z"/><path id="path5634" fill="#465901" fill-opacity="1" stroke="none" d="m 6,3.9990653 c 0,0 0.5,-2.4871077 2,-3.10888457 1.5,-0.62177693 4.745162,-0.96626163 4.745162,-0.96626163 0,0 -3.1480937,1.5190468 -4.1592745,2.2098154 C 7.5747066,2.8245033 6.9362904,5.2150397 6.9362904,5.2150397 z"/><path id="path5636" fill="#465901" fill-opacity="1" stroke="none" d="m 6,3.9990653 1.1904761,0 c 0,0 -0.7552732,-2.2021104 -1.7857142,-2.9608425 C 4.3743208,0.27949083 1.2380952,0.29801219 1.2380952,0.29801219 c 0,0 2.6048338,1.50485301 3.5389211,2.14059391 C 5.7111036,3.0743469 6,3.9990653 6,3.9990653 z"/><path id="path5638" fill="#465901" fill-opacity="1" stroke="none" d="m 6,3.9990653 0.945641,0.8986633 c 0,0 1.5891053,-0.5008076 2.5302231,-0.3440788 0.9411179,0.1567282 3.2728869,1.2427419 3.2728869,1.2427419 0,0 -1.663174,-2.5305347 -2.731355,-2.8544424 C 8.9492139,2.6180411 6,3.9990653 6,3.9990653 z"/><path id="path5640" fill="#465901" fill-opacity="1" stroke="none" d="M 6.7229836,4.8068741 7.1904761,3.9990653 c 0,0 -2.1922779,-0.9160931 -3.3903029,-0.6213713 -1.198025,0.2947218 -3.06175167,3.1192951 -3.06175167,3.1192951 0,0 2.56909097,-1.4464738 3.58012657,-1.6505018 1.0110356,-0.204028 2.4044355,-0.039615 2.4044355,-0.039615 z"/><path id="path8859" fill="none" stroke="#c04040" stroke-dasharray="none" stroke-linecap="butt" stroke-linejoin="miter" stroke-miterlimit="4" stroke-opacity="1" stroke-width="1.7" d="M 12.5,6 19,6"/><path id="path8861" fill="none" stroke="#c04040" stroke-dasharray="none" stroke-linecap="round" stroke-linejoin="miter" stroke-miterlimit="4" stroke-opacity="1" stroke-width="1.5" d="M 17,3.5 19,6 17,8.5"/></g></svg>