<svg xmlns="http://www.w3.org/2000/svg" xmlns:svg="http://www.w3.org/2000/svg" id="svg3039" width="20" height="20" version="1.1"><defs id="defs3041"><marker id="TriangleOutM" orient="auto" overflow="visible" refX="0" refY="0"><path id="path7079" fill-rule="evenodd" stroke="#000" stroke-width="1pt" marker-start="none" d="M 5.77,0.0 L -2.88,5.0 L -2.88,-5.0 L 5.77,0.0 z" transform="scale(0.4)"/></marker><filter id="filter4597"><feGaussianBlur id="feGaussianBlur4599" stdDeviation=".186"/></filter></defs><metadata id="metadata3044"/><g id="layer1" transform="translate(0,4)"><path id="path8169" fill="#8080c0" fill-opacity=".502" stroke="none" d="M 6,-4 6,16 7,16 7,-4 z"/><path id="path8173" fill="#8080c0" fill-opacity=".502" stroke="none" d="M 2,-4 2,16 3,16 3,-4 z"/><path id="path8175" fill="#8080c0" fill-opacity=".502" stroke="none" d="m 14,-4 0,20 1,0 0,-20 z"/><path id="path8177" fill="#8080c0" fill-opacity=".502" stroke="none" d="m 18,-4 0,20 1,0 0,-20 z"/><path id="path8179" fill="#8080c0" fill-opacity=".502" stroke="none" d="M 20,10 1.15e-5,9.978388 l -0.0011,0.999999 19.9999875,0.02161 z"/><path id="path8181" fill="#8080c0" fill-opacity=".502" stroke="none" d="M 20.001101,14.000003 0.0011125,13.978391 1.25e-5,14.97839 20,15 z"/><path id="path8183" fill="#8080c0" fill-opacity=".502" stroke="none" d="M 20.001101,2.000003 0.0011125,1.978391 1.25e-5,2.97839 20,3 z"/><path id="path8185" fill="#8080c0" fill-opacity=".502" stroke="none" d="M 20,-2 1.15e-5,-2.021612 l -0.0011,0.999999 19.9999875,0.02161 z"/><path id="path8187" fill="gray" fill-opacity="1" stroke="none" d="M 19.999008,6.0000005 -9.8179e-4,6.0198288 9.62e-6,7.0198283 20,7 z"/><path id="path8167" fill="gray" fill-opacity="1" stroke="none" stroke-linecap="butt" stroke-linejoin="miter" stroke-opacity="1" stroke-width="1" d="m 10,0 0,20 1,0 0,-20 z" transform="translate(0,-4)"/></g></svg>