<svg xmlns="http://www.w3.org/2000/svg" xmlns:svg="http://www.w3.org/2000/svg" id="svg3039" width="20" height="20" version="1.1"><defs id="defs3041"><filter id="filter3957"><feGaussianBlur id="feGaussianBlur3959" stdDeviation=".174"/></filter></defs><metadata id="metadata3044"/><g id="layer1" transform="translate(0,4)"><path id="path5338" fill="#c0c0a0" fill-opacity="1" stroke="#808060" stroke-linecap="butt" stroke-linejoin="round" stroke-opacity="1" stroke-width="1" d="m 6.5,-1.5 c 0,0 3.993068,0.5 6,0.5 2.006932,0 6,-0.5 6,-0.5 l -3,12 c 0,0 -4.577593,0.49426 -7,0.5 C 6.077593,11.00574 1,10.5 1,10.5 z"/><path id="path5340" fill="#a0a080" fill-opacity="1" stroke="#808060" stroke-linecap="butt" stroke-linejoin="round" stroke-opacity="1" stroke-width="1" d="m 1,10.5 -0.5,3 16,0 -1,-3 c 0,0 -4.577593,0.49426 -7,0.5 C 6.077593,11.00574 1,10.5 1,10.5 z"/><path id="path5342" fill="#a0a080" fill-opacity="1" stroke="#808060" stroke-linecap="butt" stroke-linejoin="round" stroke-opacity="1" stroke-width="1" d="m 16.5,13.5 3,-12.5 -1,-2.5 -3,12 z"/><text id="text3792" x="12.599" y="8.47" fill="#404030" fill-opacity="1" stroke="none" filter="url(#filter3957)" font-family="CMU Sans Serif" font-size="16.529" font-stretch="normal" font-style="normal" font-variant="normal" font-weight="bold" letter-spacing="0" text-anchor="middle" transform="matrix(0.94107549,0,-0.39628164,1.062614,0,0)" word-spacing="0" writing-mode="lr" xml:space="preserve" style="text-align:center;line-height:25%;-inkscape-font-specification:CMU Sans Serif Bold"><tspan id="tspan3808">z</tspan></text></g></svg>