<svg xmlns="http://www.w3.org/2000/svg" xmlns:svg="http://www.w3.org/2000/svg" id="svg3039" width="20" height="20" version="1.1"><metadata id="metadata3044"/><g id="layer1" transform="translate(0,4)"><path id="path5624" fill="#fff" fill-opacity="1" stroke="#fff" stroke-dasharray="none" stroke-dashoffset=".5" stroke-linecap="square" stroke-linejoin="round" stroke-miterlimit="4" stroke-opacity="1" stroke-width="1.781" d="m 4.738149,8.9327221 14.34468,0 0,-11.8922555 -14.370114,0 z" opacity=".666"/><path id="path5628" fill="#e9f5f4" fill-opacity="1" stroke="none" d="m 5.526598,-1.979055 12.793216,0.031629 0.02543,9.8996696 -12.81865,-0.03163 z" opacity=".666"/><path id="path5630" fill="#becfbc" fill-opacity="1" stroke="none" d="M 5.54656,6.9605481 18.29438,6.9085101 18.319818,0.994012 5.526601,0.9623838 z" opacity=".666"/><path id="path5626" fill="#e6eecc" fill-opacity="1" stroke="none" d="m 5.552031,7.9838721 12.767783,0.03162 0.0016,-4.0336187 c 0,0 -3.706967,0.8869017 -7.984299,0 C 6.059804,3.0949771 5.54656,2.4925419 5.54656,2.4925419 z" opacity=".666"/><path id="path5642" fill="none" stroke="gray" stroke-opacity="1" stroke-width=".885" d="m 4.348915,9.3874001 15.170166,0 0,-12.7427556 -15.170166,0 z" opacity=".666"/><path id="path8944" fill="#807060" fill-opacity="1" stroke="#604c40" stroke-dasharray="none" stroke-linejoin="round" stroke-miterlimit="4" stroke-opacity="1" stroke-width=".5" d="m 5,2.5 1,-1 13.5,12.5 -2,2 z"/><path id="path8906" fill="#e0e0a0" fill-opacity="1" stroke="#c08040" stroke-dasharray="none" stroke-linejoin="round" stroke-miterlimit="4" stroke-opacity="1" stroke-width="1" d="M 7.8685518,4.3685516 3.2254456,4.6521549 2.6307167,9.2657396 0.92619522,4.9375214 -3.6453659,5.7975767 -0.05571186,2.8389875 -2.2863632,-1.2430538 1.6366865,1.2566557 4.8296293,-2.1262399 3.6645533,2.3772548 z" transform="translate(4.6508023,-0.36855163)"/></g></svg>