<svg xmlns="http://www.w3.org/2000/svg" xmlns:svg="http://www.w3.org/2000/svg" id="svg3039" width="20" height="20" version="1.1"><defs id="defs3041"><filter id="filter3957"><feGaussianBlur id="feGaussianBlur3959" stdDeviation=".174"/></filter></defs><metadata id="metadata3044"/><g id="layer1" transform="translate(0,4)"><path id="path5338" fill="#a0a080" fill-opacity="1" stroke="#808060" stroke-linecap="butt" stroke-linejoin="round" stroke-opacity="1" stroke-width="1" d="m 4.6205661,-3.0927405 c 0,0 4.9168575,0.2770163 6.9237899,0.2770163 2.006932,0 6.509677,-0.3088711 6.509677,-0.3088711 L 16.200806,11.646773 c 0,0 -5.660657,0.526115 -8.0830638,0.531855 -2.422407,0.0057 -6.8947585,-0.531855 -6.8947585,-0.531855 z"/><path id="path5340" fill="#e0e0e0" fill-opacity="1" stroke="#808060" stroke-linecap="butt" stroke-linejoin="round" stroke-opacity="1" stroke-width="1" d="m 1.2548385,11.678628 0.3282247,3 c 0,0 4.4520169,0.254837 6.9487912,0.270763 2.4967746,0.01593 7.6495976,-0.207058 7.6495976,-0.207058 l -0.745161,-2.968145 c 0,0 -3.813078,0.366841 -6.2354855,0.372581 -2.422407,0.0057 -7.9459673,-0.468145 -7.945967,-0.468141 z"/><path id="path5342" fill="#e0e0e0" fill-opacity="1" stroke="#808060" stroke-linecap="butt" stroke-linejoin="round" stroke-opacity="1" stroke-width="1" d="M 16.404436,14.710483 18.990323,0.01250093 18.213307,-3.0927405 15.277016,11.933466 Z"/><text id="text3792" x="12.599" y="8.47" fill="#f0f0f0" fill-opacity="1" stroke="#606060" stroke-dasharray="none" stroke-miterlimit="4" stroke-opacity="1" stroke-width=".25" filter="url(#filter3957)" font-family="sans-serif" font-size="15" font-stretch="normal" font-style="normal" font-variant="normal" font-weight="bold" letter-spacing="0" text-anchor="middle" transform="matrix(0.94107549,0,-0.21034828,1.062614,-1.7033103,1.5927405)" word-spacing="0" writing-mode="lr-tb" xml:space="preserve" style="line-height:25%;-inkscape-font-specification:'sans-serif, Bold';text-align:center"><tspan id="tspan14636" x="12.599" y="8.47">?</tspan></text></g></svg>