<svg xmlns="http://www.w3.org/2000/svg" xmlns:svg="http://www.w3.org/2000/svg" id="svg3039" width="20" height="20" version="1.1"><defs id="defs3041"><filter id="filter19724"><feGaussianBlur id="feGaussianBlur19726" stdDeviation=".232"/></filter><filter id="filter19728"><feGaussianBlur id="feGaussianBlur19730" stdDeviation=".232"/></filter></defs><metadata id="metadata3044"/><g id="layer1" transform="translate(0,4)"><path id="path3802" fill="#404040" fill-opacity="1" stroke="#404040" stroke-dasharray="none" stroke-linecap="round" stroke-linejoin="miter" stroke-miterlimit="4" stroke-opacity="1" stroke-width="1.5" d="m 5,-0.5 14,0"/><path id="path3810" fill="#404040" fill-opacity="1" stroke="#404040" stroke-dasharray="none" stroke-dashoffset=".5" stroke-linecap="round" stroke-linejoin="round" stroke-miterlimit="4" stroke-opacity="1" stroke-width="1.5" d="m 5,-2.5 14,0"/><path id="path4534" fill="none" stroke="#404040" stroke-dasharray="none" stroke-dashoffset=".5" stroke-linecap="round" stroke-linejoin="round" stroke-miterlimit="4" stroke-opacity="1" stroke-width="1.5" d="m 5,4.5 14,0"/><path id="path4536" fill="none" stroke="#404040" stroke-dasharray="none" stroke-dashoffset=".5" stroke-linecap="round" stroke-linejoin="round" stroke-miterlimit="4" stroke-opacity="1" stroke-width="1.5" d="m 5,6.5 14,0"/><path id="path4538" fill="none" stroke="#404040" stroke-dasharray="none" stroke-dashoffset=".5" stroke-linecap="round" stroke-linejoin="round" stroke-miterlimit="4" stroke-opacity="1" stroke-width="1.5" d="m 5,11.5 14,0"/><path id="path4569" fill="none" stroke="#404040" stroke-dasharray="none" stroke-dashoffset=".5" stroke-linecap="round" stroke-linejoin="round" stroke-miterlimit="4" stroke-opacity="1" stroke-width="1.9" d="m 2,1.5 a 0.5,0.5 0 1 1 -1,0 0.5,0.5 0 1 1 1,0 z" transform="translate(0,-4)"/><path id="path4573" fill="none" stroke="#404040" stroke-dasharray="none" stroke-dashoffset=".5" stroke-linecap="round" stroke-linejoin="round" stroke-miterlimit="4" stroke-opacity="1" stroke-width="1.5" d="m 5,13.5 14,0"/><path id="path4577" fill="none" stroke="#404040" stroke-dasharray="none" stroke-dashoffset=".5" stroke-linecap="round" stroke-linejoin="round" stroke-miterlimit="4" stroke-opacity="1" stroke-width="1.9" d="m 2,1.5 a 0.5,0.5 0 1 1 -1,0 0.5,0.5 0 1 1 1,0 z" transform="translate(0,3)"/><path id="path4579" fill="none" stroke="#404040" stroke-dasharray="none" stroke-dashoffset=".5" stroke-linecap="round" stroke-linejoin="round" stroke-miterlimit="4" stroke-opacity="1" stroke-width="1.9" d="m 2,1.5 a 0.5,0.5 0 1 1 -1,0 0.5,0.5 0 1 1 1,0 z" transform="translate(0,10)"/></g></svg>