<svg xmlns="http://www.w3.org/2000/svg" xmlns:svg="http://www.w3.org/2000/svg" id="svg3039" width="20" height="20" version="1.1"><defs id="defs3041"><filter id="filter5487" width="1.227" height="1.203" x="-.114" y="-.101"><feGaussianBlur id="feGaussianBlur5489" stdDeviation=".341"/></filter><filter id="filter5491"><feGaussianBlur id="feGaussianBlur5493" stdDeviation=".341"/></filter></defs><metadata id="metadata3044"/><g id="layer1" transform="translate(0,4)"><g id="text5445" fill="#404040" fill-opacity="1" stroke="#404040" stroke-dasharray="none" stroke-miterlimit="4" stroke-opacity="1" stroke-width=".5" filter="url(#filter5487)" font-family="Latin Modern Math" font-size="11.821" font-stretch="normal" font-style="normal" font-variant="normal" font-weight="normal" letter-spacing="0" text-anchor="middle" transform="translate(1.6700139,9.5190026)" word-spacing="0" style="text-align:center;line-height:125%;-inkscape-font-specification:Latin Modern Math"><path id="path5450" fill="#404040" fill-opacity="1" stroke="#404040" stroke-dasharray="none" stroke-miterlimit="4" stroke-opacity="1" stroke-width=".5" d="m 8.0895648,3.2103531 -0.2955134,0 C 7.5812819,5.1843809 6.7774833,5.5035374 4.9216607,5.5035374 l -3.2624683,0 2.9669549,-3.3570326 C 4.732532,2.0282995 4.7325321,1.9573762 4.7325321,1.9573762 c 0,-0.059103 -0.047282,-0.1182055 -0.082744,-0.1654876 l -2.4232102,-3.4988791 2.7305442,0 c 1.9976688,0 2.5886979,0.4255412 2.836929,2.29318429 l 0.2955134,0 -0.330975,-2.65962099 -6.5603984,0 c -0.28369261,0 -0.30733397,3e-7 -0.30733397,0.2718724 L 3.8341713,2.4774798 1.0208833,5.6808455 C 0.90267808,5.8108713 0.90267797,5.8345125 0.90267797,5.8699741 0.90267797,5.9999999 1.0208835,6 1.1981914,6 l 6.5603984,0 0.330975,-2.7896469"/></g><path id="path6142" fill="#f0f0e0" fill-opacity="1" stroke="gray" stroke-dasharray="none" stroke-linecap="butt" stroke-linejoin="miter" stroke-miterlimit="4" stroke-opacity="1" stroke-width=".5" d="m 10.5,7 c 0,0 1.27494,-1.0411559 2,-2 C 13.22506,4.0411559 13,3.5 13,3.5 13,3.5 10.50669,3.4838402 9.5,3 8.4933101,2.5161598 7.5,1.5671874 7.5,0.5 c 0,-1.0671874 0.3173326,-1.6912683 2,-2.5 1.682667,-0.8087317 6.317333,-0.8087317 8,0 1.682667,0.8087317 2,1.4328126 2,2.5 0,1.0671874 -0.99331,2.0161598 -2,2.5 -1.00669,0.4838402 -3,0.5 -3,0.5 0,0 -0.182466,0.9497079 -0.860396,1.6351485 C 12.961674,5.8205891 10.5,7 10.5,7 z"/></g></svg>