<svg xmlns="http://www.w3.org/2000/svg" xmlns:svg="http://www.w3.org/2000/svg" id="svg3039" width="20" height="20" version="1.1"><defs id="defs3041"><filter id="filter5487" width="1.227" height="1.203" x="-.114" y="-.101"><feGaussianBlur id="feGaussianBlur5489" stdDeviation=".341"/></filter><filter id="filter5491"><feGaussianBlur id="feGaussianBlur5493" stdDeviation=".341"/></filter></defs><metadata id="metadata3044"/><g id="layer1" transform="translate(0,4)"><g id="text5441" fill="#404040" fill-opacity="1" stroke="#404040" stroke-dasharray="none" stroke-miterlimit="4" stroke-opacity="1" stroke-width=".5" filter="url(#filter5491)" font-family="Latin Modern Math" font-size="17.738" font-stretch="normal" font-style="normal" font-variant="normal" font-weight="normal" letter-spacing="0" text-anchor="middle" word-spacing="0" style="text-align:center;line-height:125%;-inkscape-font-specification:Latin Modern Math"><path id="path5453" stroke="#404040" stroke-dasharray="none" stroke-miterlimit="4" stroke-opacity="1" stroke-width=".5" d="m 18.886644,9.8137445 -0.443459,0 c -0.31929,2.9623045 -1.525503,3.4412435 -4.310424,3.4412435 l -4.8957904,0 4.4523314,-5.0376969 c 0.159645,-0.1773835 0.159645,-0.2838139 0.159645,-0.2838139 0,-0.088692 -0.07095,-0.1773838 -0.124169,-0.2483372 l -3.636366,-5.2505578 4.097564,0 c 2.997782,0 3.884704,0.6385841 4.257209,3.4412439 l 0.443459,0 -0.496674,-3.9911334 -9.8447959,0 c -0.4257205,0 -0.4611976,4e-7 -0.4611976,0.4079825 L 12.500831,8.7139655 8.2790986,13.521064 C 8.101715,13.716186 8.1017148,13.751663 8.1017148,13.804878 8.1017148,14 8.2790988,14 8.5451741,14 l 9.8447959,0 0.496674,-4.1862555"/></g><g id="text5445" fill="#a0a1a1" fill-opacity="1" stroke="#a0a0a0" stroke-dasharray="none" stroke-miterlimit="4" stroke-opacity="1" stroke-width=".5" filter="url(#filter5487)" font-family="Latin Modern Math" font-size="11.821" font-stretch="normal" font-style="normal" font-variant="normal" font-weight="normal" letter-spacing="0" text-anchor="middle" word-spacing="0" style="text-align:center;line-height:125%;-inkscape-font-specification:Latin Modern Math"><path id="path5450" stroke="#a0a0a0" stroke-dasharray="none" stroke-miterlimit="4" stroke-opacity="1" stroke-width=".5" d="m 8.0895648,3.2103531 -0.2955134,0 C 7.5812819,5.1843809 6.7774833,5.5035374 4.9216607,5.5035374 l -3.2624683,0 2.9669549,-3.3570326 C 4.732532,2.0282995 4.7325321,1.9573762 4.7325321,1.9573762 c 0,-0.059103 -0.047282,-0.1182055 -0.082744,-0.1654876 l -2.4232102,-3.4988791 2.7305442,0 c 1.9976688,0 2.5886979,0.4255412 2.836929,2.29318429 l 0.2955134,0 -0.330975,-2.65962099 -6.5603984,0 c -0.28369261,0 -0.30733397,3e-7 -0.30733397,0.2718724 L 3.8341713,2.4774798 1.0208833,5.6808455 C 0.90267808,5.8108713 0.90267797,5.8345125 0.90267797,5.8699741 0.90267797,5.9999999 1.0208835,6 1.1981914,6 l 6.5603984,0 0.330975,-2.7896469"/></g></g></svg>