<svg xmlns="http://www.w3.org/2000/svg" xmlns:svg="http://www.w3.org/2000/svg" id="svg3039" width="20" height="20" version="1.1"><defs id="defs3041"><filter id="filter5487" width="1.227" height="1.203" x="-.114" y="-.101"><feGaussianBlur id="feGaussianBlur5489" stdDeviation=".341"/></filter></defs><metadata id="metadata3044"/><g id="layer1" transform="translate(0,4)"><g id="text5445" fill="#404040" fill-opacity="1" stroke="#404040" stroke-dasharray="none" stroke-miterlimit="4" stroke-opacity="1" stroke-width=".5" filter="url(#filter5487)" font-family="Latin Modern Math" font-size="11.821" font-stretch="normal" font-style="normal" font-variant="normal" font-weight="normal" letter-spacing="0" text-anchor="middle" transform="translate(10.170284,9.5136093)" word-spacing="0" style="text-align:center;line-height:125%;-inkscape-font-specification:Latin Modern Math"><path id="path5450" fill="#404040" fill-opacity="1" stroke="#404040" stroke-dasharray="none" stroke-miterlimit="4" stroke-opacity="1" stroke-width=".5" d="m 8.0895648,3.2103531 -0.2955134,0 C 7.5812819,5.1843809 6.7774833,5.5035374 4.9216607,5.5035374 l -3.2624683,0 2.9669549,-3.3570326 C 4.732532,2.0282995 4.7325321,1.9573762 4.7325321,1.9573762 c 0,-0.059103 -0.047282,-0.1182055 -0.082744,-0.1654876 l -2.4232102,-3.4988791 2.7305442,0 c 1.9976688,0 2.5886979,0.4255412 2.836929,2.29318429 l 0.2955134,0 -0.330975,-2.65962099 -6.5603984,0 c -0.28369261,0 -0.30733397,3e-7 -0.30733397,0.2718724 L 3.8341713,2.4774798 1.0208833,5.6808455 C 0.90267808,5.8108713 0.90267797,5.8345125 0.90267797,5.8699741 0.90267797,5.9999999 1.0208835,6 1.1981914,6 l 6.5603984,0 0.330975,-2.7896469"/></g><path id="path5514" fill="#e0e0e0" fill-opacity="1" stroke="#404040" stroke-dasharray="none" stroke-linecap="butt" stroke-linejoin="miter" stroke-miterlimit="4" stroke-opacity="1" stroke-width=".5" d="m 0.40990129,10.094554 3.00000001,3 7.9999997,-7.9999995 c 0,0 1.993659,0.41684 3,0 1.006341,-0.41684 1.987489,-1.2626891 2.5,-2.5 0.512511,-1.2373109 0,-4.5 0,-4.5 l -3.5,3.5 -1.5,-1.50000005 3.5,-3.49999995 c 0,0 -3.262689,-0.5125109 -4.5,0 -1.237311,0.5125109 -2.08316,1.493659 -2.5,2.49999995 -0.41684,1.006341 0,3.00000005 0,3.00000005 z"/></g></svg>