<svg xmlns="http://www.w3.org/2000/svg" xmlns:svg="http://www.w3.org/2000/svg" id="svg3039" width="20" height="20" version="1.1"><metadata id="metadata3044"/><g id="layer1" transform="translate(0,4)"><path id="path4565" fill="#000" fill-opacity=".125" stroke="gray" stroke-dasharray="none" stroke-linecap="butt" stroke-linejoin="miter" stroke-miterlimit="4" stroke-opacity="1" stroke-width="1" d="m 1.5,0.5 c 0,-1.5 0.5,-2 2,-2 1.5,0 11.5,0 13,0 1.5,0 2,1 2,2.5 0,1.5 0,9 0,10.5 0,1.5 -0.5,2 -2,2 -1.5,0 -11.5,0 -13,0 -1.5,0 -2,-0.5 -2,-2 0,-1.5 0,-9.5 0,-11 z"/><path id="path4567" fill="none" stroke="#8080ff" stroke-dasharray="none" stroke-linecap="round" stroke-linejoin="miter" stroke-miterlimit="4" stroke-opacity="1" stroke-width="1.5" d="m 6,1.5 8,0"/><path id="path4571" fill="none" stroke="#8080ff" stroke-dasharray="none" stroke-linecap="round" stroke-linejoin="miter" stroke-miterlimit="4" stroke-opacity="1" stroke-width="1.5" d="m 4,3.5 12,0"/><path id="path4575" fill="none" stroke="#8080ff" stroke-dasharray="none" stroke-linecap="round" stroke-linejoin="miter" stroke-miterlimit="4" stroke-opacity="1" stroke-width="1.5" d="m 8,5.5 4,0"/><path id="path4577" fill="none" stroke="#8080ff" stroke-dasharray="none" stroke-linecap="round" stroke-linejoin="miter" stroke-miterlimit="4" stroke-opacity="1" stroke-width="1.5" d="m 5,7.5 10,0"/><path id="path4579" fill="none" stroke="#8080ff" stroke-dasharray="none" stroke-linecap="round" stroke-linejoin="miter" stroke-miterlimit="4" stroke-opacity="1" stroke-width="1.5" d="m 6,9.5 8,0"/></g></svg>