<svg xmlns="http://www.w3.org/2000/svg" xmlns:svg="http://www.w3.org/2000/svg" id="svg3039" width="20" height="20" version="1.1"><defs id="defs3041"><filter id="filter4099" width="1.464" height="1.132" x="-.232" y="-.066"><feGaussianBlur id="feGaussianBlur4101" stdDeviation=".261"/></filter><filter id="filter4103" width="1.088" height="1.256" x="-.044" y="-.128"><feGaussianBlur id="feGaussianBlur4105" stdDeviation=".261"/></filter><filter id="filter5043" width="1.095" height="1.916" x="-.047" y="-.458"><feGaussianBlur id="feGaussianBlur5045" stdDeviation=".286"/></filter><filter id="filter5047" width="1.095" height="1.916" x="-.047" y="-.458"><feGaussianBlur id="feGaussianBlur5049" stdDeviation=".286"/></filter></defs><metadata id="metadata3044"/><g id="layer1" transform="translate(0,4)"><path id="path5198" fill="none" stroke="#404040" stroke-dasharray="none" stroke-linecap="round" stroke-linejoin="miter" stroke-miterlimit="4" stroke-opacity="1" stroke-width="1.5" d="M 1.5,1.5 14,1.5" transform="translate(0,-4)"/><path id="path5200" fill="none" stroke="#404040" stroke-dasharray="none" stroke-linecap="round" stroke-linejoin="miter" stroke-miterlimit="4" stroke-opacity="1" stroke-width="1.5" d="M 1.5,1.5 14,1.5" transform="translate(0,-4)"/><path id="path5202" fill="none" stroke="#404040" stroke-dasharray="none" stroke-linecap="round" stroke-linejoin="miter" stroke-miterlimit="4" stroke-opacity="1" stroke-width="1.5" d="m 1.5,-0.5 14.5,0"/><path id="path5204" fill="none" stroke="#404040" stroke-dasharray="none" stroke-linecap="round" stroke-linejoin="miter" stroke-miterlimit="4" stroke-opacity="1" stroke-width="1.5" d="M 1.5,1.5 8,1.5"/><path id="path5206" fill="none" stroke="#404040" stroke-dasharray="none" stroke-linecap="round" stroke-linejoin="miter" stroke-miterlimit="4" stroke-opacity="1" stroke-width="1.5" d="m 6.5,14.5 12.5,0"/><path id="path5208" fill="none" stroke="#404040" stroke-dasharray="none" stroke-linecap="round" stroke-linejoin="miter" stroke-miterlimit="4" stroke-opacity="1" stroke-width="1.5" d="m 12,12.5 7,0"/><path id="path5210" fill="none" stroke="#404040" stroke-dasharray="none" stroke-linecap="round" stroke-linejoin="miter" stroke-miterlimit="4" stroke-opacity="1" stroke-width="1.5" d="m 10,10.5 9,0"/><path id="path5212" fill="#6060c0" fill-opacity="1" stroke="none" stroke-linecap="butt" stroke-linejoin="miter" stroke-opacity="1" stroke-width="1" d="m 0,10 3,-3 0,2 14,0 0,-2 3,3 -3,3 0,-2 -14,0 0,2 z" transform="translate(0,-4)"/></g></svg>