<svg xmlns="http://www.w3.org/2000/svg" xmlns:svg="http://www.w3.org/2000/svg" id="svg3039" width="20" height="20" version="1.1"><defs id="defs3041"><filter id="filter4099" width="1.464" height="1.132" x="-.232" y="-.066"><feGaussianBlur id="feGaussianBlur4101" stdDeviation=".261"/></filter><filter id="filter4103" width="1.088" height="1.256" x="-.044" y="-.128"><feGaussianBlur id="feGaussianBlur4105" stdDeviation=".261"/></filter></defs><metadata id="metadata3044"/><g id="layer1" transform="translate(0,4)"><path id="path5198" fill="none" stroke="#404040" stroke-dasharray="none" stroke-linecap="round" stroke-linejoin="miter" stroke-miterlimit="4" stroke-opacity="1" stroke-width="1.5" d="M 1.5,1.5 14,1.5" transform="translate(0,-4)"/><path id="path5200" fill="none" stroke="#404040" stroke-dasharray="none" stroke-linecap="round" stroke-linejoin="miter" stroke-miterlimit="4" stroke-opacity="1" stroke-width="1.5" d="M 1.5,1.5 19,1.5" transform="translate(0,-4)"/><path id="path5202" fill="none" stroke="#404040" stroke-dasharray="none" stroke-linecap="round" stroke-linejoin="miter" stroke-miterlimit="4" stroke-opacity="1" stroke-width="1.5" d="m 1.5,-0.5 17.5,0"/><path id="path5204" fill="none" stroke="#404040" stroke-dasharray="none" stroke-linecap="round" stroke-linejoin="miter" stroke-miterlimit="4" stroke-opacity="1" stroke-width="1.5" d="M 1.5,1.5 19,1.5"/><path id="path5206" fill="none" stroke="#404040" stroke-dasharray="none" stroke-linecap="round" stroke-linejoin="miter" stroke-miterlimit="4" stroke-opacity="1" stroke-width="1.5" d="m 1,14.5 18,0"/><path id="path5208" fill="none" stroke="#404040" stroke-dasharray="none" stroke-linecap="round" stroke-linejoin="miter" stroke-miterlimit="4" stroke-opacity="1" stroke-width="1.5" d="m 1,12.5 18,0"/><path id="path5212" fill="#6060c0" fill-opacity="1" stroke="none" d="M 0,7 3,4 3,6 7,6 7,4 10,7 7,10 7,8 3,8 3,10 z"/><path id="path5252" fill="none" stroke="#404040" stroke-dasharray="none" stroke-linecap="round" stroke-linejoin="miter" stroke-miterlimit="4" stroke-opacity="1" stroke-width="1.5" d="m 10.5,4.5 8.5,0"/><path id="path5254" fill="none" stroke="#404040" stroke-dasharray="none" stroke-linecap="round" stroke-linejoin="miter" stroke-miterlimit="4" stroke-opacity="1" stroke-width="1.5" d="m 10.5,6.5 8.5,0"/><path id="path5256" fill="none" stroke="#404040" stroke-dasharray="none" stroke-linecap="round" stroke-linejoin="miter" stroke-miterlimit="4" stroke-opacity="1" stroke-width="1.5" d="m 10.5,8.5 8.5,0"/></g></svg>