<svg xmlns="http://www.w3.org/2000/svg" xmlns:svg="http://www.w3.org/2000/svg" id="svg3039" width="20" height="20" version="1.1"><defs id="defs3041"><linearGradient id="linearGradient6140"><stop id="stop6142" offset="0" stop-color="gray" stop-opacity="1"/><stop id="stop6144" offset="1" stop-color="#606060" stop-opacity="1"/></linearGradient><filter id="filter6178" width="1.027" height="1.216" x="-.013" y="-.108"><feGaussianBlur id="feGaussianBlur6180" stdDeviation=".09"/></filter><filter id="filter6186"><feGaussianBlur id="feGaussianBlur6188" stdDeviation=".045"/></filter><filter id="filter6218"><feGaussianBlur id="feGaussianBlur6220" stdDeviation=".075"/></filter><filter id="filter6226" width="1.027" height="1.216" x="-.013" y="-.108"><feGaussianBlur id="feGaussianBlur6228" stdDeviation=".09"/></filter></defs><metadata id="metadata3044"/><g id="layer1" transform="translate(0,4)"><path id="path6162" fill="none" stroke="#606260" stroke-dasharray="none" stroke-linecap="butt" stroke-linejoin="round" stroke-miterlimit="4" stroke-opacity="1" stroke-width="2" d="M 1,-3 1,9 19,9 19,-3 z"/><path id="path6138" fill="#404040" fill-opacity=".753" stroke="#c4c4a0" stroke-dasharray="none" stroke-linecap="butt" stroke-linejoin="round" stroke-miterlimit="4" stroke-opacity="1" stroke-width="1.75" d="M 1,1 1,13 19,13 19,1 z" filter="url(#filter6218)" transform="translate(0,-4)"/><path id="path6156" fill="#a0a080" fill-opacity="1" stroke="#606060" stroke-dasharray="none" stroke-miterlimit="4" stroke-opacity="1" stroke-width=".125" d="m 2,18 2,-2 12,0 2,2 z" filter="url(#filter6178)" transform="translate(0,-4)"/><path id="path6158" fill="#c0c0a0" fill-opacity="1" stroke="#606060" stroke-dasharray="none" stroke-miterlimit="4" stroke-opacity="1" stroke-width=".125" d="m 2,18 0,2 16,0 0,-2 z" filter="url(#filter6226)" transform="translate(0,-4)"/><path id="path6160" fill="#c0c0a0" fill-opacity="1" stroke="#606060" stroke-dasharray="none" stroke-miterlimit="4" stroke-opacity="1" stroke-width=".125" d="m 7,17 6,0 c 0,0 -0.837792,-1.312875 -1,-2 -0.162208,-0.687125 0,-1 0,-1 l -4,0 c 0,0 0.1622082,0.312875 0,1 -0.1622082,0.687125 -1,2 -1,2 z" filter="url(#filter6186)" transform="translate(0,-4)"/></g></svg>