<svg xmlns="http://www.w3.org/2000/svg" xmlns:svg="http://www.w3.org/2000/svg" id="svg3039" width="20" height="20" version="1.1"><metadata id="metadata3044"/><g id="layer1" transform="translate(0,4)"><path id="path6378" fill="none" stroke="#404040" stroke-dasharray="none" stroke-linecap="round" stroke-linejoin="round" stroke-miterlimit="4" stroke-opacity="1" stroke-width="2" d="m 15,1 c 0,0 4.155944,0.5610439 2.5,3 C 15.844056,6.4389561 6.0296158,0.83542509 3,4 -0.02961578,7.1645749 0.75601608,13.588821 3.5,16.5 6.2439839,19.411179 12.558306,19.431594 15,18 17.441694,16.568406 17.316493,15.057719 17,13 16.683507,10.942281 14.582597,8.0722253 12.5,7.5 10.417403,6.9277747 7.6369641,7.9014853 7,9.5 c -0.6369641,1.598515 0.7988618,3.257656 2,4 1.201138,0.742344 4,0 4,0" transform="translate(0,-4)"/></g></svg>