<svg xmlns="http://www.w3.org/2000/svg" xmlns:svg="http://www.w3.org/2000/svg" id="svg3039" width="20" height="20" version="1.1"><metadata id="metadata3044"/><g id="layer1" transform="translate(0,4)"><path id="path5198" fill="none" stroke="silver" stroke-dasharray="none" stroke-linecap="round" stroke-linejoin="miter" stroke-miterlimit="4" stroke-opacity="1" stroke-width="1.5" d="M 4.3919348,-1.468145 19,-1.5"/><path id="path5202" fill="none" stroke="silver" stroke-dasharray="none" stroke-linecap="round" stroke-linejoin="miter" stroke-miterlimit="4" stroke-opacity="1" stroke-width="1.5" d="M 3.1592741,0.5 19,0.5"/><path id="path5204" fill="none" stroke="silver" stroke-dasharray="none" stroke-linecap="round" stroke-linejoin="miter" stroke-miterlimit="4" stroke-opacity="1" stroke-width="1.5" d="M 4.5,2.5 19,2.5"/><path id="path5206" fill="none" stroke="#404040" stroke-dasharray="none" stroke-linecap="round" stroke-linejoin="miter" stroke-miterlimit="4" stroke-opacity="1" stroke-width="1.5" d="m 8,14.5 7.595564,0"/><path id="path5208" fill="none" stroke="#404040" stroke-dasharray="none" stroke-linecap="round" stroke-linejoin="miter" stroke-miterlimit="4" stroke-opacity="1" stroke-width="1.5" d="m 8,12.5 8.850403,0"/><path id="path5210" fill="none" stroke="#404040" stroke-dasharray="none" stroke-linecap="round" stroke-linejoin="miter" stroke-miterlimit="4" stroke-opacity="1" stroke-width="1.5" d="m 8,10.5 7.649598,0"/><path id="path5419" fill="none" stroke="#2020c0" stroke-dasharray="none" stroke-linecap="round" stroke-linejoin="round" stroke-miterlimit="4" stroke-opacity="1" stroke-width="1.5" d="m 3,-2.5 -2,3 2,3"/><path id="path5952" fill="none" stroke="#404040" stroke-dasharray="none" stroke-linecap="round" stroke-linejoin="miter" stroke-miterlimit="4" stroke-opacity="1" stroke-width="1.5" d="m 8,4.5 11,0"/><path id="path5954" fill="none" stroke="#404040" stroke-dasharray="none" stroke-linecap="round" stroke-linejoin="miter" stroke-miterlimit="4" stroke-opacity="1" stroke-width="1.5" d="m 8,4.5 11,0"/><path id="path5956" fill="none" stroke="#404040" stroke-dasharray="none" stroke-linecap="round" stroke-linejoin="miter" stroke-miterlimit="4" stroke-opacity="1" stroke-width="1.5" d="m 8,6.5 11,0"/><path id="path5958" fill="none" stroke="#404040" stroke-dasharray="none" stroke-linecap="round" stroke-linejoin="miter" stroke-miterlimit="4" stroke-opacity="1" stroke-width="1.5" d="m 8,8.5 7.509677,0"/><path id="path5931" fill="#c04040" fill-opacity="1" stroke="#fff" stroke-dasharray="none" stroke-linecap="butt" stroke-linejoin="miter" stroke-miterlimit="4" stroke-opacity="1" stroke-width=".5" d="m 11,1 c 0.705748,0.3777046 0.792187,0.8136413 1,1.5 0.207813,0.6863587 0,2.5 0,2.5 L 8.5649146,4.97259 13.534265,9.9100854 18.408052,5.004445 15,4.999995 c 0,0 0.52572,-2.7307946 0,-3.999995 -0.52572,-1.2692004 -1.730799,-2.4742797 -3,-3 -1.269201,-0.5257203 -4,0 -4,0 l 0,3 c 0,0 2.294252,-0.37770462 3,0 z"/><path id="path5929" fill="none" stroke="#2020c0" stroke-dasharray="none" stroke-linecap="round" stroke-linejoin="round" stroke-miterlimit="4" stroke-opacity="1" stroke-width="1.5" d="m 17.031855,9.4778222 2,2.9999998 -2,3"/></g></svg>