<svg xmlns="http://www.w3.org/2000/svg" xmlns:svg="http://www.w3.org/2000/svg" id="svg3039" width="20" height="20" version="1.1"><metadata id="metadata3044"/><g id="layer1" transform="translate(0,4)"><path id="path4488" fill="none" stroke="#404040" stroke-dasharray="none" stroke-linecap="round" stroke-linejoin="miter" stroke-miterlimit="4" stroke-opacity="1" stroke-width="2" d="M 4.0137061,15.012501 2.0068531,10.96694 4.0455609,6.953234"/><path id="path4490" fill="none" stroke="#404040" stroke-dasharray="none" stroke-linecap="round" stroke-linejoin="miter" stroke-miterlimit="4" stroke-opacity="1" stroke-width="2" d="M 8.9830566,10.985089 10.98991,14.998795 8.9830566,18.980646" transform="translate(0,-4)"/><path id="path6142" fill="#f0f0e0" fill-opacity="1" stroke="gray" stroke-dasharray="none" stroke-linecap="butt" stroke-linejoin="miter" stroke-miterlimit="4" stroke-opacity="1" stroke-width="1" d="m 6.7067288,9.0438052 c 0,0 1.6280023,-1.242501 2.5538496,-2.3867723 0.9258466,-1.1442713 0.638462,-1.7900793 0.638462,-1.7900793 0,0 -3.1837689,-0.019285 -4.4692361,-0.5966931 C 4.1443372,3.6928523 2.8759551,2.5603617 2.8759551,1.286795 c 0,-1.27356662 0.4052098,-2.01833614 2.5538492,-2.9834654 2.1486388,-0.9651293 8.0667577,-0.9651293 10.2153967,0 2.148638,0.96512926 2.553849,1.70989878 2.553849,2.9834654 0,1.2735667 -1.268382,2.4060573 -2.553849,2.9834655 -1.285468,0.5774082 -3.830774,0.5966931 -3.830774,0.5966931 0,0 -0.232996,1.1333683 -1.098661,1.9513636 -0.8656646,0.8179954 -4.0090372,2.225488 -4.0090372,2.225488 z"/></g></svg>