<svg xmlns="http://www.w3.org/2000/svg" xmlns:svg="http://www.w3.org/2000/svg" id="svg3039" width="20" height="20" version="1.1"><metadata id="metadata3044"/><g id="layer1" transform="translate(0,4)"><path id="path4750" fill="#f8f8f8" fill-opacity="1" stroke="gray" stroke-linecap="butt" stroke-linejoin="miter" stroke-opacity="1" stroke-width="1" d="m 9.5,15.5 8,0 0,-11 -8,0 z"/><path id="path4748" fill="#f8f8f8" fill-opacity="1" stroke="gray" stroke-linecap="butt" stroke-linejoin="miter" stroke-opacity="1" stroke-width="1" d="m 3.5,11.5 8,0 0,-11 -8,0 z"/><path id="path4746" fill="#f8f8f8" fill-opacity="1" stroke="gray" stroke-linecap="butt" stroke-linejoin="miter" stroke-opacity="1" stroke-width="1" d="m 6.5,7.5 8,0 0,-11 -8,0 z"/><path id="path4754" fill="maroon" fill-opacity="1" stroke="#600000" stroke-dasharray="none" stroke-linecap="butt" stroke-linejoin="miter" stroke-miterlimit="4" stroke-opacity="1" stroke-width=".5" d="m 12,4.5 c 0,0 -1.624188,2.2577378 -1.5,4.5 0.124188,2.242262 3,5.5 3,5.5 L 15,13 l 1,5 -5,-1 1.5,-1.5 c 0,0 -3.3769296,-3.286868 -3.5,-6 C 8.8769296,6.786868 10.5,4 10.5,4 z" transform="translate(0,-4)"/></g></svg>