<svg xmlns="http://www.w3.org/2000/svg" xmlns:svg="http://www.w3.org/2000/svg" id="svg3039" width="20" height="20" version="1.1"><metadata id="metadata3044"/><g id="layer1" transform="translate(0,4)"><path id="path7371" fill="#404040" fill-opacity="1" fill-rule="evenodd" stroke="#404040" stroke-dasharray="none" stroke-linecap="butt" stroke-linejoin="miter" stroke-miterlimit="4" stroke-opacity="1" stroke-width="0" d="m 2.1274192,2.9612921 c 0,0 5.1556985,-3.87943387 7.9044358,-3.87943387 2.748737,0 8.095565,3.87943387 8.095565,3.87943387 0,0 -5.408146,-2.14677317 -8.095565,-2.14677317 -2.6874194,0 -7.9044358,2.14677317 -7.9044358,2.14677317 z"/><circle id="path7383" cx="9.282" cy="6.237" r="2.75" fill="#404040" fill-opacity="1" stroke="#404040" stroke-dasharray="none" stroke-linecap="round" stroke-miterlimit="4" stroke-opacity="1" stroke-width="0" opacity="1"/><circle id="path7385" cx="8.777" cy="5.338" r="1" fill="#f0f0f0" fill-opacity="1" stroke="#404040" stroke-dasharray="none" stroke-linecap="round" stroke-miterlimit="4" stroke-opacity="1" stroke-width="0" opacity="1"/><path id="path7375" fill="#404040" fill-opacity="1" fill-rule="evenodd" stroke="#404040" stroke-dasharray="none" stroke-linecap="butt" stroke-linejoin="miter" stroke-miterlimit="4" stroke-opacity="1" stroke-width="0" d="m 18.031855,6.9874991 c 0,0 -5.942365,-3.9681452 -8.9237894,-3.9681452 -2.9814244,0 -7.0762108,3.9681452 -7.0762108,3.9681452 0,0 0.5,1.5415318 2.490323,2.6177423 0.6984374,0.3776601 1.50247,0.6037686 2.7052799,0.9903016 1.2028099,0.386532 2.8681073,0.48752 2.8681073,0.48752 0,0 -1.6098089,-0.662606 -2.5658563,-1.1191038 C 6.5318548,9.4874991 5.7764391,8.9773491 5.1717749,8.5415318 4.4069284,7.9902617 4,6.9874991 4,6.9874991 c 0,0 2.6888474,-2.1774862 4.853227,-2.2770163 2.790893,-0.1283406 9.178628,2.2770163 9.178628,2.2770163 z"/></g></svg>