<svg xmlns="http://www.w3.org/2000/svg" xmlns:ns0="http://www.iki.fi/pav/software/textext/" xmlns:svg="http://www.w3.org/2000/svg" xmlns:xlink="http://www.w3.org/1999/xlink" id="svg2606" width="88" height="88" version="1.0"><metadata id="metadata167"/><defs id="defs2608"><linearGradient id="linearGradient3405"><stop id="stop3407" offset="0" stop-color="#666" stop-opacity="1"/><stop id="stop3409" offset="1" stop-color="#666" stop-opacity="0"/></linearGradient><linearGradient id="linearGradient3391"><stop id="stop3393" offset="0" stop-color="#000" stop-opacity="1"/><stop id="stop3395" offset="1" stop-color="#000" stop-opacity="0"/></linearGradient><linearGradient id="linearGradient3357"><stop id="stop3359" offset="0" stop-color="gray" stop-opacity="1"/><stop id="stop3361" offset="1" stop-color="gray" stop-opacity="0"/></linearGradient><linearGradient id="linearGradient10207"><stop id="stop10209" offset="0" stop-color="#A2A2A2" stop-opacity="1"/><stop id="stop10211" offset="1" stop-color="#FFF" stop-opacity="1"/></linearGradient><linearGradient id="XMLID_12_" x1="96" x2="88" y1="104" y2="96" gradientUnits="userSpaceOnUse"><stop id="stop83" offset="0" stop-color="#888A85" stop-opacity="1"/><stop id="stop85" offset=".007" stop-color="#8C8E89" stop-opacity="1"/><stop id="stop87" offset=".067" stop-color="#ABACA9" stop-opacity="1"/><stop id="stop89" offset=".135" stop-color="#C5C6C4" stop-opacity="1"/><stop id="stop91" offset=".265" stop-color="#DBDBDA" stop-opacity="1"/><stop id="stop93" offset=".376" stop-color="#EBEBEB" stop-opacity="1"/><stop id="stop95" offset=".487" stop-color="#F7F7F6" stop-opacity="1"/><stop id="stop97" offset=".632" stop-color="#FDFDFD" stop-opacity="1"/><stop id="stop99" offset="1" stop-color="#FFF" stop-opacity="1"/></linearGradient><radialGradient id="XMLID_8_" cx="102" cy="112.305" r="139.559" gradientUnits="userSpaceOnUse"><stop id="stop41" offset="0" stop-color="#B7B8B9" stop-opacity="1"/><stop id="stop47" offset=".189" stop-color="#ECECEC" stop-opacity="1"/><stop id="stop49" offset=".257" stop-color="#FAFAFA" stop-opacity="1"/><stop id="stop51" offset=".301" stop-color="#FFF" stop-opacity="1"/><stop id="stop53" offset=".531" stop-color="#FAFAFA" stop-opacity="1"/><stop id="stop55" offset=".845" stop-color="#EBECEC" stop-opacity="1"/><stop id="stop57" offset="1" stop-color="#E1E2E3" stop-opacity="1"/></radialGradient><filter id="filter6697" width="1.384" height="1.384" x="-.192" y="-.192"><feGaussianBlur id="feGaussianBlur6699" stdDeviation="1.945"/></filter><clipPath id="clipPath7084"><path id="path7086" fill="#000" fill-opacity="1" fill-rule="evenodd" stroke="none" stroke-linecap="butt" stroke-linejoin="miter" stroke-opacity="1" stroke-width="1" d="M 72,88 L 40,120 L 32,120 L 32,80 L 72,80 L 72,88 z"/></clipPath><radialGradient id="radialGradient9437" cx="102" cy="112.305" r="139.559" gradientTransform="matrix(0.635138, 0, 0, 0.643488, 7.53097, 1.1647)" gradientUnits="userSpaceOnUse" xlink:href="#XMLID_8_"/><linearGradient id="linearGradient10213" x1="98.617" x2="91.229" y1="106.414" y2="99.255" gradientTransform="matrix(0.670413, 0, 0, 0.674403, 5.27339, -0.886301)" gradientUnits="userSpaceOnUse" xlink:href="#linearGradient10207"/><mask id="mask4340"><path id="path4342" fill="url(#linearGradient4344) rgb(0, 0, 0)" fill-opacity="1" d="M 195.90664,173.04878 C 195.35564,173.04878 194.90664,173.49763 194.90664,174.04844 L 194.90664,282.01229 C 194.90664,282.5641 195.35564,283.01195 195.90664,283.01195 L 255.07864,283.01195 C 255.34164,283.01195 257.84132,283.13008 258.02732,282.94315 L 288.61364,252.14298 C 288.80064,251.95604 288.90664,249.45819 288.90664,249.19528 L 288.90664,174.04844 C 288.90664,173.49763 288.45864,173.04878 287.90664,173.04878 L 195.90664,173.04878 z" mask="url(#mask4334)" transform="matrix(4.80575, 0, 0, 4.80575, -518.933, -843.269)"/></mask><linearGradient id="linearGradient4344" x1="17" x2="111" y1="64" y2="64" gradientTransform="translate(177.907, 164.049)" gradientUnits="userSpaceOnUse" xlink:href="#linearGradient3257"/><mask id="mask4334"><rect id="rect4336" width="115.813" height="106.066" x="184" y="175.016" fill="url(#linearGradient4338) rgb(0, 0, 0)" fill-opacity="1" stroke="none" stroke-dasharray="none" stroke-dashoffset="1.088" stroke-linecap="round" stroke-linejoin="round" stroke-miterlimit="4" stroke-opacity="1" stroke-width="10" opacity="1" rx="8.902" ry="7.448"/></mask><linearGradient id="linearGradient4338" x1="236.174" x2="236.174" y1="62.725" y2="137.192" gradientTransform="translate(0, 170.052)" gradientUnits="userSpaceOnUse" spreadMethod="reflect" xlink:href="#linearGradient4314"/><linearGradient id="linearGradient4332" x1="17" x2="111" y1="64" y2="64" gradientTransform="translate(177.907, 164.049)" gradientUnits="userSpaceOnUse" xlink:href="#linearGradient3257"/><linearGradient id="linearGradient3327" x1="64.019" x2="105.725" y1="24.785" y2="24.785" gradientTransform="matrix(0, 0.217715, -0.650734, 0, 96.3447, 79.9521)" gradientUnits="userSpaceOnUse" spreadMethod="reflect" xlink:href="#linearGradient3270"/><linearGradient id="linearGradient3309" x1="37.745" x2="49.067" y1="45.218" y2="37.536" gradientTransform="matrix(0.499633, 0.86539, -0.886065, 0.51157, 60.119, -21.3727)" gradientUnits="userSpaceOnUse" xlink:href="#linearGradient3248"/><linearGradient id="linearGradient3307" x1="33.189" x2="53.125" y1="45.569" y2="36.833" gradientTransform="matrix(0.590177, -0.473978, 0.485302, 0.604278, -212.313, 82.4265)" gradientUnits="userSpaceOnUse" xlink:href="#linearGradient3248"/><linearGradient id="linearGradient3305" x1="28.099" x2="49.067" y1="44.258" y2="37.536" gradientTransform="matrix(-0.499633, 0.86539, 0.886065, 0.51157, -173.537, -21.3727)" gradientUnits="userSpaceOnUse" xlink:href="#linearGradient3248"/><linearGradient id="linearGradient3295" x1="37.688" x2="90.312" y1="63.001" y2="63.001" gradientUnits="userSpaceOnUse" xlink:href="#linearGradient3180"/><linearGradient id="linearGradient3292" x1="64.019" x2="105.725" y1="24.785" y2="24.785" gradientTransform="matrix(0.724771, 0, 0, 1, -224.852, 71.6927)" gradientUnits="userSpaceOnUse" spreadMethod="reflect" xlink:href="#linearGradient3270"/><linearGradient id="linearGradient3287" x1="35.947" x2="55.46" y1="34.642" y2="46.869" gradientTransform="matrix(0.756944, 0, 0, 0.775029, 41.9349, 54.0151)" gradientUnits="userSpaceOnUse" xlink:href="#linearGradient3248"/><linearGradient id="linearGradient3283" x1="35.947" x2="55.46" y1="34.642" y2="46.869" gradientTransform="matrix(-0.999266, 0, 0, -1.02314, 128.491, 83.0476)" gradientUnits="userSpaceOnUse" xlink:href="#linearGradient3248"/><linearGradient id="linearGradient3279" x1="42.094" x2="53.125" y1="44.211" y2="36.833" gradientTransform="matrix(-0.756944, 0, 0, 0.775029, -155.969, 53.2151)" gradientUnits="userSpaceOnUse" xlink:href="#linearGradient3248"/><linearGradient id="linearGradient3275" x1="37.745" x2="49.067" y1="45.218" y2="37.536" gradientTransform="matrix(0.617119, 0.785936, -0.804714, 0.631863, -191.093, -22.3714)" gradientUnits="userSpaceOnUse" xlink:href="#linearGradient3248"/><linearGradient id="linearGradient3264" x1="64.019" x2="105.725" y1="24.785" y2="24.785" gradientTransform="matrix(0, 1.02646, -1, 0, -148.531, -8.42626)" gradientUnits="userSpaceOnUse" spreadMethod="reflect" xlink:href="#linearGradient3270"/><linearGradient id="linearGradient3260" x1="64.019" x2="105.725" y1="24.785" y2="24.785" gradientTransform="matrix(0, 1.02646, -1, 0, -157.507, -8.42626)" gradientUnits="userSpaceOnUse" spreadMethod="reflect" xlink:href="#linearGradient3270"/><linearGradient id="linearGradient3255" x1="64.019" x2="109.944" y1="24.785" y2="24.785" gradientTransform="translate(-242.449, 3.7)" gradientUnits="userSpaceOnUse" spreadMethod="reflect" xlink:href="#linearGradient3270"/><linearGradient id="linearGradient3250" x1="64.019" x2="105.725" y1="24.785" y2="24.785" gradientTransform="translate(-242.46, -1.3)" gradientUnits="userSpaceOnUse" spreadMethod="reflect" xlink:href="#linearGradient3270"/><linearGradient id="linearGradient3298" x1="64.01" x2="106.138" y1="24.975" y2="25.556" gradientTransform="matrix(-0.0113353, 0.531478, 0.822539, 0.0219929, -229.466, 3.33237)" gradientUnits="userSpaceOnUse" spreadMethod="reflect" xlink:href="#linearGradient3270"/><linearGradient id="linearGradient3294" x1="63.804" x2="109.944" y1="23.683" y2="24.785" gradientTransform="matrix(0.0113353, 0.531478, -0.822539, 0.0219929, -126.142, 2.3322)" gradientUnits="userSpaceOnUse" spreadMethod="reflect" xlink:href="#linearGradient3270"/><linearGradient id="linearGradient2333" x1="64" x2="64" y1="22.506" y2="93.318" gradientUnits="userSpaceOnUse" xlink:href="#linearGradient3180"/><linearGradient id="linearGradient2331" x1="37.688" x2="90.312" y1="63.001" y2="63.001" gradientUnits="userSpaceOnUse" xlink:href="#linearGradient3180"/><linearGradient id="linearGradient3180"><stop id="stop3182" offset="0" stop-color="#414141" stop-opacity="1"/><stop id="stop3188" offset=".5" stop-color="#ABABAB" stop-opacity="1"/><stop id="stop3184" offset="1" stop-color="#414141" stop-opacity="1"/></linearGradient><linearGradient id="linearGradient3291"><stop id="stop3293" offset="0" stop-color="#000" stop-opacity="1"/><stop id="stop3295" offset="1" stop-color="#000" stop-opacity="0"/></linearGradient><linearGradient id="linearGradient3259"><stop id="stop3261" offset="0" stop-color="#FFF" stop-opacity=".55"/><stop id="stop3263" offset="1" stop-color="#000" stop-opacity="0"/></linearGradient><radialGradient id="radialGradient3297" cx="63.912" cy="115.709" r="63.912" fx="63.912" fy="115.709" gradientTransform="matrix(1, 0, 0, 0.197802, 0, 92.8217)" gradientUnits="userSpaceOnUse" xlink:href="#linearGradient3291"/><radialGradient id="XMLID_7_" cx="101.156" cy="111.13" r="137.893" gradientTransform="translate(-149.841, -47.6238)" gradientUnits="userSpaceOnUse"><stop id="stop2887" offset=".101" stop-color="#555" stop-opacity="1"/><stop id="stop2889" offset=".115" stop-color="#676767" stop-opacity="1"/><stop id="stop2891" offset=".161" stop-color="#9B9B9B" stop-opacity="1"/><stop id="stop2893" offset=".202" stop-color="silver" stop-opacity="1"/><stop id="stop2895" offset=".234" stop-color="#D8D8D8" stop-opacity="1"/><stop id="stop2897" offset=".254" stop-color="#E0E0E0" stop-opacity="1"/><stop id="stop2899" offset=".312" stop-color="#EDEDED" stop-opacity="1"/><stop id="stop2901" offset=".401" stop-color="#FAFAFA" stop-opacity="1"/><stop id="stop2903" offset=".479" stop-color="#FFF" stop-opacity="1"/><stop id="stop2905" offset=".6" stop-color="#FAFAFA" stop-opacity="1"/><stop id="stop2907" offset=".722" stop-color="#EEE" stop-opacity="1"/><stop id="stop2909" offset=".888" stop-color="#DDD" stop-opacity="1"/></radialGradient><linearGradient id="linearGradient2278" x1="85.647" x2="95.421" y1="95.726" y2="105.499" gradientTransform="translate(-149.841, -47.6238)" gradientUnits="userSpaceOnUse"><stop id="stop2953" offset=".3" stop-color="#FFF" stop-opacity="1"/><stop id="stop2955" offset=".604" stop-color="#EEE" stop-opacity="1"/><stop id="stop2957" offset=".748" stop-color="#CDCDCD" stop-opacity="1"/><stop id="stop2959" offset=".846" stop-color="#BBB" stop-opacity="1"/><stop id="stop2961" offset=".876" stop-color="#C5C5C5" stop-opacity="1"/><stop id="stop2963" offset=".948" stop-color="#D7D7D7" stop-opacity="1"/><stop id="stop2965" offset="1" stop-color="#DDD" stop-opacity="1"/></linearGradient><linearGradient id="linearGradient3186" x1="37.688" x2="90.312" y1="63.001" y2="63.001" gradientUnits="userSpaceOnUse" xlink:href="#linearGradient3180"/><linearGradient id="linearGradient3190" x1="64" x2="64" y1="22.506" y2="93.318" gradientUnits="userSpaceOnUse" xlink:href="#linearGradient3180"/><radialGradient id="XMLID_10_" cx="113.099" cy="114" r="165.934" gradientTransform="matrix(4, 0, 0, 1.54913, -260.476, -33.6237)" gradientUnits="userSpaceOnUse"><stop id="stop2937" offset=".006" stop-color="#888A85" stop-opacity="1"/><stop id="stop2939" offset="1" stop-color="#EEEEEC" stop-opacity="1"/></radialGradient><filter id="filter2770"><feGaussianBlur id="feGaussianBlur2772" stdDeviation="2.079"/></filter><linearGradient id="linearGradient2399" x1="98.617" x2="91.229" y1="106.414" y2="99.255" gradientUnits="userSpaceOnUse" xlink:href="#linearGradient10207"/><radialGradient id="radialGradient2397" cx="102" cy="112.305" r="139.559" gradientTransform="matrix(1, 0, 0, 0.999665, 2e-06, 0.00301608)" gradientUnits="userSpaceOnUse" xlink:href="#XMLID_8_"/><clipPath id="clipPath2393"><path id="path2395" fill="#000" fill-opacity="1" fill-rule="evenodd" stroke="none" stroke-linecap="butt" stroke-linejoin="miter" stroke-opacity="1" stroke-width="1" d="M 72,88 L 40,120 L 32,120 L 32,80 L 72,80 L 72,88 z"/></clipPath><radialGradient id="radialGradient2373" cx="102" cy="112.305" r="139.559" gradientUnits="userSpaceOnUse"><stop id="stop2375" offset="0" stop-color="#B7B8B9" stop-opacity="1"/><stop id="stop2377" offset=".189" stop-color="#ECECEC" stop-opacity="1"/><stop id="stop2379" offset=".257" stop-color="#FAFAFA" stop-opacity="1"/><stop id="stop2381" offset=".301" stop-color="#FFF" stop-opacity="1"/><stop id="stop2383" offset=".531" stop-color="#FAFAFA" stop-opacity="1"/><stop id="stop2385" offset=".845" stop-color="#EBECEC" stop-opacity="1"/><stop id="stop2387" offset="1" stop-color="#E1E2E3" stop-opacity="1"/></radialGradient><linearGradient id="linearGradient2353" x1="96" x2="88" y1="104" y2="96" gradientUnits="userSpaceOnUse"><stop id="stop2355" offset="0" stop-color="#888A85" stop-opacity="1"/><stop id="stop2357" offset=".007" stop-color="#8C8E89" stop-opacity="1"/><stop id="stop2359" offset=".067" stop-color="#ABACA9" stop-opacity="1"/><stop id="stop2361" offset=".135" stop-color="#C5C6C4" stop-opacity="1"/><stop id="stop2363" offset=".265" stop-color="#DBDBDA" stop-opacity="1"/><stop id="stop2365" offset=".376" stop-color="#EBEBEB" stop-opacity="1"/><stop id="stop2367" offset=".487" stop-color="#F7F7F6" stop-opacity="1"/><stop id="stop2369" offset=".632" stop-color="#FDFDFD" stop-opacity="1"/><stop id="stop2371" offset="1" stop-color="#FFF" stop-opacity="1"/></linearGradient><linearGradient id="linearGradient2347"><stop id="stop2349" offset="0" stop-color="#A2A2A2" stop-opacity="1"/><stop id="stop2351" offset="1" stop-color="#FFF" stop-opacity="1"/></linearGradient><linearGradient id="linearGradient3248"><stop id="stop3250" offset="0" stop-color="#000" stop-opacity="1"/><stop id="stop3252" offset="1" stop-color="#000" stop-opacity="0"/></linearGradient><linearGradient id="linearGradient3270"><stop id="stop3272" offset="0" stop-color="#000" stop-opacity=".583"/><stop id="stop3312" offset=".749" stop-color="#000" stop-opacity=".496"/><stop id="stop3274" offset="1" stop-color="#000" stop-opacity="0"/></linearGradient><linearGradient id="linearGradient3257"><stop id="stop3259" offset="0" stop-color="#FFF" stop-opacity="0"/><stop id="stop3269" offset=".047" stop-color="#FFF" stop-opacity=".32"/><stop id="stop3267" offset=".5" stop-color="#FFF" stop-opacity=".498"/><stop id="stop3271" offset=".887" stop-color="#FFF" stop-opacity=".417"/><stop id="stop3262" offset="1" stop-color="#FFF" stop-opacity="0"/></linearGradient><linearGradient id="linearGradient4314"><stop id="stop4316" offset="0" stop-color="#FFF" stop-opacity="1"/><stop id="stop4318" offset="1" stop-color="#FFF" stop-opacity="0"/></linearGradient><radialGradient id="radialGradient2498" cx="102" cy="112.305" r="139.559" gradientTransform="matrix(0.635138, 0, 0, 0.643488, 7.53097, 1.1647)" gradientUnits="userSpaceOnUse" xlink:href="#XMLID_8_"/><linearGradient id="linearGradient2500" x1="98.617" x2="91.229" y1="106.414" y2="99.255" gradientTransform="matrix(0.670413, 0, 0, 0.674403, 5.27339, -0.886301)" gradientUnits="userSpaceOnUse" xlink:href="#linearGradient10207"/><linearGradient id="linearGradient2505" x1="33.189" x2="53.125" y1="45.569" y2="36.833" gradientTransform="matrix(0.590177, -0.473978, 0.485302, 0.604278, -137.463, 83.5442)" gradientUnits="userSpaceOnUse" xlink:href="#linearGradient3248"/><linearGradient id="linearGradient2508" x1="28.099" x2="49.067" y1="44.258" y2="37.536" gradientTransform="matrix(-0.499633, 0.86539, 0.886065, 0.51157, -98.686, -20.255)" gradientUnits="userSpaceOnUse" xlink:href="#linearGradient3248"/><linearGradient id="linearGradient2511" x1="42.094" x2="53.125" y1="44.211" y2="36.833" gradientTransform="matrix(-0.756944, 0, 0, 0.775029, -81.1182, 54.3328)" gradientUnits="userSpaceOnUse" xlink:href="#linearGradient3248"/><linearGradient id="linearGradient2514" x1="64.019" x2="105.725" y1="24.785" y2="24.785" gradientTransform="matrix(0, 1.02646, -1, 0, -73.6796, -7.30857)" gradientUnits="userSpaceOnUse" spreadMethod="reflect" xlink:href="#linearGradient3270"/><linearGradient id="linearGradient2517" x1="64.019" x2="105.725" y1="24.785" y2="24.785" gradientTransform="matrix(0, 1.02646, -1, 0, -82.6561, -7.30857)" gradientUnits="userSpaceOnUse" spreadMethod="reflect" xlink:href="#linearGradient3270"/><linearGradient id="linearGradient2520" x1="64.019" x2="109.944" y1="24.785" y2="24.785" gradientTransform="translate(-167.598, 4.8177)" gradientUnits="userSpaceOnUse" spreadMethod="reflect" xlink:href="#linearGradient3270"/><linearGradient id="linearGradient2523" x1="64.01" x2="106.138" y1="24.975" y2="25.556" gradientTransform="matrix(-0.0113353, 0.531478, 0.822539, 0.0219929, -154.615, 4.45007)" gradientUnits="userSpaceOnUse" spreadMethod="reflect" xlink:href="#linearGradient3270"/><linearGradient id="linearGradient2526" x1="63.804" x2="109.944" y1="23.683" y2="24.785" gradientTransform="matrix(0.0113353, 0.531478, -0.822539, 0.0219929, -51.2914, 3.4499)" gradientUnits="userSpaceOnUse" spreadMethod="reflect" xlink:href="#linearGradient3270"/><linearGradient id="linearGradient2529" x1="98.617" x2="91.229" y1="106.414" y2="99.255" gradientTransform="matrix(0.670413, 0, 0, 0.674403, 80.1243, 0.231396)" gradientUnits="userSpaceOnUse" xlink:href="#linearGradient10207"/><linearGradient id="linearGradient2535" x1="64.019" x2="105.725" y1="24.785" y2="24.785" gradientTransform="matrix(0.724771, 0, 0, 1, -150.001, 72.8104)" gradientUnits="userSpaceOnUse" spreadMethod="reflect" xlink:href="#linearGradient3270"/><linearGradient id="linearGradient2538" x1="64.019" x2="105.725" y1="24.785" y2="24.785" gradientTransform="translate(-167.609, -0.182302)" gradientUnits="userSpaceOnUse" spreadMethod="reflect" xlink:href="#linearGradient3270"/><linearGradient id="linearGradient2541" x1="37.745" x2="49.067" y1="45.218" y2="37.536" gradientTransform="matrix(0.617119, 0.785936, -0.804714, 0.631863, -116.242, -21.2537)" gradientUnits="userSpaceOnUse" xlink:href="#linearGradient3248"/><radialGradient id="radialGradient2550" cx="102" cy="112.305" r="139.559" gradientTransform="matrix(0.635138, 0, 0, 0.643488, -265.215, 4.64165)" gradientUnits="userSpaceOnUse" xlink:href="#XMLID_8_"/><radialGradient id="radialGradient3682" cx="102" cy="112.305" r="139.559" gradientTransform="matrix(0.635138, 0, 0, 0.643488, 7.53097, 1.1647)" gradientUnits="userSpaceOnUse" xlink:href="#XMLID_8_"/><linearGradient id="linearGradient3684" x1="98.617" x2="91.229" y1="106.414" y2="99.255" gradientTransform="matrix(0.670413, 0, 0, 0.674403, 5.27339, -0.886301)" gradientUnits="userSpaceOnUse" xlink:href="#linearGradient10207"/><linearGradient id="linearGradient3690" x1="98.617" x2="91.229" y1="106.414" y2="99.255" gradientTransform="matrix(0.670413, 0, 0, 0.674403, 5.27339, -0.886301)" gradientUnits="userSpaceOnUse" xlink:href="#linearGradient10207"/><radialGradient id="radialGradient3696" cx="102" cy="112.305" r="139.559" gradientTransform="matrix(0.635138, 0, 0, 0.643488, 7.53097, 1.1647)" gradientUnits="userSpaceOnUse" xlink:href="#XMLID_8_"/><linearGradient id="linearGradient3363" x1="223.99" x2="229.5" y1="709.615" y2="709.615" gradientUnits="userSpaceOnUse" xlink:href="#linearGradient3357"/><linearGradient id="linearGradient3403" x1="223.99" x2="233.38" y1="709.62" y2="709.62" gradientUnits="userSpaceOnUse" xlink:href="#linearGradient3391"/><linearGradient id="linearGradient3411" x1="223.99" x2="233.38" y1="709.62" y2="709.62" gradientUnits="userSpaceOnUse" xlink:href="#linearGradient3405"/></defs><path id="path3176" fill="none" fill-opacity="1" stroke="#000" stroke-dasharray="none" stroke-linejoin="round" stroke-miterlimit="4" stroke-opacity="1" stroke-width="8" d="M 16,8 L 16,80.04207 C 16,80.04207 58.33418,80.04207 58.33418,80.04207 L 80.359648,57.885514 L 80.359647,8 L 16,8 z" opacity=".1"/><path id="path3174" fill="none" fill-opacity="1" stroke="#000" stroke-dasharray="none" stroke-linejoin="round" stroke-miterlimit="4" stroke-opacity="1" stroke-width="6" d="M 16,8 L 16,80.04207 C 16,80.04207 58.33418,80.04207 58.33418,80.04207 L 80.359648,57.885514 L 80.359647,8 L 16,8 z" opacity=".15"/><path id="path3172" fill="none" fill-opacity="1" stroke="#000" stroke-dasharray="none" stroke-linejoin="round" stroke-miterlimit="4" stroke-opacity="1" stroke-width="4" d="M 16,8 L 16,80.04207 C 16,80.04207 58.33418,80.04207 58.33418,80.04207 L 80.359648,57.885514 L 80.359647,8 L 16,8 z" opacity=".2"/><path id="path2789" fill="none" fill-opacity="1" stroke="#000" stroke-dasharray="none" stroke-linejoin="round" stroke-miterlimit="4" stroke-opacity="1" stroke-width="2" d="M 16,8 L 16,80.04207 C 16,80.04207 58.33418,80.04207 58.33418,80.04207 L 80.359648,57.885514 L 80.359647,8 L 16,8 z" opacity=".25"/><path id="path34" fill="#FFF" fill-opacity="1" d="M 16,8 L 16,80.042074 C 16,80.042074 58.334178,80.042074 58.334178,80.042074 L 80.359645,57.885517 L 80.359644,8 L 16,8 z"/><path id="path59" fill="url(#radialGradient3696) rgb(0, 0, 0)" fill-opacity="1" d="M 18.963459,10.867203 C 18.613498,10.867203 18.328322,11.15613 18.328322,11.510691 L 18.328322,77.096323 C 18.328322,77.451527 18.613498,77.739807 18.963459,77.739807 L 56.545864,77.739807 C 56.712905,77.739807 59.881864,77.815849 60,77.695521 C 60,77.695521 72.936722,65.425863 77.845227,60 C 77.95865,59.874622 78.031324,56.141124 78.031324,55.971887 L 78.031324,11.510691 C 78.031324,11.15613 77.746784,10.867203 77.396186,10.867203 L 18.963459,10.867203 z"/><g id="g4308" mask="url(#mask4340)" opacity=".258" transform="matrix(0.134137, 0, 0, 0.134137, -38.2734, 7.08345)"><path id="path4310" fill="#000" stroke="none" d="M 751.28125,86.531344 L 751.28125,97.093844 C 775.33355,97.093845 783.20103,97.994033 792.875,111.59384 L 877.375,235.68759 L 801.1875,346.96884 C 782.38777,374.18686 753.92775,374.68759 745.5625,374.68759 L 745.5625,385.25009 C 752.45615,384.67764 762.44963,384.52432 771.46875,384.46884 C 762.75906,440.05475 752.40758,470.09384 681.375,470.09384 L 620.59375,470.09384 C 603.10275,470.09383 602.28125,467.88065 602.28125,452.81259 L 602.28125,330.40634 L 643.59375,330.40634 C 684.90713,330.40635 688.84375,345.53735 688.84375,382.50009 L 695.875,382.50009 L 695.875,268.56259 L 688.84375,268.56259 C 688.84374,304.90633 684.90713,319.75009 643.59375,319.75009 L 602.28125,319.75009 L 602.28125,211.21884 C 602.28124,196.43373 603.10277,194.21884 620.59375,194.21884 L 680.46875,194.21884 C 748.23964,194.21885 756.14437,221.1602 762.28125,279.06259 L 770.15625,279.06259 L 759.65625,182.21884 L 570.65625,182.21884 L 563.59375,87.156344 L 310.65625,87.156344 L 303.28125,184.00009 L 311.15625,184.00009 C 316.81562,111.45427 323.0251,98.750094 390.9375,98.750094 C 398.82523,98.750095 411.60558,98.750094 415.125,98.750094 C 423.49026,100.05953 423.5,105.38792 423.5,115.46884 L 423.5,353.87509 C 423.5,369.70362 422.17324,374.53134 385.28125,374.53134 L 372.84375,374.53134 L 372.84375,385.12509 C 393.83648,384.71831 415.74853,384.28134 437.21875,384.28134 C 458.63592,384.28134 480.63228,384.71832 501.625,385.12509 L 501.625,374.53134 L 489.40625,374.53134 C 453.0625,374.53134 451.75,369.70363 451.75,353.87509 L 451.75,115.46884 C 451.75001,105.79487 451.75494,100.53669 459.625,98.750094 C 463.07366,98.750095 475.78619,98.750094 483.65625,98.750094 C 550.10605,98.750095 557.11964,111.25106 562.75,182.21884 L 537.90625,182.21884 L 537.90625,194.21884 C 568.92665,194.21885 573.875,194.22271 573.875,213.90634 L 573.875,450.28134 C 573.87498,469.96532 568.99739,469.93759 537.90625,469.93759 L 537.90625,480.53134 L 765.8125,480.53134 L 779.5,384.43759 C 780.55213,384.43696 781.7595,384.43759 782.71875,384.43759 C 794.5327,384.43759 815.11929,384.41887 826.03125,385.25009 L 826.03125,374.68759 C 812.48418,373.37887 808.5625,364.58786 808.5625,357.53134 C 808.5625,351.87197 810.72681,348.76899 812.9375,345.65634 L 882.96875,243.40634 L 959.15625,355.40634 C 962.60491,360.25219 962.625,361.56636 962.625,362.87509 C 962.62499,366.32378 958.67709,373.84813 943.34375,374.75009 L 943.34375,385.31259 C 957.36835,384.48136 978.78736,384.50009 993.21875,384.50009 C 1004.5552,384.50009 1026.4648,384.48137 1037.0938,385.31259 L 1037.0938,374.75009 C 1009.0445,374.7501 1004.6075,372.61226 995.90625,360.25009 L 899.625,219.37509 L 964.40625,125.68759 C 970.89686,116.49077 984.09426,97.571 1020.0312,97.093844 L 1020.0312,86.531344 C 1010.0036,87.362511 993.3802,87.343844 982.875,87.343844 C 968.44359,87.343844 950.47447,87.362511 939.5625,86.531344 L 939.5625,97.093844 C 953.58714,98.402043 957.03125,107.19393 957.03125,114.25009 C 957.03124,119.48536 954.8939,123.02499 951.78125,127.37509 L 893.96875,211.21884 L 829.15625,116.37509 C 826.11436,111.59965 825.6875,110.21454 825.6875,108.90634 C 825.68752,104.96212 830.46662,97.500788 844.96875,97.093844 L 844.96875,86.531344 C 830.94414,87.362511 809.52514,87.343844 795.09375,87.343844 C 783.75735,87.343844 761.85719,87.362511 751.28125,86.531344 z"/></g><path id="path5540" fill="#000" fill-opacity="1" d="M 41.879531,115.98249 C 41.879531,115.98249 66.18914,91.672876 66.18914,91.672876 C 66.18914,91.672876 56.836,94.586 46.586,94.586 C 46.586,104.836 41.879531,115.98249 41.879531,115.98249 z" clip-path="url(#clipPath7084)" filter="url(#filter6697)" opacity=".4" transform="matrix(0.670413, 0, 0, 0.674403, 32.0899, -0.886301)"/><path id="path14523" fill="url(#linearGradient3690) rgb(0, 0, 0)" fill-opacity="1" d="M 58.351328,80.042074 C 58.351328,80.042074 66.338628,73.356041 70.0259,69.646824 C 73.713171,65.937607 80.359645,57.902768 80.359645,57.902768 C 80.359645,57.902768 71.141467,63.856399 64.269734,63.856399 C 64.269734,70.769031 58.351328,80.042074 58.351328,80.042074 z"/><path id="path2276" fill="#FFF" fill-opacity=".757" fill-rule="nonzero" stroke="none" stroke-dasharray="none" stroke-dashoffset="4" stroke-linecap="round" stroke-linejoin="round" stroke-miterlimit="4" stroke-opacity="1" stroke-width=".5" d="M 132.99066,21.783309 L 132.99066,19.826719 L 132.99066,21.783309 z"/><g id="content" fill="none" fill-opacity="1" fill-rule="even-odd" stroke="#000" stroke-dasharray="none" stroke-dashoffset="0" stroke-linecap="butt" stroke-linejoin="miter" stroke-miterlimit="10.433" stroke-opacity="1" font-size-adjust="none" font-stretch="normal" font-style="normal" font-variant="normal" font-weight="normal" letter-spacing="normal" text-anchor="start" transform="matrix(10, 0, 0, -10, -2000, 7500)" word-spacing="normal" ns0:text="MACS" xml:space="preserve"><path id="path3080" fill="#000" stroke-width="0" d="M225.83,713.71 L225.83,713.72 L225.83,713.73 L225.82,713.74 L225.82,713.75 L225.81,713.76 L225.8,713.78 L225.8,713.8 L225.79,713.81 L225.78,713.82 L225.77,713.83 L225.77,713.85 L225.76,713.86 L225.75,713.87 L225.74,713.87 L225.74,713.88 L225.73,713.89 L225.72,713.89 L225.71,713.9 L225.7,713.9 L225.69,713.91 L225.68,713.91 L225.67,713.92 L225.66,713.92 L225.65,713.92 L225.64,713.92 L225.62,713.92 L225.61,713.92 L225.59,713.93 L225.58,713.93 L225.56,713.93 L225.54,713.93 L225.53,713.93 L225.51,713.93 L225.49,713.93 H223.8 V713.62 H224.04 C224.81,713.62,224.83,713.51,224.83,713.15 V708.17 C224.83,707.9,224.83,707.43,223.8,707.43 V707.12 C224.15,707.13,224.64,707.15,224.97,707.15 C225.3,707.15,225.78,707.13,226.13,707.12 V707.43 C225.11,707.43,225.11,707.9,225.11,708.17 V713.54 H225.12 L227.52,707.34 C227.57,707.21,227.62,707.12,227.72,707.12 C227.83,707.12,227.86,707.2,227.9,707.31 L230.35,713.62 H230.36 V707.9 C230.36,707.54,230.34,707.43,229.57,707.43 H229.33 V707.12 C229.7,707.15,230.38,707.15,230.76,707.15 C231.15,707.15,231.82,707.15,232.19,707.12 V707.43 H231.95 C231.18,707.43,231.16,707.54,231.16,707.9 V713.15 C231.16,713.51,231.18,713.62,231.95,713.62 H232.19 V713.93 H230.51 C230.25,713.93,230.25,713.92,230.18,713.74 L227.99,708.13 Z"/><path id="path3082" fill="#000" stroke-width="0" d="M236.53,714.06 L236.53,714.07 L236.52,714.08 L236.52,714.09 L236.52,714.1 L236.51,714.11 L236.51,714.12 L236.5,714.13 L236.5,714.14 L236.49,714.15 L236.49,714.16 L236.49,714.17 L236.48,714.18 L236.48,714.18 L236.47,714.19 L236.46,714.2 L236.46,714.2 L236.45,714.21 L236.45,714.22 L236.44,714.22 L236.43,714.23 L236.43,714.23 L236.42,714.24 L236.41,714.24 L236.4,714.24 L236.39,714.25 L236.38,714.25 L236.37,714.25 L236.36,714.25 L236.34,714.25 L236.33,714.26 L236.32,714.26 L236.31,714.26 L236.3,714.26 C236.14,714.26,236.11,714.2,236.06,714.06 L234,708.1 C233.82,707.59,233.42,707.44,232.89,707.43 V707.12 C233.12,707.13,233.54,707.15,233.9,707.15 C234.21,707.15,234.73,707.13,235.05,707.12 V707.43 C234.55,707.43,234.3,707.68,234.3,707.94 C234.3,707.97,234.31,708.07,234.32,708.09 L234.78,709.39 L234.89,709.7 L236.01,712.94 L237.13,709.7 H234.89 L234.78,709.39 H237.24 L237.77,707.87 C237.78,707.83,237.8,707.77,237.8,707.73 C237.8,707.43,237.24,707.43,236.97,707.43 V707.12 C237.33,707.15,238.03,707.15,238.41,707.15 C238.83,707.15,239.29,707.14,239.71,707.12 V707.43 H239.53 C238.93,707.43,238.79,707.5,238.68,707.83 Z"/><path id="path3084" fill="#000" stroke-width="0" d="M246.38,713.91 L246.38,713.92 L246.38,713.94 L246.38,713.95 L246.38,713.97 L246.38,713.98 L246.38,713.99 L246.38,714 L246.38,714.02 L246.38,714.03 L246.38,714.04 L246.38,714.05 L246.38,714.06 L246.38,714.07 L246.38,714.07 L246.37,714.08 L246.37,714.09 L246.37,714.1 L246.37,714.1 L246.36,714.11 L246.36,714.11 L246.35,714.12 L246.35,714.12 L246.34,714.13 L246.34,714.13 L246.33,714.14 L246.33,714.14 L246.32,714.14 L246.31,714.14 L246.3,714.14 L246.3,714.15 L246.29,714.15 L246.28,714.15 C246.24,714.15,246.2,714.15,246.12,714.03 L245.62,713.29 C245.25,713.65,244.74,714.15,243.79,714.15 C241.92,714.15,240.32,712.56,240.32,710.53 C240.32,708.47,241.93,706.9,243.79,706.9 C245.41,706.9,246.38,708.29,246.38,709.44 C246.38,709.54,246.38,709.61,246.26,709.61 C246.15,709.61,246.15,709.55,246.14,709.45 C246.06,708.03,244.99,707.21,243.9,707.21 C243.3,707.21,241.34,707.55,241.34,710.52 C241.34,713.5,243.29,713.84,243.9,713.84 C244.98,713.84,245.87,712.93,246.07,711.48 C246.09,711.34,246.09,711.31,246.23,711.31 C246.38,711.31,246.38,711.34,246.38,711.55 Z"/><path id="path3086" fill="#000" stroke-width="0" d="M250.43,710.99 L249.15,711.3 C248.54,711.45,248.15,711.98,248.15,712.56 C248.15,713.26,248.69,713.87,249.46,713.87 C251.13,713.87,251.35,712.23,251.41,711.78 C251.42,711.72,251.42,711.66,251.52,711.66 C251.65,711.66,251.65,711.72,251.65,711.91 V713.91 C251.65,714.08,251.65,714.15,251.54,714.15 C251.48,714.15,251.47,714.14,251.4,714.02 L251.05,713.45 C250.75,713.74,250.34,714.15,249.45,714.15 C248.35,714.15,247.51,713.27,247.51,712.21 C247.51,711.39,248.04,710.66,248.82,710.39 C248.93,710.35,249.43,710.23,250.13,710.06 C250.4,709.99,250.7,709.92,250.98,709.55 C251.19,709.29,251.29,708.97,251.29,708.64 C251.29,707.93,250.79,707.21,249.95,707.21 C249.66,707.21,248.9,707.26,248.38,707.75 C247.8,708.29,247.77,708.93,247.76,709.28 C247.75,709.38,247.67,709.38,247.64,709.38 C247.51,709.38,247.51,709.31,247.51,709.14 V707.14 C247.51,706.97,247.51,706.9,247.62,706.9 C247.69,706.9,247.7,706.92,247.77,707.03 C247.77,707.04,247.8,707.07,248.13,707.6 C248.44,707.26,249.07,706.9,249.96,706.9 C251.13,706.9,251.92,707.88,251.92,708.98 C251.92,709.97,251.27,710.79,250.43,710.99 Z"/></g><g id="g3430" fill="none" fill-opacity="1" fill-rule="even-odd" stroke="#000" stroke-dasharray="none" stroke-dashoffset="0" stroke-linecap="butt" stroke-linejoin="miter" stroke-miterlimit="10.433" stroke-opacity="1" font-size-adjust="none" font-stretch="normal" font-style="normal" font-variant="normal" font-weight="normal" letter-spacing="normal" text-anchor="start" transform="matrix(10, 0, 0, -10, -2000, 7500)" word-spacing="normal" ns0:text="MACS" xml:space="preserve"><path id="path3432" fill="#000" stroke-width="0" d="M225.83,713.71 L225.83,713.72 L225.83,713.73 L225.82,713.74 L225.82,713.75 L225.81,713.76 L225.8,713.78 L225.8,713.8 L225.79,713.81 L225.78,713.82 L225.77,713.83 L225.77,713.85 L225.76,713.86 L225.75,713.87 L225.74,713.87 L225.74,713.88 L225.73,713.89 L225.72,713.89 L225.71,713.9 L225.7,713.9 L225.69,713.91 L225.68,713.91 L225.67,713.92 L225.66,713.92 L225.65,713.92 L225.64,713.92 L225.62,713.92 L225.61,713.92 L225.59,713.93 L225.58,713.93 L225.56,713.93 L225.54,713.93 L225.53,713.93 L225.51,713.93 L225.49,713.93 H223.8 V713.62 H224.04 C224.81,713.62,224.83,713.51,224.83,713.15 V708.17 C224.83,707.9,224.83,707.43,223.8,707.43 V707.12 C224.15,707.13,224.64,707.15,224.97,707.15 C225.3,707.15,225.78,707.13,226.13,707.12 V707.43 C225.11,707.43,225.11,707.9,225.11,708.17 V713.54 H225.12 L227.52,707.34 C227.57,707.21,227.62,707.12,227.72,707.12 C227.83,707.12,227.86,707.2,227.9,707.31 L230.35,713.62 H230.36 V707.9 C230.36,707.54,230.34,707.43,229.57,707.43 H229.33 V707.12 C229.7,707.15,230.38,707.15,230.76,707.15 C231.15,707.15,231.82,707.15,232.19,707.12 V707.43 H231.95 C231.18,707.43,231.16,707.54,231.16,707.9 V713.15 C231.16,713.51,231.18,713.62,231.95,713.62 H232.19 V713.93 H230.51 C230.25,713.93,230.25,713.92,230.18,713.74 L227.99,708.13 Z"/><path id="path3434" fill="#000" stroke-width="0" d="M236.53,714.06 L236.53,714.07 L236.52,714.08 L236.52,714.09 L236.52,714.1 L236.51,714.11 L236.51,714.12 L236.5,714.13 L236.5,714.14 L236.49,714.15 L236.49,714.16 L236.49,714.17 L236.48,714.18 L236.48,714.18 L236.47,714.19 L236.46,714.2 L236.46,714.2 L236.45,714.21 L236.45,714.22 L236.44,714.22 L236.43,714.23 L236.43,714.23 L236.42,714.24 L236.41,714.24 L236.4,714.24 L236.39,714.25 L236.38,714.25 L236.37,714.25 L236.36,714.25 L236.34,714.25 L236.33,714.26 L236.32,714.26 L236.31,714.26 L236.3,714.26 C236.14,714.26,236.11,714.2,236.06,714.06 L234,708.1 C233.82,707.59,233.42,707.44,232.89,707.43 V707.12 C233.12,707.13,233.54,707.15,233.9,707.15 C234.21,707.15,234.73,707.13,235.05,707.12 V707.43 C234.55,707.43,234.3,707.68,234.3,707.94 C234.3,707.97,234.31,708.07,234.32,708.09 L234.78,709.39 L234.89,709.7 L236.01,712.94 L237.13,709.7 H234.89 L234.78,709.39 H237.24 L237.77,707.87 C237.78,707.83,237.8,707.77,237.8,707.73 C237.8,707.43,237.24,707.43,236.97,707.43 V707.12 C237.33,707.15,238.03,707.15,238.41,707.15 C238.83,707.15,239.29,707.14,239.71,707.12 V707.43 H239.53 C238.93,707.43,238.79,707.5,238.68,707.83 Z"/><path id="path3436" fill="#000" stroke-width="0" d="M246.38,713.91 L246.38,713.92 L246.38,713.94 L246.38,713.95 L246.38,713.97 L246.38,713.98 L246.38,713.99 L246.38,714 L246.38,714.02 L246.38,714.03 L246.38,714.04 L246.38,714.05 L246.38,714.06 L246.38,714.07 L246.38,714.07 L246.37,714.08 L246.37,714.09 L246.37,714.1 L246.37,714.1 L246.36,714.11 L246.36,714.11 L246.35,714.12 L246.35,714.12 L246.34,714.13 L246.34,714.13 L246.33,714.14 L246.33,714.14 L246.32,714.14 L246.31,714.14 L246.3,714.14 L246.3,714.15 L246.29,714.15 L246.28,714.15 C246.24,714.15,246.2,714.15,246.12,714.03 L245.62,713.29 C245.25,713.65,244.74,714.15,243.79,714.15 C241.92,714.15,240.32,712.56,240.32,710.53 C240.32,708.47,241.93,706.9,243.79,706.9 C245.41,706.9,246.38,708.29,246.38,709.44 C246.38,709.54,246.38,709.61,246.26,709.61 C246.15,709.61,246.15,709.55,246.14,709.45 C246.06,708.03,244.99,707.21,243.9,707.21 C243.3,707.21,241.34,707.55,241.34,710.52 C241.34,713.5,243.29,713.84,243.9,713.84 C244.98,713.84,245.87,712.93,246.07,711.48 C246.09,711.34,246.09,711.31,246.23,711.31 C246.38,711.31,246.38,711.34,246.38,711.55 Z"/><path id="path3438" fill="#000" stroke-width="0" d="M250.43,710.99 L249.15,711.3 C248.54,711.45,248.15,711.98,248.15,712.56 C248.15,713.26,248.69,713.87,249.46,713.87 C251.13,713.87,251.35,712.23,251.41,711.78 C251.42,711.72,251.42,711.66,251.52,711.66 C251.65,711.66,251.65,711.72,251.65,711.91 V713.91 C251.65,714.08,251.65,714.15,251.54,714.15 C251.48,714.15,251.47,714.14,251.4,714.02 L251.05,713.45 C250.75,713.74,250.34,714.15,249.45,714.15 C248.35,714.15,247.51,713.27,247.51,712.21 C247.51,711.39,248.04,710.66,248.82,710.39 C248.93,710.35,249.43,710.23,250.13,710.06 C250.4,709.99,250.7,709.92,250.98,709.55 C251.19,709.29,251.29,708.97,251.29,708.64 C251.29,707.93,250.79,707.21,249.95,707.21 C249.66,707.21,248.9,707.26,248.38,707.75 C247.8,708.29,247.77,708.93,247.76,709.28 C247.75,709.38,247.67,709.38,247.64,709.38 C247.51,709.38,247.51,709.31,247.51,709.14 V707.14 C247.51,706.97,247.51,706.9,247.62,706.9 C247.69,706.9,247.7,706.92,247.77,707.03 C247.77,707.04,247.8,707.07,248.13,707.6 C248.44,707.26,249.07,706.9,249.96,706.9 C251.13,706.9,251.92,707.88,251.92,708.98 C251.92,709.97,251.27,710.79,250.43,710.99 Z"/></g><g id="g2584" fill="url(#linearGradient3363) rgb(0, 0, 0)" fill-opacity="1" fill-rule="even-odd" stroke="#000" stroke-dasharray="none" stroke-dashoffset="0" stroke-linecap="butt" stroke-linejoin="miter" stroke-miterlimit="10.433" stroke-opacity="1" font-size-adjust="none" font-stretch="normal" font-style="normal" font-variant="normal" font-weight="normal" letter-spacing="normal" text-anchor="start" transform="matrix(4.30467, 0, 0, -4.30467, -940.505, 3099.56)" word-spacing="normal" ns0:text="$\\oint$" xml:space="preserve"><path id="path2576" fill="url(#linearGradient3363) rgb(0, 0, 0)" fill-opacity="1" stroke-width="0" d="M 227.01,707.76 L 227.11,707.77 L 227.21,707.79 L 227.3,707.82 L 227.39,707.85 L 227.48,707.88 L 227.57,707.92 L 227.65,707.95 L 227.73,708 L 227.8,708.04 L 227.88,708.09 L 227.95,708.14 L 228.01,708.2 L 228.08,708.25 L 228.14,708.31 L 228.19,708.37 L 228.25,708.44 L 228.3,708.5 L 228.35,708.57 L 228.39,708.64 L 228.43,708.7 L 228.47,708.78 L 228.51,708.85 L 228.54,708.92 L 228.57,709 L 228.59,709.07 L 228.61,709.15 L 228.63,709.22 L 228.65,709.3 L 228.66,709.38 L 228.67,709.45 L 228.67,709.53 L 228.67,709.61 L 228.27,709.62 C 228.27,708.9 227.76,708.3 227.07,708.17 L 227.35,710.97 C 227.87,710.76 228.27,710.25 228.27,709.62 L 228.67,709.61 C 228.67,710.35 228.23,711.1 227.38,711.38 C 227.45,712.43 227.49,712.8 227.5,712.99 C 227.6,714.08 227.75,714.93 228.41,714.93 C 228.51,714.93 228.82,714.91 229.04,714.72 C 228.75,714.68 228.67,714.45 228.67,714.31 C 228.67,714.02 228.89,713.89 229.08,713.89 C 229.28,713.89 229.5,714.02 229.5,714.32 C 229.5,714.8 229,715.15 228.4,715.15 C 227.61,715.15 227.23,714.47 227.03,713.89 C 226.9,713.5 226.83,713.2 226.62,711.47 C 225.54,711.31 224.96,710.43 224.96,709.62 L 225.35,709.62 C 225.35,710.3 225.85,710.91 226.56,711.05 L 226.27,708.25 C 225.81,708.45 225.35,708.93 225.35,709.62 L 224.96,709.62 C 224.96,708.88 225.4,708.12 226.25,707.84 C 226.18,706.82 226.15,706.5 226.13,706.3 C 226.03,705.22 225.85,704.3 225.09,704.3 C 224.96,704.3 224.66,704.33 224.45,704.51 C 224.74,704.55 224.82,704.78 224.82,704.92 C 224.82,705.21 224.6,705.33 224.41,705.33 C 224.21,705.33 223.99,705.21 223.99,704.91 C 223.99,704.43 224.49,704.08 225.09,704.08 C 225.86,704.08 226.31,704.67 226.56,705.28 C 226.78,705.84 226.85,706.4 227.01,707.76 z"/></g><g id="g3703" fill="none" fill-opacity="1" fill-rule="even-odd" stroke="#000" stroke-dasharray="none" stroke-dashoffset="0" stroke-linecap="butt" stroke-linejoin="miter" stroke-miterlimit="10.433" stroke-opacity="1" font-size-adjust="none" font-stretch="normal" font-style="normal" font-variant="normal" font-weight="normal" letter-spacing="normal" text-anchor="start" transform="matrix(1.60745, 0, 0, -1.60745, -342.753, 1174.73)" word-spacing="normal" ns0:text="{T\\kern-.1667em\\lower.5ex\\hbox{E}\\kern-.125emX\\kern-.1em\\lower.5ex\\hbox{\\textsc{m\\kern-.05ema\\kern-.125emc\\kern-.05ems}}}\n" xml:space="preserve"><path id="path3656" fill="#000" stroke-width="0" d="M 230.07,713.87 L 223.98,713.87 L 223.79,711.63 L 224.04,711.63 C 224.18,713.23 224.33,713.56 225.83,713.56 C 226.01,713.56 226.27,713.56 226.37,713.54 C 226.58,713.5 226.58,713.39 226.58,713.16 L 226.58,707.91 C 226.58,707.57 226.58,707.43 225.54,707.43 L 225.14,707.43 L 225.14,707.12 C 225.54,707.15 226.56,707.15 227.02,707.15 C 227.48,707.15 228.5,707.15 228.91,707.12 L 228.91,707.43 L 228.51,707.43 C 227.47,707.43 227.47,707.57 227.47,707.91 L 227.47,713.16 C 227.47,713.36 227.47,713.5 227.65,713.54 C 227.76,713.56 228.02,713.56 228.21,713.56 C 229.72,713.56 229.87,713.23 230.01,711.63 L 230.26,711.63 L 230.07,713.87 z"/><path id="path3658" fill="#000" stroke-width="0" d="M 235.46,707.55 L 235.21,707.55 C 234.96,706.01 234.74,705.29 233.02,705.29 L 231.7,705.29 C 231.23,705.29 231.21,705.36 231.21,705.68 L 231.21,708.34 L 232.11,708.34 C 233.07,708.34 233.18,708.03 233.18,707.18 L 233.43,707.18 L 233.43,709.82 L 233.18,709.82 C 233.18,708.96 233.07,708.65 232.11,708.65 L 231.21,708.65 L 231.21,711.04 C 231.21,711.37 231.23,711.44 231.7,711.44 L 232.98,711.44 C 234.51,711.44 234.78,710.9 234.93,709.51 L 235.18,709.51 L 234.9,711.75 L 229.3,711.75 L 229.3,711.44 L 229.54,711.44 C 230.3,711.44 230.32,711.33 230.32,710.97 L 230.32,705.76 C 230.32,705.4 230.3,705.29 229.54,705.29 L 229.3,705.29 L 229.3,704.98 L 235.04,704.98 L 235.46,707.55 z"/><path id="path3660" fill="#000" stroke-width="0" d="M 238.51,710.97 L 239.87,712.97 C 240.09,713.29 240.43,713.61 241.32,713.62 L 241.32,713.93 C 240.93,713.92 240.46,713.9 240.21,713.9 C 239.81,713.9 239.33,713.9 238.94,713.93 L 238.94,713.62 C 239.33,713.61 239.55,713.39 239.55,713.16 C 239.55,713.06 239.53,713.04 239.46,712.93 L 238.33,711.25 L 237.04,713.17 C 237.02,713.2 236.97,713.28 236.97,713.32 C 236.97,713.44 237.19,713.61 237.62,713.62 L 237.62,713.93 C 237.27,713.9 236.54,713.9 236.17,713.9 C 235.86,713.9 235.24,713.91 234.87,713.93 L 234.87,713.62 L 235.06,713.62 C 235.61,713.62 235.8,713.55 235.99,713.27 L 237.82,710.5 L 236.19,708.09 C 236.05,707.89 235.75,707.43 234.74,707.43 L 234.74,707.12 C 235.1,707.13 235.52,707.15 235.85,707.15 C 236.22,707.15 236.76,707.15 237.12,707.12 L 237.12,707.43 C 236.66,707.44 236.49,707.71 236.49,707.89 C 236.49,707.98 236.52,708.02 236.6,708.13 L 238.01,710.22 L 239.58,707.84 C 239.6,707.8 239.63,707.76 239.63,707.73 C 239.63,707.61 239.41,707.44 238.99,707.43 L 238.99,707.12 C 239.33,707.15 240.06,707.15 240.44,707.15 C 240.86,707.15 241.32,707.14 241.74,707.12 L 241.74,707.43 L 241.55,707.43 C 241.03,707.43 240.82,707.48 240.61,707.79 L 238.51,710.97 z"/><path id="path3662" fill="#000" stroke-width="0" d="M 242.99,709.92 L 242.98,709.94 L 242.97,709.95 L 242.97,709.96 L 242.96,709.98 L 242.95,709.99 L 242.95,710 L 242.94,710.01 L 242.93,710.02 L 242.93,710.03 L 242.92,710.04 L 242.91,710.05 L 242.9,710.05 L 242.9,710.06 L 242.89,710.07 L 242.88,710.07 L 242.87,710.08 L 242.86,710.08 L 242.85,710.08 L 242.84,710.09 L 242.83,710.09 L 242.82,710.09 L 242.81,710.09 L 242.79,710.09 L 242.78,710.1 L 242.77,710.1 L 242.75,710.1 L 242.74,710.1 L 242.72,710.1 L 242.7,710.1 L 242.69,710.1 L 242.67,710.1 L 242.65,710.1 L 241.44,710.1 L 241.44,709.85 C 242.11,709.85 242.16,709.79 242.16,709.38 L 242.16,705.98 C 242.16,705.76 242.16,705.23 241.44,705.23 L 241.44,704.98 C 241.65,704.99 242.1,705.01 242.3,705.01 C 242.45,705.01 242.91,705 243.16,704.98 L 243.16,705.23 C 242.44,705.23 242.44,705.76 242.44,705.98 L 242.44,709.73 L 242.45,709.74 L 244.31,705.16 C 244.35,705.07 244.4,704.98 244.5,704.98 C 244.6,704.98 244.65,705.07 244.69,705.16 L 246.58,709.81 L 246.59,709.8 L 246.59,705.7 C 246.59,705.29 246.54,705.23 245.88,705.23 L 245.88,704.98 C 246.08,704.99 246.56,705.01 246.91,705.01 C 247.26,705.01 247.62,704.99 247.95,704.98 L 247.95,705.23 C 247.28,705.23 247.23,705.29 247.23,705.7 L 247.23,709.38 C 247.23,709.79 247.28,709.85 247.95,709.85 L 247.95,710.1 L 246.74,710.1 C 246.51,710.1 246.48,710.1 246.4,709.91 L 244.7,705.72 L 242.99,709.92 z"/><path id="path3664" fill="#000" stroke-width="0" d="M 251.15,710.05 L 251.14,710.06 L 251.13,710.08 L 251.13,710.09 L 251.12,710.1 L 251.12,710.12 L 251.11,710.13 L 251.11,710.14 L 251.1,710.15 L 251.1,710.16 L 251.09,710.17 L 251.08,710.18 L 251.08,710.19 L 251.07,710.2 L 251.07,710.2 L 251.06,710.21 L 251.05,710.22 L 251.05,710.22 L 251.04,710.23 L 251.03,710.24 L 251.03,710.24 L 251.02,710.25 L 251.01,710.25 L 251.01,710.25 L 251,710.26 L 250.99,710.26 L 250.98,710.26 L 250.97,710.26 L 250.96,710.27 L 250.96,710.27 L 250.95,710.27 L 250.94,710.27 L 250.93,710.27 C 250.79,710.27 250.77,710.21 250.72,710.08 L 249.11,705.96 C 249,705.7 248.83,705.25 248.21,705.23 L 248.21,704.98 C 248.43,705 248.71,705.01 248.93,705.01 C 249.1,705.01 249.56,704.99 249.76,704.98 L 249.76,705.23 C 249.34,705.25 249.31,705.59 249.31,705.67 C 249.31,705.76 249.31,705.78 249.65,706.66 L 249.75,706.91 L 250.69,709.31 L 251.61,706.91 L 249.75,706.91 L 249.65,706.66 L 251.71,706.66 L 251.93,706.1 C 252.01,705.9 252.14,705.57 252.14,705.51 C 252.14,705.23 251.78,705.23 251.61,705.23 L 251.61,704.98 C 251.88,704.99 252.47,705.01 252.67,705.01 C 253.01,705.01 253.4,704.99 253.64,704.98 L 253.64,705.23 C 253.08,705.23 252.99,705.28 252.86,705.62 L 251.15,710.05 z"/><path id="path3666" fill="#000" stroke-width="0" d="M 257.98,710 L 257.98,710.01 L 257.98,710.03 L 257.98,710.04 L 257.98,710.05 L 257.98,710.07 L 257.98,710.08 L 257.98,710.09 L 257.98,710.1 L 257.98,710.11 L 257.98,710.12 L 257.98,710.13 L 257.97,710.14 L 257.97,710.15 L 257.97,710.16 L 257.97,710.17 L 257.97,710.18 L 257.97,710.19 L 257.96,710.19 L 257.96,710.2 L 257.96,710.2 L 257.95,710.21 L 257.95,710.21 L 257.94,710.22 L 257.94,710.22 L 257.93,710.23 L 257.93,710.23 L 257.92,710.23 L 257.91,710.23 L 257.91,710.24 L 257.9,710.24 L 257.89,710.24 L 257.88,710.24 C 257.82,710.24 257.81,710.22 257.73,710.12 L 257.34,709.61 C 257.13,709.83 256.64,710.24 255.9,710.24 C 254.39,710.24 253.11,709.05 253.11,707.54 C 253.11,706.02 254.39,704.84 255.9,704.84 C 257.19,704.84 257.98,705.87 257.98,706.74 C 257.98,706.83 257.98,706.9 257.85,706.9 C 257.74,706.9 257.74,706.84 257.73,706.74 C 257.66,705.68 256.8,705.09 255.97,705.09 C 255.47,705.09 253.96,705.36 253.96,707.54 C 253.96,709.75 255.51,709.99 255.96,709.99 C 256.68,709.99 257.53,709.47 257.72,708.21 C 257.74,708.14 257.75,708.08 257.85,708.08 C 257.98,708.08 257.98,708.13 257.98,708.32 L 257.98,710 z"/><path id="path3668" fill="#000" stroke-width="0" d="M 261.76,710 L 261.76,710.01 L 261.76,710.03 L 261.76,710.04 L 261.76,710.05 L 261.76,710.07 L 261.76,710.08 L 261.76,710.09 L 261.76,710.1 L 261.76,710.11 L 261.75,710.12 L 261.75,710.13 L 261.75,710.14 L 261.75,710.15 L 261.75,710.16 L 261.75,710.17 L 261.75,710.18 L 261.74,710.19 L 261.74,710.19 L 261.74,710.2 L 261.73,710.2 L 261.73,710.21 L 261.73,710.21 L 261.72,710.22 L 261.72,710.22 L 261.71,710.23 L 261.7,710.23 L 261.7,710.23 L 261.69,710.23 L 261.68,710.24 L 261.68,710.24 L 261.67,710.24 L 261.66,710.24 C 261.6,710.24 261.59,710.23 261.44,710.01 C 261.39,709.96 261.29,709.81 261.25,709.75 C 260.87,710.12 260.41,710.24 260.01,710.24 C 259.1,710.24 258.44,709.56 258.44,708.78 C 258.44,708.22 258.76,707.9 258.88,707.78 C 259.18,707.48 259.38,707.44 260.29,707.23 C 260.83,707.1 260.93,707.08 261.16,706.87 C 261.21,706.83 261.48,706.56 261.48,706.12 C 261.48,705.62 261.09,705.09 260.4,705.09 C 260.14,705.09 259.61,705.13 259.18,705.48 C 258.73,705.82 258.7,706.31 258.69,706.58 C 258.68,706.66 258.6,706.67 258.57,706.67 C 258.44,706.67 258.44,706.6 258.44,706.42 L 258.44,705.08 C 258.44,704.92 258.44,704.84 258.54,704.84 C 258.6,704.84 258.61,704.85 258.76,705.07 C 258.81,705.12 258.91,705.27 258.95,705.33 C 259.24,705.07 259.76,704.84 260.4,704.84 C 261.37,704.84 261.99,705.6 261.99,706.39 C 261.99,707.02 261.6,707.42 261.6,707.43 C 261.23,707.81 261.07,707.84 260.22,708.04 C 260.02,708.09 259.67,708.17 259.61,708.18 C 259.11,708.39 258.95,708.77 258.95,709.07 C 258.95,709.53 259.35,710.02 260.02,710.02 C 261.28,710.02 261.46,708.85 261.5,708.53 C 261.52,708.46 261.52,708.41 261.63,708.41 C 261.76,708.41 261.76,708.45 261.76,708.64 L 261.76,710 z"/></g><g id="g3380" fill="url(#linearGradient3411) rgb(0, 0, 0)" fill-opacity="1" fill-rule="even-odd" stroke="#000" stroke-dasharray="none" stroke-dashoffset="0" stroke-linecap="butt" stroke-linejoin="miter" stroke-miterlimit="10.433" stroke-opacity="1" font-size-adjust="none" font-stretch="normal" font-style="normal" font-variant="normal" font-weight="normal" letter-spacing="normal" text-anchor="start" transform="matrix(2.28768, 0, 0, -2.28768, -473.593, 1682.4)" word-spacing="normal" ns0:text="$\\sum$" xml:space="preserve"><path id="path3372" fill="url(#linearGradient3411) rgb(0, 0, 0)" fill-opacity="1" stroke="#000" stroke-opacity="1" stroke-width="0" d="M 228.28,709.46 L 228.29,709.47 L 228.3,709.48 L 228.3,709.48 L 228.31,709.49 L 228.31,709.5 L 228.32,709.5 L 228.32,709.51 L 228.33,709.52 L 228.33,709.52 L 228.34,709.53 L 228.34,709.53 L 228.34,709.54 L 228.35,709.54 L 228.35,709.55 L 228.35,709.55 L 228.36,709.56 L 228.36,709.56 L 228.36,709.57 L 228.36,709.57 L 228.36,709.57 L 228.37,709.58 L 228.37,709.58 L 228.37,709.59 L 228.37,709.59 L 228.37,709.59 L 228.37,709.6 L 228.37,709.6 L 228.37,709.6 L 228.37,709.61 L 228.37,709.61 L 228.37,709.62 C 228.37,709.66 228.36,709.67 228.3,709.76 L 225.07,714.2 L 229.01,714.2 C 230.15,714.2 232.44,714.13 233.14,712.27 L 233.38,712.27 L 232.53,714.6 L 224.27,714.6 C 224,714.6 223.99,714.59 223.99,714.28 L 227.63,709.28 L 224.09,704.91 C 224.01,704.81 224,704.79 224,704.75 C 224,704.64 224.09,704.64 224.27,704.64 L 232.53,704.64 L 233.38,707.12 L 233.14,707.12 C 232.89,706.37 232.22,705.76 231.37,705.47 C 231.21,705.42 230.53,705.18 229.06,705.18 L 224.83,705.18 L 228.28,709.46 z"/></g></svg>