<svg xmlns="http://www.w3.org/2000/svg" xmlns:osb="http://www.openswatchbook.org/uri/2009/osb" xmlns:svg="http://www.w3.org/2000/svg" id="svg3039" width="16" height="16" version="1.1"><defs id="defs3041"><linearGradient id="linearGradient13649" osb:paint="solid"><stop id="stop13651" offset="0" stop-color="gray" stop-opacity="1"/></linearGradient><linearGradient id="linearGradient6140"><stop id="stop6142" offset="0" stop-color="gray" stop-opacity="1"/><stop id="stop6144" offset="1" stop-color="#606060" stop-opacity="1"/></linearGradient><filter id="filter12199" width="1.072" height="1.072" x="-.036" y="-.036" color-interpolation-filters="sRGB"><feGaussianBlur id="feGaussianBlur12201" stdDeviation=".21"/></filter></defs><metadata id="metadata3044"/><g id="layer1"><path id="path12171" fill="gray" fill-opacity="1" fill-rule="evenodd" stroke="gray" stroke-dasharray="none" stroke-linecap="round" stroke-linejoin="round" stroke-miterlimit="4" stroke-opacity="1" stroke-width="1" d="m 1.5,14 c -1,0 -1,1 0,1 2,0 4.5,-0.5 6,-1.5 1.4935759,-0.995717 4.207976,-3.5764021 5.5,-7 0.761081,-2.0167078 1.75,-3.9999998 2,-5 0.114332,-0.4573295 -0.885668,-0.4573295 -1,0 C 13.75,2.5000002 12.774925,4.2464954 12,6 10.707976,8.9235979 8.4935759,11.504283 7,12.5 5.5,13.5 3.5,14 1.5,14 Z" filter="url(#filter12199)" transform="matrix(-1,0,0,-1,15.759089,16.157003)"/></g></svg>