<svg xmlns="http://www.w3.org/2000/svg" xmlns:svg="http://www.w3.org/2000/svg" id="svg3039" width="16" height="16" version="1.1"><defs id="defs3041"><linearGradient id="linearGradient6140"><stop id="stop6142" offset="0" stop-color="gray" stop-opacity="1"/><stop id="stop6144" offset="1" stop-color="#606060" stop-opacity="1"/></linearGradient><filter id="filter5018"><feGaussianBlur id="feGaussianBlur5020" stdDeviation=".2"/></filter></defs><metadata id="metadata3044"/><g id="layer1"><path id="path5041" fill="#f8f8f8" fill-opacity="1" stroke="gray" stroke-linecap="butt" stroke-linejoin="round" stroke-opacity="1" stroke-width="1" d="m 0.5,8.5 11,0 c 0,0 1.5,-1 3,-3 1.5,-2 1,-4 1,-4 l -10,0 c 0,0 -0.5,2 -2,4 -1.5,2 -3,3 -3,3 z"/><path id="path5045" fill="gray" fill-opacity="1" stroke="gray" stroke-linecap="butt" stroke-linejoin="round" stroke-opacity="1" stroke-width="1" d="m 0.5,8.5 11,0 c 0,0 1.5,1 3,3 1.5,2 1,4 1,4 l -10,0 c 0,0 -0.5,-2 -2,-4 -1.5,-2 -3,-3 -3,-3 z"/></g></svg>