<svg xmlns="http://www.w3.org/2000/svg" xmlns:svg="http://www.w3.org/2000/svg" id="svg3039" width="16" height="16" version="1.1"><defs id="defs3041"><linearGradient id="linearGradient6140"><stop id="stop6142" offset="0" stop-color="gray" stop-opacity="1"/><stop id="stop6144" offset="1" stop-color="#606060" stop-opacity="1"/></linearGradient><filter id="filter4205" width="1.051" height="1.045" x="-.026" y="-.023" color-interpolation-filters="sRGB"><feGaussianBlur id="feGaussianBlur4207" stdDeviation=".138"/></filter></defs><metadata id="metadata3044"/><g id="layer1"><path id="path4187" fill="#606060" fill-opacity="1" fill-rule="evenodd" stroke="#000" stroke-dasharray="none" stroke-linecap="butt" stroke-linejoin="miter" stroke-miterlimit="4" stroke-opacity="1" stroke-width="0" d="M 8,0.80859375 C 7.6539799,0.80859375 7.3079599,0.87243885 7,1 6.564479,1.1803987 6.1803987,1.564479 6,2 5.7448777,2.6159197 5.7448777,3.3840803 6,4 6.1803987,4.435521 7,5 7,5 L 7,6 5,6 5,7 7,7 7,12.5 2,10 1.5,11.5 8,15.5 14.5,11.5 14,10 9,12.5 9,7 11,7 11,6 9,6 9,5 C 9,5 9.8196013,4.435521 10,4 10.255122,3.3840803 10.255122,2.6159197 10,2 9.8196013,1.564479 9.435521,1.1803987 9,1 8.6920402,0.87243885 8.3460201,0.80859375 8,0.80859375 Z M 8,2 C 8.5522847,2 9,2.4477153 9,3 9,3.5522847 8.5522847,4 8,4 7.4477153,4 7,3.5522847 7,3 7,2.4477153 7.4477153,2 8,2 Z" filter="url(#filter4205)"/></g></svg>