<svg xmlns="http://www.w3.org/2000/svg" xmlns:osb="http://www.openswatchbook.org/uri/2009/osb" xmlns:svg="http://www.w3.org/2000/svg" id="svg3039" width="16" height="16" version="1.1"><defs id="defs3041"><linearGradient id="linearGradient13649" osb:paint="solid"><stop id="stop13651" offset="0" stop-color="gray" stop-opacity="1"/></linearGradient><linearGradient id="linearGradient6140"><stop id="stop6142" offset="0" stop-color="gray" stop-opacity="1"/><stop id="stop6144" offset="1" stop-color="#606060" stop-opacity="1"/></linearGradient><filter id="filter12199" width="1.072" height="1.072" x="-.036" y="-.036" color-interpolation-filters="sRGB"><feGaussianBlur id="feGaussianBlur12201" stdDeviation=".21"/></filter></defs><metadata id="metadata3044"/><g id="layer1"><path id="path12171" fill="gray" fill-opacity="1" fill-rule="evenodd" stroke="gray" stroke-dasharray="none" stroke-linecap="round" stroke-linejoin="round" stroke-miterlimit="4" stroke-opacity="1" stroke-width="1" d="m 1.759089,1.157003 c -0.098058,-0.49029034 -1.09805807,0.00971 -1,0.5 0.5,2.5 1.7350889,7.9701779 3,10.5 2,4 6,4 8,0 1.264911,-2.5298221 2.5,-8 3,-10.5 0.09806,-0.4902903 -0.901942,-0.99029034 -1,-0.5 -0.5,2.5 -1.431071,8.1466064 -3,10.5 -2,3 -4,3 -6,0 -1.5689291,-2.3533936 -2.5,-8 -3,-10.5 z" filter="url(#filter12199)" transform="matrix(-1,0,0,1,15.759089,0.04408791)"/></g></svg>