<svg xmlns="http://www.w3.org/2000/svg" xmlns:svg="http://www.w3.org/2000/svg" id="svg2739" width="16" height="16" version="1.0" viewBox="0 0 3.75 1.875"><metadata id="metadata4523"/><clipPath id="t"><path id="path2742" d="m 30,15 30,0 0,15 -30,-15 z m 0,0 0,15 L 0,30 30,15 z M 30,15 0,15 0,0 30,15 z m 0,0 0,-15 30,0 -30,15 z"/></clipPath><g id="g5050" opacity=".75" transform="matrix(1.0015719,0,0,0.98966363,-0.00655515,0.01992826)"><path id="path2744" fill="#00247d" d="m 0.00654486,-0.25698336 0,2.36825086 3.74411414,0 0,-2.36825086 -3.74411414,0 z"/><path id="path3158" fill="#fff" fill-opacity="1" fill-rule="evenodd" stroke="none" d="m 0.89456662,0.60100214 -0.0596645,-0.0667016 -0.8283576,-0.5248356 2.69e-5,-0.2666891 0.41865525,1.658e-4 1.14090593,0.7228983 0.030525,0.1246267 -0.70209189,0.0105327 z"/><path id="path3160" fill="#fff" fill-opacity="1" fill-rule="evenodd" stroke="none" d="m 2.8626363,0.60109924 0.059664,-0.0667016 0.828358,-0.524836 -2.73e-5,-0.2666889 -0.4186548,1.658e-4 -1.140906,0.7228982 -0.030525,0.1246266 0.7020922,0.0105327 z"/><path id="path3162" fill="#fff" fill-opacity="1" fill-rule="evenodd" stroke="none" d="M 2.8626977,1.2532394 2.9223619,1.3199414 3.7507197,1.8447771 3.7506925,2.111466 3.3320373,2.1112996 2.1911313,1.3884016 2.1606054,1.2637749 2.8626972,1.2532422 z"/><path id="path3164" fill="#fff" fill-opacity="1" fill-rule="evenodd" stroke="none" d="M 0.89475502,1.2531741 0.83509087,1.3198751 0.00673322,1.8447108 0.00676001,2.1114 0.42541538,2.1112347 1.5663214,1.3883324 1.5968472,1.2637058 0.89475533,1.253173 z"/><path id="path2748" stroke="#cf142b" stroke-width="4" d="m 0,0 c 7.691981,3.8369888 15.370146,7.6739775 23.042447,11.510966 0.0446,0.0223 0.0892,0.04461 0.133796,0.06691 C 35.454865,17.718586 47.718586,23.859293 60,30 M 60,0 0,30" clip-path="url(#t)" transform="matrix(0.06240191,0,0,0.07894169,0.00654486,-0.25698336)"/><path id="path2750" stroke="#fff" stroke-width=".702" d="m 1.8786021,-0.25698336 0,0.7003124 0,0.026168 0,1.64177256 m -1.87205724,-1.18412596 3.74411414,0"/><path id="path2752" stroke="#cf142b" stroke-width=".421" d="m 1.8786021,-0.25698336 0,2.36825086 m -1.87205724,-1.18412556 3.74411414,0"/><path id="path4540" stroke="#cf142b" stroke-width="4" d="m 0,0 c 7.691981,3.8369888 15.370146,7.6739775 23.042447,11.510966 0.0446,0.0223 0.0892,0.04461 0.133796,0.06691 C 35.454865,17.718586 47.718586,23.859293 60,30 M 60,0 0,30" clip-path="url(#t)" transform="matrix(0.06240191,0,0,0.07894169,0.00654486,-0.25698336)"/></g></svg>