<svg xmlns="http://www.w3.org/2000/svg" xmlns:svg="http://www.w3.org/2000/svg" id="svg3039" width="16" height="16" version="1.1"><metadata id="metadata3044"/><g id="layer1"><path id="path4086" fill="gray" fill-opacity="1" stroke="none" d="M 2,0 2,16 3,16 3,0 z"/><path id="path4088" fill="gray" fill-opacity="1" stroke="none" d="m 13,0 0,16 1,0 0,-16 z"/><path id="path4090" fill="gray" fill-opacity="1" stroke="none" d="m 15.999422,2.0000001 -15.99999983,0 L 0,3 l 15.999422,10e-8 z"/><path id="path4092" fill="gray" fill-opacity="1" stroke="none" d="M 16,13 0,13 5.7783e-4,14 16,14 z"/><path id="path5139" fill="#4040a0" fill-opacity="1" stroke="none" d="M 13,6 3,6 3,7 13,7 z"/><path id="path5141" fill="#4040a0" fill-opacity="1" stroke="none" d="M 13,9 3,9 3,10 13,10 z"/><path id="path5143" fill="#4040a0" fill-opacity="1" stroke="none" d="M 10,13 10,3 9,3 9,13 z"/><path id="path5145" fill="#4040a0" fill-opacity="1" stroke="none" d="M 7,13 7,3 6,3 6,13 z"/></g></svg>