<svg xmlns="http://www.w3.org/2000/svg" xmlns:svg="http://www.w3.org/2000/svg" id="svg3039" width="16" height="16" version="1.1"><metadata id="metadata3044"/><g id="layer1"><path id="path5336" fill="red" fill-opacity=".124" stroke="none" d="M 3,13 13,13 13,3 3,3 z"/><path id="path4086" fill="gray" fill-opacity="1" stroke="none" d="M 2,0 2,16 3,16 3,0 z"/><path id="path4088" fill="gray" fill-opacity="1" stroke="none" d="m 13,0 0,16 1,0 0,-16 z"/><path id="path4090" fill="gray" fill-opacity="1" stroke="none" d="m 15.999422,2.0000001 -15.99999983,0 L 0,3 l 15.999422,10e-8 z"/><path id="path4092" fill="gray" fill-opacity="1" stroke="none" d="M 16,13 0,13 5.7783e-4,14 16,14 z"/><path id="path5151" fill="gray" fill-opacity="1" stroke="none" d="m 6,14 0,2 1,0 0,-2 z"/><path id="path5153" fill="gray" fill-opacity="1" stroke="none" d="m 9,14 0,2 1,0 0,-2 z"/><path id="path5155" fill="gray" fill-opacity="1" stroke="none" d="M 6,0 6,2 7,2 7,0 z"/><path id="path5157" fill="gray" fill-opacity="1" stroke="none" d="m 9,0 0,2 1,0 0,-2 z"/><path id="path5159" fill="gray" fill-opacity="1" stroke="none" d="m 16,9 -2,0 0,1 2,0 z"/><path id="path5161" fill="gray" fill-opacity="1" stroke="none" d="m 16,6 -2,0 0,1 2,0 z"/><path id="path5163" fill="gray" fill-opacity="1" stroke="none" d="M 2,6 0,6 0,7 2,7 z"/><path id="path5165" fill="gray" fill-opacity="1" stroke="none" d="m 2,9 -2,0 0,1 2,0 z"/><path id="path5346" fill="none" stroke="#404040" stroke-dasharray="none" stroke-linecap="round" stroke-linejoin="miter" stroke-miterlimit="4" stroke-opacity="1" stroke-width="1" d="m 5.5,5.5 5,0"/><path id="path5348" fill="none" stroke="#404040" stroke-dasharray="none" stroke-linecap="round" stroke-linejoin="miter" stroke-miterlimit="4" stroke-opacity="1" stroke-width="1" d="m 5.5,7.5 5,0"/><path id="path5352" fill="none" stroke="#404040" stroke-dasharray="none" stroke-linecap="round" stroke-linejoin="miter" stroke-miterlimit="4" stroke-opacity="1" stroke-width="1" d="m 5.5,9.5 5,0"/></g></svg>