<svg xmlns="http://www.w3.org/2000/svg" xmlns:svg="http://www.w3.org/2000/svg" id="svg3039" width="16" height="16" version="1.1"><metadata id="metadata3044"/><g id="layer1"><path id="path4966" fill="gray" fill-opacity="1" stroke="none" d="M 15.999993,1.985705 0,2 8.934e-4,3 16.000887,2.9857 15.999993,1.985701 z"/><path id="path4452" fill="gray" fill-opacity="1" stroke="none" stroke-linecap="butt" stroke-linejoin="miter" stroke-opacity="1" stroke-width="1" d="M 2,0 2,16 3,16 3,0 2,0 z"/><path id="path8906" fill="#e0e0a0" fill-opacity="1" stroke="#c08040" stroke-dasharray="none" stroke-linejoin="round" stroke-miterlimit="4" stroke-opacity="1" stroke-width="1.263" d="M 8.3111659,4.3685516 3.7669045,5.1980849 2.767492,9.6866906 0.57430501,5.6211812 -4.0034482,6.0577388 -0.81465096,2.7155825 -2.6444455,-1.5032158 1.5195266,0.4967275 4.9664046,-2.5471909 4.3510836,2.0309984 z" transform="matrix(0.79166667,0,0,0.79166667,3.6916838,2.4444632)"/><path id="path4962" fill="gray" fill-opacity="1" stroke="none" d="m 13,0 0,16 1,0 0,-16 -1,0 z"/><path id="path4964" fill="gray" fill-opacity="1" stroke="none" d="M 15.999993,12.985705 0,13 l 8.934e-4,1 15.9999936,-0.0143 -8.94e-4,-0.999999 z"/></g></svg>