<svg xmlns="http://www.w3.org/2000/svg" xmlns:svg="http://www.w3.org/2000/svg" id="svg3039" width="16" height="16" version="1.1"><defs id="defs3041"><linearGradient id="linearGradient6140"><stop id="stop6142" offset="0" stop-color="gray" stop-opacity="1"/><stop id="stop6144" offset="1" stop-color="#606060" stop-opacity="1"/></linearGradient></defs><metadata id="metadata3044"/><g id="layer1"><path id="path9330" fill="none" fill-rule="evenodd" stroke="#606060" stroke-dasharray="none" stroke-linecap="round" stroke-linejoin="round" stroke-miterlimit="4" stroke-opacity="1" stroke-width="1.25" d="M 2.0480877,13.953172 10.177449,6.4422813 12.039593,5.9426834 c 0,0 2.324705,-0.9448786 2.151536,-1.901151 C 14.01796,3.0852599 13.40224,1.6772345 12.445967,1.8504035 c -0.956272,0.1731691 -2.793882,1.0322017 -2.882258,2 -0.09094,0.995857 0.61374,2.5918778 0.61374,2.5918778 z"/><path id="path9332" fill="none" fill-opacity="1" fill-rule="evenodd" stroke="#c06060" stroke-dasharray="none" stroke-linecap="round" stroke-linejoin="miter" stroke-miterlimit="4" stroke-opacity="1" stroke-width="1.5" d="m 10.195044,15.906047 c 0,0 -4.0103944,-4.443349 -4.7463669,-7.2310422 C 4.9869391,6.9260486 6.2773984,5.0041817 5.79908,3.2596871 5.4409643,1.9535888 3.5055337,-0.09395317 3.5055337,-0.09395317"/><path id="path9328" fill="none" fill-rule="evenodd" stroke="#606060" stroke-dasharray="none" stroke-linecap="round" stroke-linejoin="round" stroke-miterlimit="4" stroke-opacity="1" stroke-width="1.25" d="m 0.85019912,5.9061297 11.99999988,4 c 0,0 2.264298,0.5571913 2.5,1.5000003 0.235702,0.942809 -0.557191,2.264298 -1.5,2.5 -0.942809,0.235702 -2.021183,-0.654318 -2.5,-1.5 -0.492699,-0.8702 0,-3.0000003 0,-3.0000003 z"/></g></svg>