<svg xmlns="http://www.w3.org/2000/svg" xmlns:svg="http://www.w3.org/2000/svg" id="svg3039" width="16" height="16" version="1.1"><metadata id="metadata3044"/><g id="layer1"><path id="path4086" fill="gray" fill-opacity="1" stroke="none" d="M 0,1 0,16 1,16 1,1 z"/><path id="path4088" fill="gray" fill-opacity="1" stroke="none" d="m 14,1 0,15 1,0 0,-15 z"/><path id="path4090" fill="gray" fill-opacity="1" stroke="none" d="m 15,1 -15.00057783,1e-7 L 0,2 15,2 z"/><path id="path4134" fill="gray" fill-opacity="1" stroke="none" d="M 15,15 0,15 5.7783e-4,16 15,16 z"/><path id="path4136" fill="gray" fill-opacity="1" stroke="none" d="M 15,8 -5.7783e-4,8.0000001 0,9 15,9 z"/><path id="path4138" fill="gray" fill-opacity="1" stroke="none" d="M 7,1 7,16 8,16 8,1 z"/><path id="path4140" fill="#c0e0c0" fill-opacity="1" stroke="none" stroke-linecap="butt" stroke-linejoin="miter" stroke-opacity="1" stroke-width="1" d="M 1,2 1,8 7,8 7,2 z"/><path id="path4148" fill="#c0c0e0" fill-opacity="1" stroke="none" d="m 8,2 0,6 6,0 0,-6 z"/><path id="path4150" fill="#e0e0c0" fill-opacity="1" stroke="none" d="m 8,9 0,6 6,0 0,-6 z"/><path id="path4152" fill="#e0c0c0" fill-opacity="1" stroke="none" d="m 1,9 0,6 6,0 0,-6 z"/></g></svg>