<svg xmlns="http://www.w3.org/2000/svg" xmlns:svg="http://www.w3.org/2000/svg" id="svg3039" width="16" height="16" version="1.1"><metadata id="metadata3044"/><g id="layer1"><path id="path4086" fill="gray" fill-opacity="1" stroke="none" d="M 2,0 2,16 3,16 3,0 z"/><path id="path4088" fill="gray" fill-opacity="1" stroke="none" d="m 13,0 0,16 1,0 0,-16 z"/><path id="path4090" fill="gray" fill-opacity="1" stroke="none" d="m 15.999422,2.0000001 -15.99999983,0 L 0,3 l 15.999422,10e-8 z"/><path id="path4092" fill="gray" fill-opacity="1" stroke="none" d="M 16,13 0,13 5.7783e-4,14 16,14 z"/><path id="path4602" fill="#4040a0" fill-opacity="1" stroke="#4040be" stroke-dasharray="none" stroke-linecap="butt" stroke-linejoin="miter" stroke-miterlimit="2.4" stroke-opacity="1" stroke-width="0" d="m 4,4 0,4 1,0 0,-2 5,5 -2,0 0,1 4,0 0,-4 -1,0 0,2 L 6,5 8,5 8,4 z"/></g></svg>