<svg xmlns="http://www.w3.org/2000/svg" xmlns:svg="http://www.w3.org/2000/svg" xmlns:xlink="http://www.w3.org/1999/xlink" id="svg2" width="16" height="16" version="1.0"><metadata id="metadata9540"/><g id="g9570" opacity=".75" transform="matrix(0.0625,0,0,0.05859363,0,0.51955681)"><rect id="rect4" width="256" height="170.667" x="0" y="42.333" fill="#de2910"/><path id="star" fill="#ffde00" d="m 27.690213,105.63795 5.674025,-17.645436 -14.910905,-10.939121 18.46692,-0.0344 5.753705,-17.619334 5.739158,17.624134 18.466884,0.0498 -14.919927,10.926721 5.659465,17.650136 -14.960179,-10.871123 -14.969146,10.858623 0,0 z"/><use id="use7" width="3000" height="2000" x="0" y="0" transform="matrix(0.3128368,0.1151017,-0.1151013,0.3128368,81.815407,87.649317)" xlink:href="#star"/><use id="use9" width="3000" height="2000" x="0" y="0" transform="matrix(0.3330938,-0.0127962,0.01279615,0.3330938,87.130954,74.29826)" xlink:href="#star"/><use id="use11" width="3000" height="2000" x="0" y="0" transform="matrix(0.2988346,-0.1476936,0.147693,0.2988346,77.058704,57.361021)" xlink:href="#star"/><use id="use13" width="3000" height="2000" x="0" y="0" transform="matrix(0.3070677,0.1297109,-0.1297105,0.3070677,83.21088,27.749418)" xlink:href="#star"/></g></svg>