<svg xmlns="http://www.w3.org/2000/svg" xmlns:svg="http://www.w3.org/2000/svg" id="svg3039" width="16" height="16" version="1.1"><defs id="defs3041"><linearGradient id="linearGradient6140"><stop id="stop6142" offset="0" stop-color="gray" stop-opacity="1"/><stop id="stop6144" offset="1" stop-color="#606060" stop-opacity="1"/></linearGradient><filter id="filter4201" width="1.288" height="1.096" x="-.144" y="-.048" color-interpolation-filters="sRGB"><feGaussianBlur id="feGaussianBlur4203" stdDeviation=".12"/></filter><filter id="filter4209" width="1.115" height="1.288" x="-.058" y="-.144" color-interpolation-filters="sRGB"><feGaussianBlur id="feGaussianBlur4211" stdDeviation=".12"/></filter><filter id="filter4251" width="1.063" height="1.071" x="-.032" y="-.036" color-interpolation-filters="sRGB"><feGaussianBlur id="feGaussianBlur4253" stdDeviation=".119"/></filter></defs><metadata id="metadata3044"/><g id="layer1"><path id="path4181" fill="silver" fill-opacity="1" fill-rule="evenodd" stroke="none" stroke-linecap="butt" stroke-linejoin="miter" stroke-opacity="1" stroke-width="1" d="M 0.00239999,7 5.0024,7 l 0,2 -5.00000001,0 z" filter="url(#filter4209)"/><path id="path4185" fill="#a06060" fill-opacity="1" fill-rule="evenodd" stroke="none" stroke-linecap="butt" stroke-linejoin="miter" stroke-opacity="1" stroke-width="1" d="m 7.0024,9 4.5,0 -1.5,3 2,0 1,-2.5 1,2.5 2,0 -1.5,-3 -0.5,-1 0.5,-1 1.5,-3 -2,0 -1,2.5 -1,-2.5 -2,0 1.5,3 -4.5,0 z" filter="url(#filter4251)"/><path id="path4187" fill="silver" fill-opacity="1" fill-rule="evenodd" stroke="none" stroke-linecap="butt" stroke-linejoin="miter" stroke-opacity="1" stroke-width="1" d="m 7.0024,5 0,6 -2,0 0,-6 z" filter="url(#filter4201)"/></g></svg>