<svg xmlns="http://www.w3.org/2000/svg" xmlns:svg="http://www.w3.org/2000/svg" id="svg3039" width="16" height="16" version="1.1"><metadata id="metadata3044"/><g id="layer1"><path id="path5628" fill="#e9f5f4" fill-opacity="1" stroke="none" d="m 1,1.1098193 14,0 0,13.9999997 -14,0 z"/><path id="path5630" fill="#becfbc" fill-opacity="1" stroke="none" d="M 1,13.570206 15,13.609819 15,6.1098193 0.9750033,6.057756 z"/><path id="path5626" fill="#e6eecc" fill-opacity="1" stroke="none" d="m 1,15.109819 14,0 0,-4.5 c 0,0 -2.642821,0.340534 -8,-0.7702731 C 1.6428167,8.7287402 1,7.9742153 1,7.9742153 z"/><path id="path5632" fill="#81553a" fill-opacity="1" stroke="none" d="m 3,15.109819 2,0 1.1904761,-9.0009344 -1.1904761,0 z"/><path id="path5634" fill="#465901" fill-opacity="1" stroke="none" d="M 5,6.1088846 C 5,6.1088846 5.5,3.6217769 7,3 8.5,2.3782231 11.745162,2.0337384 11.745162,2.0337384 c 0,0 -3.148094,1.5190468 -4.1592745,2.2098154 C 6.5747066,4.9343226 5.9362904,7.324859 5.9362904,7.324859 z"/><path id="path8607" fill="none" stroke="gray" stroke-dasharray="none" stroke-linecap="round" stroke-linejoin="miter" stroke-miterlimit="4" stroke-opacity="1" stroke-width="1.4" d="m 15.5,3.6098193 0,-3 -15,0 0,14.9999997 15,0 0,-3"/><path id="path5636" fill="#465901" fill-opacity="1" stroke="none" d="m 5,6.1088846 1.1904761,0 c 0,0 -0.7552732,-2.2021104 -1.7857142,-2.9608425 C 3.3743208,2.3893101 0.2380952,2.4078315 0.2380952,2.4078315 c 0,0 2.6048338,1.504853 3.5389211,2.1405939 C 4.7111036,5.1841662 5,6.1088846 5,6.1088846 z"/><path id="path5638" fill="#465901" fill-opacity="1" stroke="none" d="m 5,6.1088846 0.945641,0.8986633 c 0,0 1.5891053,-0.5008076 2.530223,-0.3440788 0.941118,0.1567282 3.272887,1.2427419 3.272887,1.2427419 0,0 -1.663174,-2.5305347 -2.731355,-2.8544424 C 7.9492139,4.7278604 5,6.1088846 5,6.1088846 z"/><path id="path5640" fill="#465901" fill-opacity="1" stroke="none" d="M 5.7229836,6.9166934 6.1904761,6.1088846 c 0,0 -2.1922779,-0.9160931 -3.3903029,-0.6213713 -1.198025,0.2947218 -3.0617517,3.1192951 -3.0617517,3.1192951 0,0 2.569091,-1.4464738 3.5801266,-1.6505018 1.0110356,-0.204028 2.4044355,-0.039615 2.4044355,-0.039615 z"/><path id="path8859" fill="none" stroke="#c04040" stroke-dasharray="none" stroke-linecap="butt" stroke-linejoin="miter" stroke-miterlimit="4" stroke-opacity="1" stroke-width="1.7" d="m 16,8.1098193 -5.5,0"/><path id="path8861" fill="none" stroke="#c04040" stroke-dasharray="none" stroke-linecap="round" stroke-linejoin="miter" stroke-miterlimit="4" stroke-opacity="1" stroke-width="1.5" d="m 12.5,5.6098193 -2,2.5 2,2.4999997"/></g></svg>