<svg xmlns="http://www.w3.org/2000/svg" xmlns:svg="http://www.w3.org/2000/svg" xmlns:xlink="http://www.w3.org/1999/xlink" id="svg2761" width="16" height="16" version="1.0"><metadata id="metadata5782"/><defs id="defs2763"><polygon id="pt" fill="#fff" points="-.162 0 0 -.5 .162 0 -.162 0" transform="scale(0.0616,0.0616)"/><g id="star"><use id="use2767" width="1235" height="650" x="0" y="0" transform="matrix(-0.809017,-0.5877853,0.5877853,-0.809017,0,0)" xlink:href="#pt"/><use id="use2769" width="1235" height="650" x="0" y="0" transform="matrix(0.309017,-0.9510565,0.9510565,0.309017,0,0)" xlink:href="#pt"/><use id="use2771" width="1235" height="650" x="0" y="0" xlink:href="#pt"/><use id="use2773" width="1235" height="650" x="0" y="0" transform="matrix(0.309017,0.9510565,-0.9510565,0.309017,0,0)" xlink:href="#pt"/><use id="use2775" width="1235" height="650" x="0" y="0" transform="matrix(-0.809017,0.5877853,-0.5877853,-0.809017,0,0)" xlink:href="#pt"/></g><g id="s5"><use id="use2778" width="1235" height="650" x="-.252" y="0" xlink:href="#star"/><use id="use2780" width="1235" height="650" x="-.126" y="0" xlink:href="#star"/><use id="use2782" width="1235" height="650" x="0" y="0" xlink:href="#star"/><use id="use2784" width="1235" height="650" x=".126" y="0" xlink:href="#star"/><use id="use2786" width="1235" height="650" x=".252" y="0" xlink:href="#star"/></g><g id="s6"><use id="use2789" width="1235" height="650" x="-.063" y="0" xlink:href="#s5"/><use id="use2791" width="1235" height="650" x=".315" y="0" xlink:href="#star"/></g><g id="x4"><use id="use2794" width="1235" height="650" x="0" y="0" xlink:href="#s6"/><use id="use2796" width="1235" height="650" x="0" y=".054" xlink:href="#s5"/><use id="use2798" width="1235" height="650" x="0" y=".108" xlink:href="#s6"/><use id="use2800" width="1235" height="650" x="0" y=".162" xlink:href="#s5"/></g><g id="u"><use id="use2803" width="1235" height="650" x="0" y="-.216" xlink:href="#x4"/><use id="use2805" width="1235" height="650" x="0" y="0" xlink:href="#x4"/><use id="use2807" width="1235" height="650" x="0" y=".216" xlink:href="#s6"/></g><rect id="stripe" width="1235" height="50" x="0" y="0" fill="#bb133e"/></defs><g id="g5823" opacity=".75" transform="matrix(1,0,0,1.1874985,0,66.43744)"><rect id="rect2810" width="16" height="8.421" x="0" y="-53.421" fill="#fff"/><use id="use2812" width="1235" height="650" x="0" y="0" transform="matrix(0.01295546,0,0,0.01295548,0,-53.42107)" xlink:href="#stripe"/><use id="use2814" width="1235" height="650" x="0" y="100" transform="matrix(0.01295546,0,0,0.01295548,0,-53.42107)" xlink:href="#stripe"/><use id="use2816" width="1235" height="650" x="0" y="200" transform="matrix(0.01295546,0,0,0.01295548,0,-53.42107)" xlink:href="#stripe"/><use id="use2818" width="1235" height="650" x="0" y="300" transform="matrix(0.01295546,0,0,0.01295548,0,-53.42107)" xlink:href="#stripe"/><use id="use2820" width="1235" height="650" x="0" y="400" transform="matrix(0.01295546,0,0,0.01295548,0,-53.42107)" xlink:href="#stripe"/><use id="use2822" width="1235" height="650" x="0" y="500" transform="matrix(0.01295546,0,0,0.01295548,0,-53.42107)" xlink:href="#stripe"/><use id="use2824" width="1235" height="650" x="0" y="600" transform="matrix(0.01295546,0,0,0.01295548,0,-53.42107)" xlink:href="#stripe"/><rect id="rect2826" width="6.4" height="4.534" x="0" y="-53.421" fill="#002664"/><use id="use2828" width="1235" height="650" x="0" y="0" transform="matrix(8.4210525,0,0,8.4210606,3.2,-51.15386)" xlink:href="#u"/></g></svg>