<svg xmlns="http://www.w3.org/2000/svg" xmlns:svg="http://www.w3.org/2000/svg" id="svg3039" width="16" height="16" version="1.1"><defs id="defs3041"><linearGradient id="linearGradient6140"><stop id="stop6142" offset="0" stop-color="gray" stop-opacity="1"/><stop id="stop6144" offset="1" stop-color="#606060" stop-opacity="1"/></linearGradient><filter id="filter6220"><feGaussianBlur id="feGaussianBlur6222" stdDeviation=".186"/></filter></defs><metadata id="metadata3044"/><g id="layer1"><g id="text6107" fill="gray" fill-opacity="1" stroke="gray" stroke-opacity="1" filter="url(#filter6220)" font-family="CMU Serif" font-size="16" font-stretch="normal" font-style="normal" font-variant="normal" font-weight="bold" letter-spacing="0" text-anchor="middle" word-spacing="0" writing-mode="lr-tb" style="text-align:center;line-height:25%;-inkscape-font-specification:Sans Bold"><path id="path6116" fill="gray" fill-opacity="1" stroke="gray" stroke-opacity="1" d="m 4.424,4.08 c 0,0.7679992 0.5920004,1.024 0.992,1.024 0.5119995,0 1.008,-0.3520007 1.008,-1.008 C 6.424,3.3440007 5.736,3.136 5.704,3.12 6.1199996,2.8160003 6.7760007,2.624 7.512,2.624 8.9839985,2.624 9,3.2480007 9,4 9,4.7039993 8.8719997,4.9600003 8.552,5.28 7.560001,6.319999 7.112,7.552001 7.112,8.592 l 0,0.608 c 0,0.3520001 4e-7,0.4320001 0.368,0.4320001 0.3839996,0 0.384,-0.096 0.384,-0.4800001 l 0,-0.432 C 7.864,7.0720016 9.3520006,6.0959996 9.9599997,5.744 10.28,5.5520002 11.048,5.119999 11.048,4.112 11.048,2.0480021 8.1999994,2.048 7.608,2.048 5.3840022,2.048 4.424,3.056001 4.424,4.08"/><path id="path6112" fill="gray" fill-opacity="1" stroke="gray" stroke-opacity="1" d="m 6.4838073,12.745147 c 0,0.687999 0.5440007,1.248 1.248,1.248 0.6719993,0 1.248,-0.560001 1.248,-1.248 0,-0.687999 -0.5760007,-1.248 -1.248,-1.248 -0.7039993,0 -1.248,0.560001 -1.248,1.248"/></g></g></svg>