<svg xmlns="http://www.w3.org/2000/svg" xmlns:svg="http://www.w3.org/2000/svg" id="svg3039" width="16" height="16" version="1.1"><defs id="defs3041"><linearGradient id="linearGradient6140"><stop id="stop6142" offset="0" stop-color="gray" stop-opacity="1"/><stop id="stop6144" offset="1" stop-color="#606060" stop-opacity="1"/></linearGradient><filter id="filter6220"><feGaussianBlur id="feGaussianBlur6222" stdDeviation=".186"/></filter><filter id="filter9043"><feGaussianBlur id="feGaussianBlur9045" stdDeviation=".2"/></filter><filter id="filter9063"><feGaussianBlur id="feGaussianBlur9065" stdDeviation=".2"/></filter></defs><metadata id="metadata3044"/><g id="layer1"><path id="path9010" fill="gray" fill-opacity="1" stroke="#000" stroke-dasharray="none" stroke-linecap="butt" stroke-linejoin="miter" stroke-miterlimit="4" stroke-opacity="1" stroke-width="0" d="M 0,13.5 2.5,16 10,8.5 7.5,6 z" filter="url(#filter9063)"/><path id="path9012" fill="gray" fill-opacity="1" stroke="gray" stroke-dasharray="none" stroke-dashoffset="0" stroke-linecap="square" stroke-linejoin="round" stroke-miterlimit="4" stroke-opacity="1" stroke-width="0" d="M 11 0 C 8.2385763 0 6 2.2385763 6 5 C 6 7.7614237 8.2385763 10 11 10 C 13.761424 10 16 7.7614237 16 5 C 16 4.1320174 15.764059 3.336386 15.375 2.625 L 12.28125 5.78125 C 12.018169 6.2142231 11.543655 6.5 11 6.5 C 10.171573 6.5 9.5 5.8284271 9.5 5 C 9.5 4.5699489 9.6788006 4.1797562 9.96875 3.90625 L 13.25 0.5625 C 12.568826 0.21484497 11.817232 -3.504704e-16 11 0 z" filter="url(#filter9043)"/></g></svg>