<svg xmlns="http://www.w3.org/2000/svg" xmlns:svg="http://www.w3.org/2000/svg" id="svg3039" width="16" height="16" version="1.1"><defs id="defs3041"><linearGradient id="linearGradient6140"><stop id="stop6142" offset="0" stop-color="gray" stop-opacity="1"/><stop id="stop6144" offset="1" stop-color="#606060" stop-opacity="1"/></linearGradient><filter id="filter8061" width="1.088" height="1.088" x="-.044" y="-.044" color-interpolation-filters="sRGB"><feGaussianBlur id="feGaussianBlur8063" stdDeviation=".2"/></filter><filter id="filter8065" width="1.12" height="1.119" x="-.06" y="-.059" color-interpolation-filters="sRGB"><feGaussianBlur id="feGaussianBlur8067" stdDeviation=".2"/></filter><filter id="filter8069" width="1.107" height="1.107" x="-.053" y="-.053" color-interpolation-filters="sRGB"><feGaussianBlur id="feGaussianBlur8071" stdDeviation=".2"/></filter></defs><metadata id="metadata3044"/><g id="layer1"><circle id="path8023" cx="10.5" cy="5.5" r="4.5" fill="#fff" fill-opacity=".253" stroke="#303032" stroke-dasharray="none" stroke-miterlimit="4" stroke-opacity="1" stroke-width="0" filter="url(#filter8069)" opacity="1"/><path id="path9010" fill="gray" fill-opacity="1" stroke="#000" stroke-dasharray="none" stroke-linecap="butt" stroke-linejoin="miter" stroke-miterlimit="4" stroke-opacity="1" stroke-width="0" d="M 0,13.977822 2.0221778,16.06371 8.0250018,9.9971761 6.0028239,7.9749982 Z" filter="url(#filter8065)"/><path id="path8009" fill="gray" fill-opacity="1" stroke="#303032" stroke-dasharray="none" stroke-miterlimit="4" stroke-opacity="1" stroke-width="0" d="M 10.513293,0.03185528 A 5.4778217,5.4618943 0 0 0 5.035471,5.4937495 5.4778217,5.4618943 0 0 0 10.513293,10.955644 5.4778217,5.4618943 0 0 0 15.991115,5.4937495 5.4778217,5.4618943 0 0 0 10.513293,0.03185528 Z m 0,1.09237882 A 4.3822573,4.3695154 0 0 1 14.89555,5.4937495 4.3822573,4.3695154 0 0 1 10.513293,9.863265 4.3822573,4.3695154 0 0 1 6.1310353,5.4937495 4.3822573,4.3695154 0 0 1 10.513293,1.1242341 Z" filter="url(#filter8061)" opacity="1"/></g></svg>