<svg xmlns="http://www.w3.org/2000/svg" xmlns:svg="http://www.w3.org/2000/svg" id="svg2494" width="16" height="16" version="1.0" viewBox="0 0 1.688 1.125"><metadata id="metadata5261"/><rect id="rect2496" width="1.695" height="1.05" x="-.002" y=".035" fill="navy"/><path id="path2498" fill="#fff" d="m 0.24955716,0.03461867 0.12556008,0 0,0.23331016 0.25112019,0 0,0.1166554 -0.25112019,0 0,0.23331016 1.31838096,0 0,0.11665541 -1.69506123,0 0,-0.11665541 0.25112019,0 0,-0.23331016 -0.25112019,0 0,-0.1166554 0.25112019,0 0,-0.23331016 z m 0.37668027,0.11665539 1.06726077,0 0,0.11665477 -1.06726077,0 0,-0.11665477 z m 0,0.23331017 1.06726077,0 0,0.11665539 -1.06726077,0 0,-0.11665539 z m -0.62780046,0.23331016 0,0.11665541 0,-0.11665541 z m 0,0.23331086 1.69506123,0 0,0.11665475 -1.69506123,0 0,-0.11665475 z"/><rect id="rect5829" width="1.688" height="1.053" x="0" y=".033" fill="#fff" fill-opacity=".251" opacity="1"/></svg>