<svg xmlns="http://www.w3.org/2000/svg" xmlns:svg="http://www.w3.org/2000/svg" xmlns:xlink="http://www.w3.org/1999/xlink" id="svg6159" width="16" height="16" version="1.0" viewBox="-72 -48 9 6"><metadata id="metadata12231"/><defs id="defs6161"><rect id="b1" width="24" height="4" x="-12" y="-2"/><g id="b2"><rect id="rect6165" width="11" height="4" x="-12" y="-2"/><rect id="rect6167" width="11" height="4" x="1" y="-2"/></g></defs><g id="g12276" opacity=".75" transform="matrix(0.0625,0,0,0.05859375,-67.5,-45)"><rect id="rect6169" width="144" height="96" x="-72" y="-48" fill="#fff"/><g id="g6171" transform="matrix(0.5546992,0.8320509,-0.8320509,0.5546992,0,0)"><use id="use6173" width="144" height="96" x="0" y="0" transform="translate(0,-38)" xlink:href="#b2"/><use id="use6175" width="144" height="96" x="0" y="0" transform="translate(0,-44)" xlink:href="#b1"/><use id="use6177" width="144" height="96" x="0" y="0" transform="translate(0,-50)" xlink:href="#b2"/><use id="use6179" width="144" height="96" x="0" y="0" transform="translate(0,38)" xlink:href="#b1"/><use id="use6181" width="144" height="96" x="0" y="0" transform="translate(0,44)" xlink:href="#b2"/><use id="use6183" width="144" height="96" x="0" y="0" transform="translate(0,50)" xlink:href="#b1"/></g><g id="g6185" transform="matrix(0.5546992,-0.8320509,0.8320509,0.5546992,0,0)"><use id="use6187" width="144" height="96" x="0" y="0" transform="translate(0,-38)" xlink:href="#b1"/><use id="use6189" width="144" height="96" x="0" y="0" transform="translate(0,-44)" xlink:href="#b1"/><use id="use6191" width="144" height="96" x="0" y="0" transform="translate(0,-50)" xlink:href="#b1"/><use id="use6193" width="144" height="96" x="0" y="0" transform="translate(0,38)" xlink:href="#b2"/><use id="use6195" width="144" height="96" x="0" y="0" transform="translate(0,44)" xlink:href="#b2"/><use id="use6197" width="144" height="96" x="0" y="0" transform="translate(0,50)" xlink:href="#b2"/><path id="path6199" fill="#c60c30" d="M 0,24 C 13.254834,24 24,13.254834 24,0 24,-13.254834 13.254834,-24 0,-24 c -9.9411255,0 -18,8.058875 -18,18 0,9.9411255 8.0588745,18 18,18"/><path id="path6201" fill="#003478" d="m 0,-24 c -6.627417,0 -12,5.372583 -12,12 0,6.627417 5.372583,12 12,12 6.627417,0 12,5.372583 12,12 0,6.627417 -5.372583,12 -12,12 -13.254834,0 -24,-10.745166 -24,-24 0,-13.254834 10.745166,-24 24,-24"/></g></g></svg>