<svg xmlns="http://www.w3.org/2000/svg" xmlns:svg="http://www.w3.org/2000/svg" id="svg3039" width="16" height="16" version="1.1"><defs id="defs3041"><linearGradient id="linearGradient6140"><stop id="stop6142" offset="0" stop-color="gray" stop-opacity="1"/><stop id="stop6144" offset="1" stop-color="#606060" stop-opacity="1"/></linearGradient><filter id="filter5312" width="1.535" height="1.422" x="-.268" y="-.211"><feGaussianBlur id="feGaussianBlur5314" stdDeviation=".185"/></filter><filter id="filter5316" width="1.268" height="1.176" x="-.134" y="-.088"><feGaussianBlur id="feGaussianBlur5318" stdDeviation=".185"/></filter><filter id="filter5320" width="1.268" height="1.176" x="-.134" y="-.088"><feGaussianBlur id="feGaussianBlur5322" stdDeviation=".185"/></filter><filter id="filter5372" width="1.543" height="1.44" x="-.271" y="-.22"><feGaussianBlur id="feGaussianBlur5374" stdDeviation=".184"/></filter><filter id="filter5376" width="1.266" height="1.175" x="-.133" y="-.088"><feGaussianBlur id="feGaussianBlur5378" stdDeviation=".184"/></filter><filter id="filter5380" width="1.266" height="1.175" x="-.133" y="-.088"><feGaussianBlur id="feGaussianBlur5382" stdDeviation=".184"/></filter></defs><metadata id="metadata3044"/><g id="layer1"><g id="text5186" fill="#404040" fill-opacity="1" stroke="none" filter="url(#filter5320)" font-family="CMU Sans Serif" font-size="12" font-stretch="normal" font-style="normal" font-variant="normal" font-weight="bold" letter-spacing="0" text-anchor="middle" transform="translate(-6.2753976,1.5290309)" word-spacing="0" writing-mode="lr-tb" style="text-align:center;line-height:25%;-inkscape-font-specification:Sans"><path id="path5227" fill="#404040" fill-opacity="1" d="M 8.125,8.96875 6.5,9 c 0.1901151,1.914852 0.9218467,3.51473 2.03125,4.5625 C 8.9512495,13.958499 8.9787502,14 9.21875,14 l 0.375,0 c 0.1799998,0 0.21875,-0.09625 0.21875,-0.15625 0,-0.343179 -1.4627901,-1.180393 -1.6875,-4.875 z"/></g><g id="g5230" fill="#404040" fill-opacity="1" stroke="none" filter="url(#filter5380)" font-family="CMU Sans Serif" font-size="12" font-stretch="normal" font-style="normal" font-variant="normal" font-weight="bold" letter-spacing="0" text-anchor="middle" transform="matrix(-1,0,0,1,22.333059,1.5290309)" word-spacing="0" writing-mode="lr-tb" style="text-align:center;line-height:25%;-inkscape-font-specification:Sans"><path id="path5232" fill="#404040" fill-opacity="1" d="M 8.125,8.96875 6.5,9 c 0.1901151,1.914852 0.9218467,3.51473 2.03125,4.5625 C 8.9512495,13.958499 8.9787502,14 9.21875,14 l 0.375,0 c 0.1799998,0 0.21875,-0.09625 0.21875,-0.15625 0,-0.343179 -1.4627901,-1.180393 -1.6875,-4.875 z"/></g><g id="g5234" fill="#404040" fill-opacity="1" stroke="none" filter="url(#filter5316)" font-family="CMU Sans Serif" font-size="12" font-stretch="normal" font-style="normal" font-variant="normal" font-weight="bold" letter-spacing="0" text-anchor="middle" transform="matrix(1,0,0,-1,-6.2435428,14.431661)" word-spacing="0" writing-mode="lr-tb" style="text-align:center;line-height:25%;-inkscape-font-specification:Sans"><path id="path5236" fill="#404040" fill-opacity="1" d="M 8.125,8.96875 6.5,9 c 0.1901151,1.914852 0.9218467,3.51473 2.03125,4.5625 C 8.9512495,13.958499 8.9787502,14 9.21875,14 l 0.375,0 c 0.1799998,0 0.21875,-0.09625 0.21875,-0.15625 0,-0.343179 -1.4627901,-1.180393 -1.6875,-4.875 z"/></g><g id="g5238" fill="#404040" fill-opacity="1" stroke="none" filter="url(#filter5376)" font-family="CMU Sans Serif" font-size="12" font-stretch="normal" font-style="normal" font-variant="normal" font-weight="bold" letter-spacing="0" text-anchor="middle" transform="matrix(-1,0,0,-1,22.364914,14.49537)" word-spacing="0" writing-mode="lr-tb" style="text-align:center;line-height:25%;-inkscape-font-specification:Sans"><path id="path5240" fill="#404040" fill-opacity="1" d="M 8.125,8.96875 6.5,9 c 0.1901151,1.914852 0.9218467,3.51473 2.03125,4.5625 C 8.9512495,13.958499 8.9787502,14 9.21875,14 l 0.375,0 c 0.1799998,0 0.21875,-0.09625 0.21875,-0.15625 0,-0.343179 -1.4627901,-1.180393 -1.6875,-4.875 z"/></g><path id="path5242" fill="#404040" fill-opacity="1" stroke="none" d="m 0.19112884,6.921379 1.65645016,0 0,2.1024175 -1.65645016,0 z" filter="url(#filter5312)"/><path id="path5244" fill="#404040" fill-opacity="1" stroke="none" d="m 14.207245,6.9850886 1.624595,2e-7 0,2.0068531 -1.624595,2e-7 z" filter="url(#filter5372)"/><path id="path5246" fill="none" stroke="#404040" stroke-dasharray="none" stroke-linecap="round" stroke-linejoin="miter" stroke-miterlimit="4" stroke-opacity="1" stroke-width="1.5" d="m 4.4596734,8.0044426 7.1673326,0"/><path id="path5248" fill="silver" fill-opacity="1" stroke="none" stroke-linecap="butt" stroke-linejoin="miter" stroke-opacity="1" stroke-width="1" d="m 5,2 0,3 6,0 0,-3 z"/><path id="path5250" fill="silver" fill-opacity="1" stroke="none" d="m 5,11 0,3 6,0 0,-3 z"/></g></svg>