<svg xmlns="http://www.w3.org/2000/svg" xmlns:svg="http://www.w3.org/2000/svg" id="svg3039" width="16" height="16" version="1.1"><defs id="defs3041"><linearGradient id="linearGradient6140"><stop id="stop6142" offset="0" stop-color="gray" stop-opacity="1"/><stop id="stop6144" offset="1" stop-color="#606060" stop-opacity="1"/></linearGradient><filter id="filter4223" width="1.088" height="1.668" x="-.044" y="-.334"><feGaussianBlur id="feGaussianBlur4225" stdDeviation=".285"/></filter><filter id="filter4227" width="1.088" height="1.684" x="-.044" y="-.342"><feGaussianBlur id="feGaussianBlur4229" stdDeviation=".285"/></filter><filter id="filter4231"><feGaussianBlur id="feGaussianBlur4233" stdDeviation=".285"/></filter><filter id="filter4235" width="1.244" height="1.143" x="-.122" y="-.071"><feGaussianBlur id="feGaussianBlur4237" stdDeviation=".285"/></filter></defs><metadata id="metadata3044"/><g id="layer1"><text id="text6288" x="4.91" y="11.456" fill="#606060" fill-opacity="1" stroke="#606060" stroke-dasharray="none" stroke-miterlimit="4" stroke-opacity="1" stroke-width=".567" filter="url(#filter4235)" font-family="CMU Serif" font-size="13.302" font-stretch="normal" font-style="normal" font-variant="normal" font-weight="bold" letter-spacing="0" text-anchor="middle" transform="scale(0.81788469,1.2226662)" word-spacing="0" writing-mode="lr-tb" xml:space="preserve" style="text-align:center;line-height:25%;-inkscape-font-specification:Sans Bold"><tspan id="tspan6290" x="4.91" y="11.456" fill="#606060" fill-opacity="1" stroke="#606060" stroke-opacity="1" stroke-width=".567">I</tspan></text><text id="text6292" x="12.227" y="11.456" fill="#606060" fill-opacity="1" stroke="#606060" stroke-dasharray="none" stroke-miterlimit="4" stroke-opacity="1" stroke-width=".567" filter="url(#filter4231)" font-family="CMU Serif" font-size="13.302" font-stretch="normal" font-style="normal" font-variant="normal" font-weight="bold" letter-spacing="0" text-anchor="middle" transform="scale(0.81788469,1.2226662)" word-spacing="0" writing-mode="lr-tb" xml:space="preserve" style="text-align:center;line-height:25%;-inkscape-font-specification:Sans Bold"><tspan id="tspan6294" x="12.227" y="11.456" fill="#606060" fill-opacity="1" stroke="#606060" stroke-opacity="1" stroke-width=".567">V</tspan></text><path id="path6298" fill="#606060" fill-opacity="1" stroke="none" d="M 1,13 C -4e-8,13 -4e-8,15 1,15 c 1,0 13,0 14,0 1,0 1,-2 0,-2 -1,0 -13,0 -14,0 z" filter="url(#filter4227)"/><path id="path6300" fill="#606060" fill-opacity="1" stroke="none" d="m 1.0017528,2.0481437 c -1.00000004,0 -1.00000004,2 0,2 C 2.0017528,4.0481437 14,4 15,4 16,4 16,2 15,2 14,2 2.0017528,2.0481437 1.0017528,2.0481437 z" filter="url(#filter4223)"/></g></svg>