<svg xmlns="http://www.w3.org/2000/svg" xmlns:svg="http://www.w3.org/2000/svg" id="svg3039" width="16" height="16" version="1.1"><metadata id="metadata3044"/><g id="layer1"><g id="text3442" fill="#000" fill-opacity="1" stroke="none" font-family="Latin Modern Math" font-size="16.054" font-stretch="normal" font-style="normal" font-variant="normal" font-weight="normal" letter-spacing="0" text-anchor="middle" transform="matrix(0.89999031,0,0,0.86507622,0.6134794,2.8126719)" word-spacing="0" writing-mode="lr-tb" style="text-align:center;line-height:25%;-inkscape-font-specification:Latin Modern Math"><path id="path3968" d="m 16.004955,-1.4840891 c 0.03379,-0.2243475 -0.19808,-0.4920974 -0.486244,-0.4945799 -0.851254,-0.00733 -1.343149,0.025725 -2.390489,0.021975 -2.094681,-0.00751 -2.344225,-0.047339 -2.440551,-0.047339 -0.192653,0 -0.375965,0.067332 -0.472292,0.2599851 L 5.4740969,12.364701 2.616404,6.0713544 C 2.5521862,5.9429189 2.5200771,5.8465921 2.4076961,5.8465921 c -0.048163,0 -0.080272,1e-7 -0.2247624,0.1284356 L 0.59354268,7.1791118 c -0.17659883,0.14449 -0.19265346,0.1605446 -0.19265346,0.2247624 0,0.1123811 0.0642179,0.176599 0.16054455,0.176599 0.0481633,0 0.0802724,-1e-7 0.22476236,-0.1284356 L 1.6210278,6.8259138 4.777285,13.696978 c 0.096327,0.224762 0.2635845,0.35344 0.4401833,0.35344 0.256871,0 0.3790793,-0.154319 0.4914603,-0.395133 L 10.642136,-1.004576 c 0,0 0.390943,-0.020005 2.245162,-0.019075 0.927109,4.65e-4 1.692296,0.00158 2.666371,-3.091e-4 0.433481,-8.421e-4 0.473813,-0.1866573 0.428765,-0.4601306"/></g><path id="path3978" fill="#8080ff" fill-opacity="1" stroke="#4040c0" stroke-dasharray="none" stroke-linecap="butt" stroke-linejoin="round" stroke-miterlimit="4" stroke-opacity="1" stroke-width=".5" d="m 1.4858805,1.4971719 3,0 0,4.9903272 -3,0 z"/></g></svg>