<svg xmlns="http://www.w3.org/2000/svg" xmlns:svg="http://www.w3.org/2000/svg" id="svg3039" width="16" height="16" version="1.1"><defs id="defs3041"><linearGradient id="linearGradient6140"><stop id="stop6142" offset="0" stop-color="gray" stop-opacity="1"/><stop id="stop6144" offset="1" stop-color="#606060" stop-opacity="1"/></linearGradient></defs><metadata id="metadata3044"/><g id="layer1"><rect id="rect3905" width="16" height="1" x="0" y="4" fill="silver" fill-opacity="1" stroke="silver" stroke-dasharray="none" stroke-linecap="round" stroke-linejoin="round" stroke-miterlimit="4" stroke-opacity="1" stroke-width="0"/><rect id="rect3907" width="16" height="1" x="0" y="11" fill="silver" fill-opacity="1" stroke="silver" stroke-dasharray="none" stroke-linecap="round" stroke-linejoin="round" stroke-miterlimit="4" stroke-opacity="1" stroke-width="0"/><rect id="rect3913" width="16" height="1" x="0" y="-5" fill="silver" fill-opacity="1" stroke="silver" stroke-dasharray="none" stroke-linecap="round" stroke-linejoin="round" stroke-miterlimit="4" stroke-opacity="1" stroke-width="0" transform="matrix(0,1,-1,0,0,0)"/><rect id="rect3915" width="16" height="1" x="0" y="-12" fill="silver" fill-opacity="1" stroke="silver" stroke-dasharray="none" stroke-linecap="round" stroke-linejoin="round" stroke-miterlimit="4" stroke-opacity="1" stroke-width="0" transform="matrix(0,1,-1,0,0,0)"/><path id="path3942" fill="none" stroke="gray" stroke-linecap="butt" stroke-linejoin="miter" stroke-opacity="1" stroke-width="1" d="m -0.5,14.5 c 0,0 2,-3 3,-4.5 1,-1.5 4.4188612,-5 6,-5 1.5,0 2.5,1 3.5,2.5 1,1.5 4.462152,7.345854 5.5,5"/><path id="path3921" fill="#c04040" fill-opacity="1" stroke="#c04040" stroke-dasharray="none" stroke-linecap="butt" stroke-linejoin="round" stroke-miterlimit="4" stroke-opacity="1" stroke-width=".5" d="M 4,4 5,4 5,7 8,7 8,8 5,8 5,11 4,11 4,8 1,8 1,7 4,7 z"/></g></svg>