<svg xmlns="http://www.w3.org/2000/svg" xmlns:svg="http://www.w3.org/2000/svg" id="svg3039" width="16" height="16" version="1.1"><defs id="defs3041"><linearGradient id="linearGradient6140"><stop id="stop6142" offset="0" stop-color="gray" stop-opacity="1"/><stop id="stop6144" offset="1" stop-color="#606060" stop-opacity="1"/></linearGradient></defs><metadata id="metadata3044"/><g id="layer1"><path id="path4044" fill="none" stroke="gray" stroke-linecap="butt" stroke-linejoin="miter" stroke-opacity="1" stroke-width="1" d="m -1.5,2 c 0,0 4.1789254,0.4451954 6.5,1.5 2.4886127,1.1309417 5.315924,3.3468368 7,5.5 1.793227,2.292718 4,7.5 4,7.5"/><path id="path4067" fill="none" stroke="silver" stroke-linecap="butt" stroke-linejoin="miter" stroke-opacity="1" stroke-width="1" d="m -3.5,4.5 c 0,0 4.1789254,0.4451954 6.5,1.5 2.4886127,1.1309417 5.315924,3.3468368 7,5.5 1.793227,2.292718 4,7.5 4,7.5"/><path id="path4069" fill="none" stroke="silver" stroke-linecap="butt" stroke-linejoin="miter" stroke-opacity="1" stroke-width="1" d="m 0.5,-0.5 c 0,0 4.1789254,0.4451954 6.5,1.5 2.4886127,1.1309417 5.315924,3.3468368 7,5.5 1.793227,2.292718 4,7.5 4,7.5"/><path id="path3921" fill="#c04040" fill-opacity="1" stroke="#c04040" stroke-dasharray="none" stroke-linecap="butt" stroke-linejoin="round" stroke-miterlimit="4" stroke-opacity="1" stroke-width=".5" d="M 5,4 6,4 6,7 9,7 9,8 6,8 6,11 5,11 5,8 2,8 2,7 5,7 z"/></g></svg>