<svg xmlns="http://www.w3.org/2000/svg" xmlns:svg="http://www.w3.org/2000/svg" id="svg3039" width="16" height="16" version="1.1"><defs id="defs3041"><linearGradient id="linearGradient6140"><stop id="stop6142" offset="0" stop-color="gray" stop-opacity="1"/><stop id="stop6144" offset="1" stop-color="#606060" stop-opacity="1"/></linearGradient><filter id="filter8219" width="1.192" height="1.32" x="-.096" y="-.16"><feGaussianBlur id="feGaussianBlur8221" stdDeviation=".4"/></filter><filter id="filter8275" width="1.15" height="1.6" x="-.075" y="-.3"><feGaussianBlur id="feGaussianBlur8277" stdDeviation=".375"/></filter></defs><metadata id="metadata3044"/><g id="layer1"><path id="path6257" fill="gray" fill-opacity="1" stroke="gray" stroke-dasharray="none" stroke-linecap="butt" stroke-linejoin="round" stroke-miterlimit="4" stroke-opacity="1" stroke-width="2" d="M 3,11 13,11 8,5 z" filter="url(#filter8219)" transform="matrix(0.0019754,-0.99999805,-0.99999805,-0.0019754,14.043984,16.009861)"/><path font-size="medium" style="text-indent:0;text-align:start;line-height:normal;text-transform:none;block-progression:tb;marker:none;-inkscape-font-specification:Sans" id="path6464" fill="gray" fill-opacity="1" fill-rule="nonzero" stroke="none" stroke-width="2" d="M 3,0 C 2.4764012,0.024544 1.9754563,0.976401 2,1.5 2.024544,2.023599 2.4764012,3.024544 3,3 L 13,3 C 13.528313,3.0075 14,2.028365 14,1.5 14,0.971635 13.528313,-0.007472 13,0 L 3,0 C 2.968773,-0.0015 3.031227,-0.0015 3,0 z" baseline-shift="baseline" color="#000" direction="ltr" display="inline" enable-background="accumulate" filter="url(#filter8275)" font-family="Sans" font-stretch="normal" font-style="normal" font-variant="normal" font-weight="normal" letter-spacing="normal" overflow="visible" text-anchor="start" text-decoration="none" transform="matrix(0.0019754,-0.99999805,-0.99999805,-0.0019754,14.043984,16.009861)" visibility="visible" word-spacing="normal" writing-mode="lr-tb"/></g></svg>