<svg xmlns="http://www.w3.org/2000/svg" xmlns:svg="http://www.w3.org/2000/svg" id="svg3039" width="16" height="16" version="1.1"><defs id="defs3041"><linearGradient id="linearGradient6140"><stop id="stop6142" offset="0" stop-color="gray" stop-opacity="1"/><stop id="stop6144" offset="1" stop-color="#606060" stop-opacity="1"/></linearGradient></defs><metadata id="metadata3044"/><g id="layer1"><text id="text4130" x="2.73" y="11.976" fill="#606060" fill-opacity="1" stroke="none" font-family="Baskerville" font-size="11.976" font-stretch="normal" font-style="normal" font-variant="normal" font-weight="bold" letter-spacing="0" transform="scale(0.99799482,1.0020092)" word-spacing="0" xml:space="preserve" style="line-height:125%;-inkscape-font-specification:Baskerville Bold"><tspan id="tspan4132" x="2.73" y="11.976">T</tspan></text><path id="path4172" fill="none" stroke="silver" stroke-dasharray="none" stroke-linecap="round" stroke-linejoin="round" stroke-miterlimit="4" stroke-opacity="1" stroke-width="1" d="m 2,2.5 a 0.5,0.5 0 1 1 -1,0 0.5,0.5 0 1 1 1,0 z"/><path id="path4174" fill="none" stroke="silver" stroke-dasharray="none" stroke-linecap="round" stroke-linejoin="round" stroke-miterlimit="4" stroke-opacity="1" stroke-width="1" d="m 7.5,2.5 a 0.5,0.5 0 1 1 -1,0 0.5,0.5 0 1 1 1,0 z"/><path id="path4176" fill="none" stroke="silver" stroke-dasharray="none" stroke-linecap="round" stroke-linejoin="round" stroke-miterlimit="4" stroke-opacity="1" stroke-width="1" d="m 13,2.5 a 0.5,0.5 0 1 1 -1,0 0.5,0.5 0 1 1 1,0 z"/><path id="path4180" fill="none" stroke="silver" stroke-dasharray="none" stroke-linecap="round" stroke-linejoin="round" stroke-miterlimit="4" stroke-opacity="1" stroke-width="1" d="m 2,13.5 a 0.5,0.5 0 1 1 -1,0 0.5,0.5 0 1 1 1,0 z"/><path id="path4182" fill="none" stroke="silver" stroke-dasharray="none" stroke-linecap="round" stroke-linejoin="round" stroke-miterlimit="4" stroke-opacity="1" stroke-width="1" d="m 7.5,13.5 a 0.5,0.5 0 1 1 -1,0 0.5,0.5 0 1 1 1,0 z"/><path id="path4184" fill="none" stroke="silver" stroke-dasharray="none" stroke-linecap="round" stroke-linejoin="round" stroke-miterlimit="4" stroke-opacity="1" stroke-width="1" d="M 2,8 A 0.5,0.5 0 1 1 1,8 0.5,0.5 0 1 1 2,8 z"/><path id="path4186" fill="none" stroke="silver" stroke-dasharray="none" stroke-linecap="round" stroke-linejoin="round" stroke-miterlimit="4" stroke-opacity="1" stroke-width="1" d="M 2,8 A 0.5,0.5 0 1 1 1,8 0.5,0.5 0 1 1 2,8 z" transform="translate(11,0)"/><path id="path3921" fill="#c04040" fill-opacity="1" stroke="#c04040" stroke-dasharray="none" stroke-linecap="butt" stroke-linejoin="round" stroke-miterlimit="4" stroke-opacity="1" stroke-width=".5" d="m 12,4.5 1,0 0,3 3,0 0,1 -3,0 0,3 -1,0 0,-3 -3,0 0,-1 3,0 z"/><path id="path4188" fill="none" stroke="silver" stroke-dasharray="none" stroke-linecap="round" stroke-linejoin="round" stroke-miterlimit="4" stroke-opacity="1" stroke-width="1" d="M 2,8 A 0.5,0.5 0 1 1 1,8 0.5,0.5 0 1 1 2,8 z" transform="translate(11,5.5)"/></g></svg>