<svg xmlns="http://www.w3.org/2000/svg" xmlns:svg="http://www.w3.org/2000/svg" id="svg3039" width="16" height="16" version="1.1"><defs id="defs3041"><linearGradient id="linearGradient6140"><stop id="stop6142" offset="0" stop-color="gray" stop-opacity="1"/><stop id="stop6144" offset="1" stop-color="#606060" stop-opacity="1"/></linearGradient></defs><metadata id="metadata3044"/><g id="layer1"><path id="path4044" fill="none" stroke="gray" stroke-linecap="butt" stroke-linejoin="miter" stroke-opacity="1" stroke-width="1" d="m -1.5,2 c 0,0 4.1789254,0.4451954 6.5,1.5 2.4886127,1.1309417 5.315924,3.3468368 7,5.5 1.793227,2.292718 4,7.5 4,7.5"/><path id="path4046" fill="none" stroke="gray" stroke-linecap="butt" stroke-linejoin="miter" stroke-opacity="1" stroke-width="1" d="M 4.5,17.5 C 4.5,17.5 4.0466558,13.317091 5,11 6.258762,7.9405944 8.7920898,4.9004386 11.5,3 13.400146,1.6664583 18,0 18,0"/><path id="path3921" fill="#c04040" fill-opacity="1" stroke="#c04040" stroke-dasharray="none" stroke-linecap="butt" stroke-linejoin="round" stroke-miterlimit="4" stroke-opacity="1" stroke-width=".5" d="M 8,2 9,2 9,5 12,5 12,6 9,6 9,9 8,9 8,6 5,6 5,5 8,5 z"/></g></svg>