<svg xmlns="http://www.w3.org/2000/svg" xmlns:svg="http://www.w3.org/2000/svg" xmlns:xlink="http://www.w3.org/1999/xlink" id="svg2544" width="16" height="16" version="1.0" viewBox="-60 -40 15 10"><metadata id="metadata35571"/><g id="g35602" opacity=".75" transform="matrix(0.0625,0,0,0.05859375,-56.25,-37.34375)"><rect id="rect2546" width="240" height="160" x="-60" y="-40" fill="#fe0000"/><rect id="rect2548" width="120" height="80" x="-60" y="-40" fill="#000095"/><path id="four_rays" fill="#fff" d="M 8,0 0,30 -8,0 0,-30 M 0,8 30,0 0,-8 -30,0"/><use id="use2551" width="240" height="160" x="0" y="0" transform="matrix(0.8660254,0.5,-0.5,0.8660254,0,0)" xlink:href="#four_rays"/><use id="use2553" width="240" height="160" x="0" y="0" transform="matrix(0.5,0.8660254,-0.8660254,0.5,0,0)" xlink:href="#four_rays"/><circle id="circle2555" cx="0" cy="0" r="17" fill="#000095" d="M 17,0 C 17,9.3888407 9.3888407,17 0,17 -9.3888407,17 -17,9.3888407 -17,0 c 0,-9.3888407 7.6111593,-17 17,-17 9.3888407,0 17,7.6111593 17,17 z"/><circle id="circle2557" cx="0" cy="0" r="15" fill="#fff" d="M 15,0 C 15,8.2842712 8.2842712,15 0,15 -8.2842712,15 -15,8.2842712 -15,0 c 0,-8.2842712 6.7157288,-15 15,-15 8.2842712,0 15,6.7157288 15,15 z"/></g></svg>