<svg xmlns="http://www.w3.org/2000/svg" xmlns:svg="http://www.w3.org/2000/svg" id="svg3039" width="16" height="16" version="1.1"><metadata id="metadata3044"/><g id="layer1"><path id="path3977" fill="none" stroke="#404040" stroke-dasharray="none" stroke-linecap="round" stroke-linejoin="miter" stroke-miterlimit="4" stroke-opacity="1" stroke-width="1.5" d="m 0,0.5 16,0"/><path id="path3979" fill="none" stroke="#404040" stroke-dasharray="none" stroke-linecap="round" stroke-linejoin="miter" stroke-miterlimit="4" stroke-opacity="1" stroke-width="1.5" d="m 0,2.5 16,0"/><path id="path3981" fill="#f8f8f8" fill-opacity="1" stroke="none" stroke-linecap="butt" stroke-linejoin="miter" stroke-opacity="1" stroke-width="1" d="M 0,5 16,5 16,16 0,16 z"/><path id="path3983" fill="none" stroke="#a0a1a0" stroke-linecap="butt" stroke-linejoin="miter" stroke-opacity="1" stroke-width="1" d="m 0.5,5.5 15,0 0,10 -15,0 z"/><path id="path3987" fill="none" stroke="#a0a0a0" stroke-linecap="butt" stroke-linejoin="miter" stroke-opacity="1" stroke-width="1" d="m 0.5,8.5 15,0"/><path id="path3989" fill="none" stroke="#a0a0a0" stroke-linecap="butt" stroke-linejoin="miter" stroke-opacity="1" stroke-width="1" d="M 5.5,5.5 5.5,16"/><path id="path3991" fill="none" stroke="#a0a0a0" stroke-linecap="butt" stroke-linejoin="miter" stroke-opacity="1" stroke-width="1" d="m 10.5,5.5 0,10.5"/><path id="path3993" fill="none" stroke="#a0a0a0" stroke-linecap="butt" stroke-linejoin="miter" stroke-opacity="1" stroke-width="1" d="m 0.5,12.5 15,0"/><path id="path3995" fill="#5f60c0" fill-opacity="1" stroke="none" d="m 0,15 2,0 0,-2 9,0 0,3 5,-4 -5,-4 0,3 -9,0 0,-2 -2,0 z"/></g></svg>