<svg xmlns="http://www.w3.org/2000/svg" xmlns:svg="http://www.w3.org/2000/svg" id="svg5375" width="32" height="32" version="1.1"><metadata id="metadata5380"/><g id="layer1" transform="translate(0,8)"><path id="path3844" fill="#fff" fill-opacity="1" stroke="#909090" stroke-linecap="butt" stroke-linejoin="miter" stroke-opacity="1" stroke-width="1" d="m 2.5,0.5 0,27 21,0 0,-27 z" transform="translate(0,-8)"/><path id="path3846" fill="silver" fill-opacity="1" stroke="silver" stroke-linecap="butt" stroke-linejoin="miter" stroke-opacity="1" stroke-width="1" d="m 3.5,1.5 0,2 19,0 0,-2 z" transform="translate(0,-8)"/><path id="path3848" fill="#e0e0e0" fill-opacity="1" stroke="#e0e0e0" stroke-linecap="butt" stroke-linejoin="miter" stroke-opacity="1" stroke-width="1" d="m 3.5,-3.5 0,2 19,0 0,-2 z"/><path id="path3854" fill="none" stroke="#e0e0e0" stroke-linecap="butt" stroke-linejoin="miter" stroke-opacity="1" stroke-width="1" d="m 3.5,17.5 0,1 19,0 0,-1 z"/><path id="path3873" fill="#e0e0e0" fill-opacity="1" stroke="#e0e0e0" stroke-linecap="butt" stroke-linejoin="miter" stroke-opacity="1" stroke-width="1" d="m 13.5,12.5 0,10 17,0 0,-10 z"/><path id="path3875" fill="silver" fill-opacity="1" stroke="silver" stroke-linecap="butt" stroke-linejoin="miter" stroke-opacity="1" stroke-width="1" d="m 13.5,12.5 0,1 17,0 0,-1 z"/><path id="path3887" fill="none" stroke="#fff" stroke-linecap="butt" stroke-linejoin="miter" stroke-opacity="1" stroke-width="1" d="m 15,16.5 14,0"/><path id="path3889" fill="none" stroke="#fff" stroke-linecap="butt" stroke-linejoin="miter" stroke-opacity="1" stroke-width="1" d="m 15,18.5 14,0"/><path id="path3891" fill="none" stroke="#fff" stroke-linecap="butt" stroke-linejoin="miter" stroke-opacity="1" stroke-width="1" d="m 15,20.5 14,0"/><path id="path4289" fill="none" stroke="#90908f" stroke-linecap="butt" stroke-linejoin="miter" stroke-opacity="1" stroke-width="1" d="m 12.5,19.5 0,12 19,0 0,-12 z" transform="translate(0,-8)"/></g></svg>