<svg xmlns="http://www.w3.org/2000/svg" xmlns:svg="http://www.w3.org/2000/svg" id="svg5375" width="32" height="32" version="1.1"><metadata id="metadata5380"/><g id="layer1" transform="translate(0,8)"><path id="path5076" fill="#b8b0a0" fill-opacity="1" stroke="#d8d8c0" stroke-linecap="butt" stroke-linejoin="round" stroke-opacity="1" stroke-width=".831" d="M 0.5,13.5 4,21.5 32,14 28.038311,5.1486332 z"/><path id="path4510" fill="#b8b8a0" fill-opacity="1" stroke="#909070" stroke-linecap="butt" stroke-linejoin="round" stroke-opacity="1" stroke-width=".831" d="M 0.42881301,12.56539 4.1194709,20.879349 31.728969,13.462592 28.038311,5.1486332 z"/><path id="path4514" fill="none" stroke="#d8d8c0" stroke-dasharray="none" stroke-linecap="butt" stroke-linejoin="miter" stroke-miterlimit="4" stroke-opacity="1" stroke-width="1.039" d="M 2.687421,14.285004 20.5,9.5"/><path id="path4516" fill="none" stroke="#d8d8c0" stroke-dasharray="none" stroke-linecap="butt" stroke-linejoin="miter" stroke-miterlimit="4" stroke-opacity="1" stroke-width="1.039" d="M 3.3025306,15.670664 21.11511,10.88566"/><path id="path4518" fill="none" stroke="#d8d8c0" stroke-dasharray="none" stroke-linecap="butt" stroke-linejoin="miter" stroke-miterlimit="4" stroke-opacity="1" stroke-width="1.039" d="M 3.9176402,17.056324 21.730219,12.271319"/><path id="path4520" fill="none" stroke="#d8d8c0" stroke-dasharray="none" stroke-linecap="butt" stroke-linejoin="miter" stroke-miterlimit="4" stroke-opacity="1" stroke-width="1.039" d="M 4.53275,18.441984 22.345329,13.656979"/><path id="path4524" fill="none" stroke="#d8d8c0" stroke-dasharray="none" stroke-linecap="butt" stroke-linejoin="miter" stroke-miterlimit="4" stroke-opacity="1" stroke-width="1.039" d="M 22.281258,9.0214996 27.625032,7.5859983"/><path id="path4526" fill="none" stroke="#d8d8c0" stroke-dasharray="none" stroke-linecap="butt" stroke-linejoin="miter" stroke-miterlimit="4" stroke-opacity="1" stroke-width="1.039" d="M 22.896368,10.407159 28.240142,8.971658"/><path id="path4528" fill="#d8d0c0" fill-opacity="1" stroke="#d8d8c0" stroke-dasharray="none" stroke-linecap="butt" stroke-linejoin="miter" stroke-miterlimit="4" stroke-opacity="1" stroke-width="1.039" d="m 23.511477,11.792819 5.343775,-1.435501"/><path id="path4530" fill="#d8d0c0" fill-opacity="1" stroke="#d8d8c0" stroke-dasharray="none" stroke-linecap="butt" stroke-linejoin="miter" stroke-miterlimit="4" stroke-opacity="1" stroke-width="1.039" d="m 24.126587,13.178479 5.343774,-1.435502"/><path id="path5074" fill="none" stroke="#909070" stroke-linecap="butt" stroke-linejoin="round" stroke-opacity="1" stroke-width="1" d="M 23,6.5 C 23.358449,5.10735 23.945154,3.4815499 21.5,2 15.593553,0.9014217 15.036727,4.213187 9.5,2 c -5.4689516,-4.7903111 7.640178,-5.0400443 11,-8"/></g></svg>