<svg xmlns="http://www.w3.org/2000/svg" xmlns:svg="http://www.w3.org/2000/svg" id="svg5375" width="32" height="32" version="1.1"><metadata id="metadata5380"/><g id="layer1" transform="translate(0,8)"><path id="path4094" fill="#b8b8a0" fill-opacity="1" stroke="#909070" stroke-dashoffset="0" stroke-linecap="square" stroke-linejoin="round" stroke-miterlimit="4" stroke-opacity="1" stroke-width=".75" d="m 18.5,-6 c -3.313708,0 -6,2.6862915 -6,6 0,3.313708 2.686292,6 6,6 3.313708,0 6,-2.686292 6,-6 0,-3.3137085 -2.686292,-6 -6,-6 z m 0,3 c 1.656854,0 3,1.3431458 3,3 0,1.6568542 -1.343146,3 -3,3 -1.656854,0 -3,-1.3431458 -3,-3 0,-1.6568542 1.343146,-3 3,-3 z"/><path id="path4123" fill="#b8b8a0" fill-opacity="1" stroke="#909070" stroke-dasharray="none" stroke-linecap="butt" stroke-linejoin="miter" stroke-miterlimit="4" stroke-opacity="1" stroke-width=".75" d="m 14.5,13 -7,14 6,3 1,0.5 2.5,-5 -5,-2.5 4.5,-9 z" transform="translate(0,-8)"/><path id="path4125" fill="none" stroke="#909070" stroke-dasharray="none" stroke-linecap="square" stroke-linejoin="miter" stroke-miterlimit="4" stroke-opacity="1" stroke-width=".75" d="m 15.375,20.75 -5,-2.5 0,0 0,0"/><path id="path4127" fill="none" stroke="#909070" stroke-dasharray="none" stroke-linecap="square" stroke-linejoin="miter" stroke-miterlimit="4" stroke-opacity="1" stroke-width=".75" d="m 16.125,19.25 -5,-2.5"/><path id="path4131" fill="#b8b8a0" fill-opacity="1" stroke="#000" stroke-dasharray="none" stroke-linecap="butt" stroke-linejoin="miter" stroke-miterlimit="4" stroke-opacity="1" stroke-width="0" d="m 15.6,14.95 -1.2,-0.9 0.85,-1.75 1.55,0.25 z" transform="translate(0,-8)"/></g></svg>