<svg xmlns="http://www.w3.org/2000/svg" xmlns:svg="http://www.w3.org/2000/svg" id="svg5078" width="32" height="32" version="1.1"><metadata id="metadata5083"/><g id="layer1"><path id="path6977" fill="silver" fill-opacity="1" stroke="gray" stroke-dashoffset="0" stroke-linecap="square" stroke-linejoin="round" stroke-miterlimit="4" stroke-opacity="1" stroke-width="1" d="M 16 4 C 9.372583 4 4 9.372583 4 16 C 4 22.627417 9.372583 28 16 28 C 22.627417 28 28 22.627417 28 16 C 28 9.372583 22.627417 4 16 4 z M 16 10 C 19.313708 10 22 12.686292 22 16 C 22 19.313708 19.313708 22 16 22 C 12.686292 22 10 19.313708 10 16 C 10 12.686292 12.686292 10 16 10 z"/><path id="path6989" fill="silver" fill-opacity="1" stroke="#000" stroke-dasharray="none" stroke-linecap="butt" stroke-linejoin="miter" stroke-miterlimit="4" stroke-opacity="1" stroke-width="0" d="m 13.5,1 5,0 0,4.5 -5,0 z"/><path id="path6991" fill="none" stroke="gray" stroke-linecap="butt" stroke-linejoin="miter" stroke-opacity="1" stroke-width="1" d="M 14,4.7679097 14,1.5 l 4,0 0,3.3125613"/><path id="path6993" fill="silver" fill-opacity="1" stroke="#000" stroke-dasharray="none" stroke-linecap="butt" stroke-linejoin="miter" stroke-miterlimit="4" stroke-opacity="1" stroke-width="0" d="M 21.387368,1.7489863 25.719371,4.2457339 23.472298,8.1445368 19.140295,5.6477892 z"/><path id="path6995" fill="none" stroke="gray" stroke-linecap="butt" stroke-linejoin="miter" stroke-opacity="1" stroke-width="1" d="m 19.939064,5.2631805 1.631829,-2.831319 3.465603,1.997398 -1.654126,2.8700052"/><path id="path6997" fill="silver" fill-opacity="1" stroke="#000" stroke-dasharray="none" stroke-linecap="butt" stroke-linejoin="miter" stroke-miterlimit="4" stroke-opacity="1" stroke-width="0" d="m 27.777618,6.3909334 2.492812,4.3342696 -3.900842,2.24353 -2.492812,-4.3342692 z"/><path id="path6999" fill="none" stroke="gray" stroke-linecap="butt" stroke-linejoin="miter" stroke-opacity="1" stroke-width="1" d="m 24.760672,8.7028981 2.832801,-1.6292566 1.994249,3.4674155 -2.871507,1.651518"/><path id="path7013" fill="silver" fill-opacity="1" stroke="#000" stroke-dasharray="none" stroke-linecap="butt" stroke-linejoin="miter" stroke-miterlimit="4" stroke-opacity="1" stroke-width="0" d="m 30.997906,13.514729 -0.0016,4.999999 -4.5,-0.0015 0.0016,-5 z"/><path id="path7015" fill="none" stroke="gray" stroke-linecap="butt" stroke-linejoin="miter" stroke-opacity="1" stroke-width="1" d="m 27.229835,14.01351 3.26791,0.0011 -0.0013,4 -3.312561,-0.0011"/><path id="path7017" fill="silver" fill-opacity="1" stroke="#000" stroke-dasharray="none" stroke-linecap="butt" stroke-linejoin="miter" stroke-miterlimit="4" stroke-opacity="1" stroke-width="0" d="M 30.246369,21.401854 27.74822,25.733049 23.850144,23.484715 26.348293,19.15352 z"/><path id="path7019" fill="none" stroke="gray" stroke-linecap="butt" stroke-linejoin="miter" stroke-opacity="1" stroke-width="1" d="m 26.732644,19.952413 2.830791,1.632745 -1.998519,3.464957 -2.869471,-1.655054"/><path id="path7021" fill="silver" fill-opacity="1" stroke="#000" stroke-dasharray="none" stroke-linecap="butt" stroke-linejoin="miter" stroke-miterlimit="4" stroke-opacity="1" stroke-width="0" d="m 25.602356,27.790602 -4.335076,2.49141 -2.242269,-3.901567 4.335075,-2.49141 z"/><path id="path7023" fill="none" stroke="gray" stroke-linecap="butt" stroke-linejoin="miter" stroke-opacity="1" stroke-width="1" d="m 23.291367,24.772908 1.62834,2.833328 -3.468061,1.993128 -1.650589,-2.872041"/><path id="path7049" fill="silver" fill-opacity="1" stroke="#000" stroke-dasharray="none" stroke-linecap="butt" stroke-linejoin="miter" stroke-miterlimit="4" stroke-opacity="1" stroke-width="0" d="m 18.677733,30.975265 -4.999609,0.06248 -0.05624,-4.499648 4.999609,-0.06248 z"/><path id="path7051" fill="none" stroke="gray" stroke-linecap="butt" stroke-linejoin="miter" stroke-opacity="1" stroke-width="1" d="m 18.130686,27.213898 0.04084,3.267654 -3.999688,0.04999 -0.0414,-3.312303"/><path id="path7053" fill="silver" fill-opacity="1" stroke="#000" stroke-dasharray="none" stroke-linecap="butt" stroke-linejoin="miter" stroke-miterlimit="4" stroke-opacity="1" stroke-width="0" d="m 10.781622,30.324903 -4.3628664,-2.442417 2.198176,-3.926579 4.3628654,2.442416 z"/><path id="path7055" fill="none" stroke="gray" stroke-linecap="butt" stroke-linejoin="miter" stroke-opacity="1" stroke-width="1" d="m 12.185897,26.792884 -1.59632,2.851491 -3.4902924,-1.953934 1.6181308,-2.890452"/><path id="path7057" fill="silver" fill-opacity="1" stroke="#000" stroke-dasharray="none" stroke-linecap="butt" stroke-linejoin="miter" stroke-miterlimit="4" stroke-opacity="1" stroke-width="0" d="m 4.3338616,25.763175 -2.546781,-4.302778 3.8725,-2.292103 2.546782,4.302779 z"/><path id="path7059" fill="none" stroke="gray" stroke-linecap="butt" stroke-linejoin="miter" stroke-opacity="1" stroke-width="1" d="m 7.3216806,23.413689 -2.81222,1.66453 -2.037424,-3.442222 2.850644,-1.687274"/><path id="path7061" fill="silver" fill-opacity="1" stroke="#000" stroke-dasharray="none" stroke-linecap="butt" stroke-linejoin="miter" stroke-miterlimit="4" stroke-opacity="1" stroke-width="0" d="m 1.0248016,18.68018 -0.06088,-4.999629 4.49966704,-0.05473 0.06088,4.999629 z"/><path id="path7063" fill="none" stroke="gray" stroke-linecap="butt" stroke-linejoin="miter" stroke-opacity="1" stroke-width="1" d="m 4.7863446,18.134349 -3.267668,0.03974 -0.04869,-3.999704 3.312316,-0.0403"/><path id="path7065" fill="silver" fill-opacity="1" stroke="#000" stroke-dasharray="none" stroke-linecap="butt" stroke-linejoin="miter" stroke-miterlimit="4" stroke-opacity="1" stroke-width="0" d="m 1.6777166,10.784279 2.443828,-4.3620761 3.925869,2.1994454 -2.443829,4.3620757 z"/><path id="path7067" fill="none" stroke="gray" stroke-linecap="butt" stroke-linejoin="miter" stroke-opacity="1" stroke-width="1" d="m 5.2092806,12.189697 -2.850974,-1.597242 1.955062,-3.4896621 2.88993,1.6190659"/><path id="path7069" fill="silver" fill-opacity="1" stroke="#000" stroke-dasharray="none" stroke-linecap="butt" stroke-linejoin="miter" stroke-miterlimit="4" stroke-opacity="1" stroke-width="0" d="M 6.2415286,4.3379944 10.545132,1.7926048 12.835982,5.6658462 8.5323806,8.2112358 z"/><path id="path7071" fill="none" stroke="gray" stroke-linecap="butt" stroke-linejoin="miter" stroke-opacity="1" stroke-width="1" d="M 8.5900486,7.326573 6.9264286,4.5138151 10.369311,2.4775035 12.055662,5.3286933"/></g></svg>