<svg xmlns="http://www.w3.org/2000/svg" xmlns:svg="http://www.w3.org/2000/svg" id="svg5078" width="32" height="32" version="1.1"><metadata id="metadata5083"/><g id="layer1"><path id="path6425" fill="#f8f8f8" fill-opacity="1" stroke="gray" stroke-linecap="butt" stroke-linejoin="miter" stroke-opacity="1" stroke-width="1" d="m 1.5,0.5 0,23 17,0 0,-23 z"/><path id="path6935" fill="#f8f8f8" fill-opacity="1" stroke="gray" stroke-linecap="butt" stroke-linejoin="miter" stroke-opacity="1" stroke-width="1" d="m 13.5,8.5 0,23 17,0 0,-23 z"/><path id="path6937" fill="#909070" fill-opacity="1" stroke="#909070" stroke-dasharray="none" stroke-linecap="butt" stroke-linejoin="round" stroke-miterlimit="4" stroke-opacity="1" stroke-width=".5" d="m 10,6 c 0,0 4.077503,-0.551365 6,0 1.5114,0.4334639 2.737784,1.1247732 3.5,2.5 C 20.065563,9.5204162 20,12 20,12 l 2,0 -3,4 -3,-4 2,0 C 18,12 17.872678,10.245356 17.5,9.5 17.127322,8.754644 16.790569,8.2635231 16,8 14.102633,7.3675445 10,8 10,8 z"/><path id="path6939" fill="#909070" fill-opacity="1" stroke="#909070" stroke-dasharray="none" stroke-linecap="butt" stroke-linejoin="round" stroke-miterlimit="4" stroke-opacity="1" stroke-width=".5" d="m 17,26 c 0,0 -4.077503,0.551365 -6,0 C 9.4886,25.566536 8.262216,24.875227 7.5,23.5 6.934437,22.479584 7,20 7,20 l -2,0 3,-4 3,4 -2,0 c 0,0 0.127322,1.754644 0.5,2.5 0.372678,0.745356 0.709431,1.236477 1.5,1.5 1.897367,0.632456 6,0 6,0 z"/></g></svg>