<svg xmlns="http://www.w3.org/2000/svg" xmlns:svg="http://www.w3.org/2000/svg" id="svg5375" width="24" height="24" version="1.1"><metadata id="metadata5380"/><g id="layer1"><path id="path6754" fill="#808060" fill-opacity="1" stroke="#80807f" stroke-dasharray="none" stroke-linecap="butt" stroke-linejoin="miter" stroke-miterlimit="4" stroke-opacity="1" stroke-width="2" d="m 1,2 0,20 15,0 0,-6 -3,0 0,3 -9,0 0,-14 9,0 0,3 3,0 0,-6 z"/><path id="path7264" fill="maroon" fill-opacity="1" stroke="#600000" stroke-dasharray="none" stroke-linecap="butt" stroke-linejoin="miter" stroke-miterlimit="4" stroke-opacity="1" stroke-width="0" d="m 8,11 0,2 11,0 -1,4.5 6,-5.5 -6,-5.5 1,4.5 z"/><path id="path7829" fill="#c0c0a0" fill-opacity="1" stroke="#000" stroke-dasharray="none" stroke-linecap="butt" stroke-linejoin="miter" stroke-miterlimit="4" stroke-opacity="1" stroke-width="0" d="m 1,2 0,20 15,0 0,-6 -3,0 0,3 -9,0 0,-14 9,0 0,3 3,0 0,-6 z"/></g></svg>