<svg xmlns="http://www.w3.org/2000/svg" xmlns:svg="http://www.w3.org/2000/svg" id="svg5375" width="24" height="24" version="1.1"><metadata id="metadata5380"/><g id="layer1"><path id="path8316" fill="#808060" fill-opacity="1" stroke="#404030" stroke-dasharray="none" stroke-linecap="butt" stroke-linejoin="miter" stroke-miterlimit="4" stroke-opacity="1" stroke-width=".5" d="M 1,23 1,24 5,24 5,23 4,23 4,1 5,1 5,0 1,0 1,1 2,1 2,23 z"/><path id="path8318" fill="gray" fill-opacity="1" stroke="#000" stroke-dasharray="none" stroke-linecap="butt" stroke-linejoin="miter" stroke-miterlimit="4" stroke-opacity="1" stroke-width="0" d="M 4,2 22,2 22,15 4,15 4,14 21,14 21,3 4,3 z"/><path id="path8320" fill="gray" fill-opacity="1" stroke="#000" stroke-dasharray="none" stroke-linecap="butt" stroke-linejoin="miter" stroke-miterlimit="4" stroke-opacity="1" stroke-width="0" d="M 4,7 21,7 21,6 4,6 4,6 z"/><path id="path8322" fill="gray" fill-opacity="1" stroke="#000" stroke-dasharray="none" stroke-linecap="butt" stroke-linejoin="miter" stroke-miterlimit="4" stroke-opacity="1" stroke-width="0" d="m 4,11 17,0 0,-1 -17,0 z"/><path id="path8324" fill="#c0c0a0" fill-opacity="1" stroke="#000" stroke-dasharray="none" stroke-linecap="butt" stroke-linejoin="miter" stroke-miterlimit="4" stroke-opacity="1" stroke-width="0" d="M 4,3 4,6 21,6 21,3 z"/><path id="path8326" fill="#fff" fill-opacity="1" stroke="#000" stroke-dasharray="none" stroke-linecap="butt" stroke-linejoin="miter" stroke-miterlimit="4" stroke-opacity="1" stroke-width="0" d="M 4,10 21,10 21,7 4,7 z"/><path id="path8328" fill="#c0c0a0" fill-opacity="1" stroke="#000" stroke-dasharray="none" stroke-linecap="butt" stroke-linejoin="miter" stroke-miterlimit="4" stroke-opacity="1" stroke-width="0" d="m 4,14 17,0 0,-3 -17,0 z"/></g></svg>