<svg xmlns="http://www.w3.org/2000/svg" xmlns:osb="http://www.openswatchbook.org/uri/2009/osb" xmlns:svg="http://www.w3.org/2000/svg" id="svg5375" width="24" height="24" version="1.1"><defs id="defs5377"><linearGradient id="linearGradient10047"><stop id="stop10049" offset="0" stop-color="#d89680" stop-opacity="1"/><stop id="stop10051" offset="1" stop-color="gray" stop-opacity="0"/></linearGradient><linearGradient id="linearGradient9932" osb:paint="gradient"><stop id="stop9934" offset="0" stop-color="gray" stop-opacity="1"/><stop id="stop9936" offset="1" stop-color="gray" stop-opacity="0"/></linearGradient><filter id="filter10166"><feGaussianBlur id="feGaussianBlur10168" stdDeviation=".098"/></filter><filter id="filter10190"><feGaussianBlur id="feGaussianBlur10192" stdDeviation=".19"/></filter></defs><metadata id="metadata5380"/><g id="layer1"><path id="path10074" fill="gray" fill-opacity="1" stroke="silver" stroke-dasharray="none" stroke-linecap="butt" stroke-linejoin="miter" stroke-miterlimit="4" stroke-opacity="1" stroke-width=".5" d="M 1,12 C 1,12 1,9.5 1,7 1,4.5 3,3 5,3 c 2,0 12,0 14,0 2,0 4,2 4,4 0,2 0,7.5 0,10 0,2.5 -2,4 -4,4 -2,0 -7,0 -7,0 0,0 -5,0 -7,0 -2,0 -4,-2 -4,-4 0,-2 0,-5 0,-5 z" filter="url(#filter10190)" transform="matrix(-1,0,0,1,24,0)"/><path id="path10076" fill="#e0e0e0" fill-opacity="1" stroke="silver" stroke-dasharray="none" stroke-linecap="butt" stroke-linejoin="round" stroke-miterlimit="4" stroke-opacity="1" stroke-width=".5" d="M 8,12 8,17 18,12 8,7 z" filter="url(#filter10166)" transform="matrix(-1,0,0,1,24,0)"/></g></svg>