<svg xmlns="http://www.w3.org/2000/svg" xmlns:svg="http://www.w3.org/2000/svg" id="svg5375" width="24" height="24" version="1.1"><metadata id="metadata5380"/><g id="layer1"><path id="path5937" fill="#7f8060" fill-opacity="1" stroke="#404030" stroke-linecap="butt" stroke-linejoin="round" stroke-opacity="1" stroke-width="1" d="m 3,17.5 -0.5,-9 21,0 0,15 -4,-8 z"/><path id="path5939" fill="#f8f8f8" fill-opacity="1" stroke="gray" stroke-linecap="butt" stroke-linejoin="miter" stroke-opacity="1" stroke-width="1" d="m 21.5,22 0,-20.5 -16,0 0,20.5 z"/><path id="path5935" fill="#c0c0a0" fill-opacity="1" stroke="#404030" stroke-linecap="butt" stroke-linejoin="round" stroke-opacity="1" stroke-width="1" d="m 0.5,12.5 4,11 19,0 -3.5,-11 z"/><path id="path5941" fill="green" fill-opacity="1" stroke="#fff" stroke-dasharray="none" stroke-linecap="butt" stroke-linejoin="miter" stroke-miterlimit="4" stroke-opacity="1" stroke-width="1" d="m 4.5,10.5 c 0,0 0,-1 0,-2 0,-1 0,-2 3,-2 3,0 1.5,0 1.5,0 l 0,3 6.5,-5 -6.5,-5 0,3 c 0,0 1.5,0 -1.5,0 -3,0 -7,0.5 -7,6 0,5.5 0,2 0,2 z"/></g></svg>