<svg xmlns="http://www.w3.org/2000/svg" xmlns:svg="http://www.w3.org/2000/svg" id="svg5375" width="24" height="24" version="1.1"><metadata id="metadata5380"/><g id="layer1"><path id="path9704" fill="#e0e0e0" fill-opacity="1" stroke="#909090" stroke-linecap="butt" stroke-linejoin="round" stroke-opacity="1" stroke-width="1" d="m 0.5,20.5 12,-12 c 0,0 -0.526372,-1.3133219 -0.5,-2 0.04045,-1.0533161 0.445831,-2.1033353 1,-3 0.495664,-0.8020013 1.168749,-1.5551281 2,-2 C 15.749279,1.0989979 16.650163,1 17.5,1 18.349837,1 20,1.5 20,1.5 c -1.5,1.5 -3,3 -4,4 0,0 -0.537362,0.9742797 -0.5,1.5 0.02642,0.3717404 0.236477,0.7364769 0.5,1 0.263523,0.2635231 0.62826,0.4735812 1,0.5 C 17.52572,8.537362 18.5,8 18.5,8 l 4,-4 c 0,0 0.520217,1.6504039 0.5,2.5 -0.06997,1.0865865 -0.528723,2.0693597 -1,3 -0.413453,0.573635 -1.5,1.5 -1.5,1.5 -0.924801,0.567434 -1.5,1 -3,1 -0.687184,0 -2,-0.5 -2,-0.5 l -12,12 z"/><path id="path3764" fill="#c0c0c1" fill-opacity="1" stroke="#909090" stroke-dasharray="none" stroke-linecap="butt" stroke-linejoin="round" stroke-miterlimit="4" stroke-opacity="1" stroke-width=".75" d="M 15.5,14 4,2.5 4,1.5 3,0.5 0.5,3 l 1,1 1,0 11.5,11.5 z"/><path id="path2994" fill="#a0a080" fill-opacity="1" stroke="#606040" stroke-dasharray="none" stroke-linecap="butt" stroke-linejoin="round" stroke-miterlimit="4" stroke-opacity="1" stroke-width="1" d="m 20.5,23.5 1.5,0 1.5,-1.5 0,-1.5 -4,-4 -2.5,-1 -0.5,-2.5 -3.5,3.5 2.5,0.5 1,2.5 z"/></g></svg>