<svg xmlns="http://www.w3.org/2000/svg" xmlns:svg="http://www.w3.org/2000/svg" id="svg5375" width="24" height="24" version="1.1"><defs id="defs5377"><marker id="TriangleOutM" orient="auto" overflow="visible" refX="0" refY="0"><path id="path4813" fill-rule="evenodd" stroke="#000" stroke-width="1pt" marker-start="none" d="M 5.77,0.0 L -2.88,5.0 L -2.88,-5.0 L 5.77,0.0 z" transform="scale(0.4)"/></marker><marker id="TriangleOutS" orient="auto" overflow="visible" refX="0" refY="0"><path id="path4816" fill-rule="evenodd" stroke="#000" stroke-width="1pt" marker-start="none" d="M 5.77,0.0 L -2.88,5.0 L -2.88,-5.0 L 5.77,0.0 z" transform="scale(0.2)"/></marker><marker id="Arrow2Mend" orient="auto" overflow="visible" refX="0" refY="0"><path id="path4694" fill-rule="evenodd" stroke-linejoin="round" stroke-width=".625" d="M 8.7185878,4.0337352 L -2.2072895,0.016013256 L 8.7185884,-4.0017078 C 6.9730900,-1.6296469 6.9831476,1.6157441 8.7185878,4.0337352 z" font-size="12" transform="scale(0.6) rotate(180) translate(0,0)"/></marker><marker id="Arrow1Mend" orient="auto" overflow="visible" refX="0" refY="0"><path id="path4676" fill-rule="evenodd" stroke="#000" stroke-width="1pt" marker-start="none" d="M 0.0,0.0 L 5.0,-5.0 L -12.5,0.0 L 5.0,5.0 L 0.0,0.0 z" transform="scale(0.4) rotate(180) translate(10,0)"/></marker></defs><metadata id="metadata5380"/><g id="layer1"><path id="path8349" fill="#fff" fill-opacity=".889" stroke="gray" stroke-linecap="butt" stroke-linejoin="miter" stroke-opacity="1" stroke-width="1" d="m 2.5,0.5 0,23 19,0 0,-23 z"/><text id="text4650" x="4" y="9" fill="#000" fill-opacity="1" stroke="none" font-family="Sans" font-size="10" font-stretch="normal" font-style="normal" font-variant="normal" font-weight="normal" letter-spacing="0" text-anchor="start" word-spacing="0" writing-mode="lr-tb" xml:space="preserve" style="text-align:start;line-height:25%;-inkscape-font-specification:Sans"><tspan id="tspan4652" x="4" y="9">A</tspan></text><text id="text4658" x="14" y="21" fill="#000" fill-opacity="1" stroke="none" font-family="Sans" font-size="10" font-stretch="normal" font-style="normal" font-variant="normal" font-weight="normal" letter-spacing="0" text-anchor="start" word-spacing="0" writing-mode="lr-tb" xml:space="preserve" style="text-align:start;line-height:25%;-inkscape-font-specification:Sans"><tspan id="tspan4660" x="14" y="21">B</tspan></text><path id="path6074" fill="maroon" fill-opacity="1" stroke="#000" stroke-dasharray="none" stroke-linecap="butt" stroke-linejoin="miter" stroke-miterlimit="4" stroke-opacity="1" stroke-width="0" d="m 6,10 c 0,0 -1.0320647,5.467935 0.5,7 1.5320647,1.532065 4.5,1 4.5,1 L 10,20.5 14.5,17 10,13.5 11,16 C 11,16 9.0606602,16.56066 8,15.5 6.9393398,14.43934 8,10 8,10 z"/></g></svg>