<svg xmlns="http://www.w3.org/2000/svg" xmlns:osb="http://www.openswatchbook.org/uri/2009/osb" xmlns:svg="http://www.w3.org/2000/svg" id="svg5375" width="24" height="24" version="1.1"><defs id="defs5377"><linearGradient id="linearGradient10047"><stop id="stop10049" offset="0" stop-color="#d89680" stop-opacity="1"/><stop id="stop10051" offset="1" stop-color="gray" stop-opacity="0"/></linearGradient><linearGradient id="linearGradient9932" osb:paint="gradient"><stop id="stop9934" offset="0" stop-color="gray" stop-opacity="1"/><stop id="stop9936" offset="1" stop-color="gray" stop-opacity="0"/></linearGradient></defs><metadata id="metadata5380"/><g id="layer1"><path id="path8432" fill="green" fill-opacity="1" stroke="#006000" stroke-dasharray="none" stroke-linecap="butt" stroke-linejoin="miter" stroke-miterlimit="4" stroke-opacity="1" stroke-width="1" d="M 1.5,9.5 7,17 l 5.5,-7.5 -3,1 c 0,0 0,0 0,-2 0,-2 1,-3.5 2.5,-4 1.5,-0.5 2.907949,-0.1576441 4.5,0 1.592051,0.1576441 5.5,1 5.5,1 C 22,5.5 18.221516,3.6153243 16,3 13.778484,2.3846757 10.5,1.5 8,2.5 c -2.5,1 -3.5,3 -3.5,5 0,2 0,3 0,3 z"/><path id="path8478" fill="gray" fill-opacity="1" stroke="#606060" stroke-dasharray="none" stroke-linecap="butt" stroke-linejoin="miter" stroke-miterlimit="4" stroke-opacity="1" stroke-width="1" d="M 22.5,14.5 17,7 l -5.5,7.5 3,-1 c 0,0 0,0 0,2 0,2 -1,3.5 -2.5,4 -1.5,0.5 -2.907949,0.157644 -4.5,0 -1.592051,-0.157644 -5.5,-1 -5.5,-1 0,0 3.778484,1.884676 6,2.5 2.221516,0.615324 5.5,1.5 8,0.5 2.5,-1 3.5,-3 3.5,-5 0,-2 0,-3 0,-3 z"/></g></svg>