<svg xmlns="http://www.w3.org/2000/svg" xmlns:osb="http://www.openswatchbook.org/uri/2009/osb" xmlns:svg="http://www.w3.org/2000/svg" id="svg5375" width="24" height="24" version="1.1"><defs id="defs5377"><linearGradient id="linearGradient7676" osb:paint="solid"><stop id="stop7678" offset="0" stop-color="#804040" stop-opacity="1"/></linearGradient><marker id="TriangleOutM" orient="auto" overflow="visible" refX="0" refY="0"><path id="path4813" fill-rule="evenodd" stroke="#000" stroke-width="1pt" marker-start="none" d="M 5.77,0.0 L -2.88,5.0 L -2.88,-5.0 L 5.77,0.0 z" transform="scale(0.4)"/></marker><marker id="TriangleOutS" orient="auto" overflow="visible" refX="0" refY="0"><path id="path4816" fill-rule="evenodd" stroke="#000" stroke-width="1pt" marker-start="none" d="M 5.77,0.0 L -2.88,5.0 L -2.88,-5.0 L 5.77,0.0 z" transform="scale(0.2)"/></marker><marker id="Arrow2Mend" orient="auto" overflow="visible" refX="0" refY="0"><path id="path4694" fill-rule="evenodd" stroke-linejoin="round" stroke-width=".625" d="M 8.7185878,4.0337352 L -2.2072895,0.016013256 L 8.7185884,-4.0017078 C 6.9730900,-1.6296469 6.9831476,1.6157441 8.7185878,4.0337352 z" font-size="12" transform="scale(0.6) rotate(180) translate(0,0)"/></marker><marker id="Arrow1Mend" orient="auto" overflow="visible" refX="0" refY="0"><path id="path4676" fill-rule="evenodd" stroke="#000" stroke-width="1pt" marker-start="none" d="M 0.0,0.0 L 5.0,-5.0 L -12.5,0.0 L 5.0,5.0 L 0.0,0.0 z" transform="scale(0.4) rotate(180) translate(10,0)"/></marker></defs><metadata id="metadata5380"/><g id="layer1"><path id="path7696" fill="none" stroke="#606060" stroke-dasharray="none" stroke-dashoffset=".5" stroke-linecap="butt" stroke-linejoin="bevel" stroke-miterlimit="4" stroke-opacity="1" stroke-width="2" d="M 21,12 A 9,9 0 1 1 18.363961,5.6360387" transform="matrix(-1,0,0,1,24.5,1)"/><path id="path7698" fill="none" stroke="#606060" stroke-dasharray="none" stroke-dashoffset=".5" stroke-linecap="butt" stroke-linejoin="bevel" stroke-miterlimit="4" stroke-opacity="1" stroke-width="2" d="M 17,12 A 5,5 0 1 1 15.535534,8.4644659" transform="matrix(-1,0,0,1,24.5,1)"/><path id="path7702" fill="#f8f8f8" fill-opacity="1" stroke="#606060" stroke-dasharray="none" stroke-linecap="butt" stroke-linejoin="miter" stroke-miterlimit="4" stroke-opacity="1" stroke-width="1" d="M 8.5,8 6,1.5 l -5,11 11,0 z"/><path id="path6218" fill="none" stroke="#f8f8f8" stroke-dasharray="none" stroke-dashoffset=".5" stroke-linecap="butt" stroke-linejoin="bevel" stroke-miterlimit="4" stroke-opacity="1" stroke-width="4" d="M 19.000284,12 A 7.0002842,7 0 1 1 16.949948,7.0502523" transform="matrix(-1,0,0,1,24.499716,1)"/></g></svg>